NotoSerifBengali-CondensedSemiBold.ufo
<glyph name="exclam" format="2">
  <advance width="320.29310344827593"/>
  <unicode hex="0021"/>
  <outline>
    <contour>
      <point x="136.63793103448276" y="215.30344827586208" type="line"/>
      <point x="188.27241379310348" y="215.30344827586208" type="line"/>
      <point x="228.27241379310348" y="714.0" type="line"/>
      <point x="96.63793103448276" y="714.0" type="line"/>
    </contour>
    <contour>
      <point x="163.27586206896552" y="-7.620689655172414" type="curve" smooth="yes"/>
      <point x="196.9896551724138" y="-7.620689655172414"/>
      <point x="226.348275862069" y="9.541379310344828"/>
      <point x="226.348275862069" y="62.46896551724138" type="curve" smooth="yes"/>
      <point x="226.348275862069" y="115.28275862068965"/>
      <point x="196.9896551724138" y="132.25862068965517"/>
      <point x="163.27586206896552" y="132.25862068965517" type="curve" smooth="yes"/>
      <point x="127.24137931034485" y="132.25862068965517"/>
      <point x="99.58275862068966" y="115.28275862068965"/>
      <point x="99.58275862068966" y="62.46896551724138" type="curve" smooth="yes"/>
      <point x="99.58275862068966" y="9.541379310344828"/>
      <point x="127.24137931034485" y="-7.620689655172414"/>
    </contour>
  </outline>
</glyph>
<glyph name="quotedbl" format="2">
  <advance width="407.5896551724138"/>
  <unicode hex="0022"/>
  <outline>
    <contour>
      <point x="269.1275862068965" y="464.8034482758621" type="line"/>
      <point x="319.58620689655174" y="464.8034482758621" type="line"/>
      <point x="352.4103448275862" y="714.0" type="line"/>
      <point x="233.5206896551724" y="714.0" type="line"/>
    </contour>
    <contour>
      <point x="89.2551724137931" y="464.8034482758621" type="line"/>
      <point x="139.57931034482758" y="464.8034482758621" type="line"/>
      <point x="173.9551724137931" y="714.0" type="line"/>
      <point x="54.99310344827586" y="714.0" type="line"/>
    </contour>
  </outline>
</glyph>
<glyph name="numbersign" format="2">
  <advance width="483.44827586206895"/>
  <unicode hex="0023"/>
  <outline>
    <contour>
      <point x="57.34482758620689" y="0.0" type="line"/>
      <point x="120.70344827586206" y="0.0" type="line"/>
      <point x="158.96896551724137" y="203.93448275862067" type="line"/>
      <point x="261.82068965517243" y="203.93448275862067" type="line"/>
      <point x="223.87586206896555" y="0.0" type="line"/>
      <point x="287.2344827586207" y="0.0" type="line"/>
      <point x="324.9931034482758" y="203.93448275862067" type="line"/>
      <point x="436.55862068965513" y="203.93448275862067" type="line"/>
      <point x="436.55862068965513" y="264.14137931034486" type="line"/>
      <point x="337.4034482758621" y="264.14137931034486" type="line"/>
      <point x="372.9931034482758" y="454.97241379310344" type="line"/>
      <point x="468.6724137931034" y="454.97241379310344" type="line"/>
      <point x="468.6724137931034" y="516.4448275862069" type="line"/>
      <point x="384.5344827586207" y="516.4448275862069" type="line"/>
      <point x="422.34827586206893" y="714.0" type="line"/>
      <point x="358.28965517241375" y="714.0" type="line"/>
      <point x="321.17586206896556" y="516.4448275862069" type="line"/>
      <point x="218.32413793103447" y="516.4448275862069" type="line"/>
      <point x="255.58965517241379" y="714.0" type="line"/>
      <point x="191.34482758620692" y="714.0" type="line"/>
      <point x="155.15172413793104" y="516.4448275862069" type="line"/>
      <point x="46.5103448275862" y="516.4448275862069" type="line"/>
      <point x="46.5103448275862" y="454.97241379310344" type="line"/>
      <point x="143.2103448275862" y="454.97241379310344" type="line"/>
      <point x="106.85172413793103" y="264.14137931034486" type="line"/>
      <point x="14.21034482758621" y="264.14137931034486" type="line"/>
      <point x="14.21034482758621" y="203.93448275862067" type="line"/>
      <point x="95.79655172413793" y="203.93448275862067" type="line"/>
    </contour>
    <contour>
      <point x="170.62413793103445" y="264.14137931034486" type="line"/>
      <point x="207.08275862068965" y="454.97241379310344" type="line"/>
      <point x="310.5551724137931" y="454.97241379310344" type="line"/>
      <point x="274.34482758620686" y="264.14137931034486" type="line"/>
    </contour>
  </outline>
</glyph>
<glyph name="percent" format="2">
  <advance width="779.9172413793104"/>
  <unicode hex="0025"/>
  <outline>
    <contour>
      <point x="206.00344827586207" y="0.0" type="line"/>
      <point x="269.3103448275862" y="0.0" type="line"/>
      <point x="570.9344827586207" y="714.0" type="line"/>
      <point x="508.0793103448276" y="714.0" type="line"/>
    </contour>
    <contour>
      <point x="183.06896551724137" y="280.0" type="curve" smooth="yes"/>
      <point x="285.03793103448277" y="280.0"/>
      <point x="334.2206896551724" y="369.0"/>
      <point x="334.2206896551724" y="503.0" type="curve"/>
      <point x="334.2206896551724" y="637.0"/>
      <point x="284.92413793103447" y="724.0"/>
      <point x="184.06896551724137" y="724.0" type="curve" smooth="yes"/>
      <point x="77.10000000000001" y="724.0"/>
      <point x="32.5551724137931" y="637.0"/>
      <point x="32.5551724137931" y="503.0" type="curve" smooth="yes"/>
      <point x="32.5551724137931" y="369.0"/>
      <point x="76.98620689655172" y="280.0"/>
    </contour>
    <contour>
      <point x="183.06896551724137" y="322.1137931034483" type="curve" smooth="yes"/>
      <point x="136.09310344827585" y="322.1137931034483"/>
      <point x="118.91379310344826" y="387.55172413793105"/>
      <point x="118.91379310344826" y="503.0" type="curve"/>
      <point x="118.91379310344826" y="616.3344827586208"/>
      <point x="135.79310344827584" y="680.8862068965518"/>
      <point x="183.95517241379312" y="680.8862068965518" type="curve" smooth="yes"/>
      <point x="231.41724137931033" y="680.8862068965518"/>
      <point x="246.6758620689655" y="616.5620689655173"/>
      <point x="246.6758620689655" y="503.0" type="curve" smooth="yes"/>
      <point x="246.6758620689655" y="387.66551724137935"/>
      <point x="231.41724137931033" y="322.1137931034483"/>
    </contour>
    <contour>
      <point x="596.2827586206896" y="-10.0" type="curve" smooth="yes"/>
      <point x="697.8172413793103" y="-10.0"/>
      <point x="747.4344827586207" y="79.0"/>
      <point x="747.4344827586207" y="213.0" type="curve" smooth="yes"/>
      <point x="747.4344827586207" y="347.0"/>
      <point x="697.703448275862" y="434.0"/>
      <point x="597.2827586206896" y="434.0" type="curve" smooth="yes"/>
      <point x="490.4655172413793" y="434.0"/>
      <point x="445.7689655172414" y="347.0"/>
      <point x="445.7689655172414" y="213.0" type="curve" smooth="yes"/>
      <point x="445.7689655172414" y="79.0"/>
      <point x="490.4655172413793" y="-10.0"/>
    </contour>
    <contour>
      <point x="596.2827586206896" y="32.11379310344827" type="curve" smooth="yes"/>
      <point x="549.3068965517241" y="32.11379310344827"/>
      <point x="532.1275862068966" y="97.55172413793103"/>
      <point x="532.1275862068966" y="213.0" type="curve" smooth="yes"/>
      <point x="532.1275862068966" y="326.33448275862065"/>
      <point x="549.0068965517241" y="390.8862068965517"/>
      <point x="596.5827586206896" y="390.8862068965517" type="curve" smooth="yes"/>
      <point x="644.6310344827587" y="390.8862068965517"/>
      <point x="659.5896551724138" y="326.56206896551726"/>
      <point x="659.5896551724138" y="213.0" type="curve" smooth="yes"/>
      <point x="659.5896551724138" y="97.6655172413793"/>
      <point x="644.6310344827587" y="32.11379310344827"/>
    </contour>
  </outline>
</glyph>
<glyph name="quotesingle" format="2">
  <advance width="229.13448275862072"/>
  <unicode hex="0027"/>
  <outline>
    <contour>
      <point x="89.2551724137931" y="464.8034482758621" type="line"/>
      <point x="139.57931034482758" y="464.8034482758621" type="line"/>
      <point x="173.9551724137931" y="714.0" type="line"/>
      <point x="54.99310344827586" y="714.0" type="line"/>
    </contour>
  </outline>
</glyph>
<glyph name="parenleft" format="2">
  <advance width="340.1931034482759"/>
  <unicode hex="0028"/>
  <outline>
    <contour>
      <point x="295.4413793103448" y="-132.1" type="curve"/>
      <point x="295.4413793103448" y="-79.46206896551725" type="line"/>
      <point x="183.93793103448277" y="2.8034482758620687"/>
      <point x="164.93103448275863" y="158.6206896551724"/>
      <point x="164.93103448275863" y="317.62068965517244" type="curve" smooth="yes"/>
      <point x="164.93103448275863" y="476.0"/>
      <point x="183.93793103448277" y="630.2310344827586"/>
      <point x="295.4413793103448" y="712.9689655172415" type="curve"/>
      <point x="295.4413793103448" y="763.8344827586207" type="line"/>
      <point x="114.76206896551724" y="686.1379310344828"/>
      <point x="43.251724137931035" y="548.3310344827586"/>
      <point x="43.251724137931035" y="317.62068965517244" type="curve" smooth="yes"/>
      <point x="43.251724137931035" y="85.28965517241379"/>
      <point x="114.76206896551724" y="-53.00344827586207"/>
    </contour>
  </outline>
</glyph>
<glyph name="parenright" format="2">
  <advance width="348.8931034482759"/>
  <unicode hex="0029"/>
  <outline>
    <contour>
      <point x="54.15172413793104" y="-132.1" type="line"/>
      <point x="234.83103448275867" y="-53.00344827586207"/>
      <point x="305.9068965517242" y="85.28965517241379"/>
      <point x="305.9068965517242" y="317.62068965517244" type="curve" smooth="yes"/>
      <point x="305.9068965517242" y="548.3310344827586"/>
      <point x="234.83103448275867" y="686.1379310344828"/>
      <point x="54.15172413793104" y="763.8344827586207" type="curve"/>
      <point x="54.15172413793104" y="712.9689655172415" type="line"/>
      <point x="165.0344827586207" y="630.2310344827586"/>
      <point x="184.92758620689656" y="476.0"/>
      <point x="184.92758620689656" y="317.62068965517244" type="curve" smooth="yes"/>
      <point x="184.92758620689656" y="158.6206896551724"/>
      <point x="165.0344827586207" y="2.8034482758620687"/>
      <point x="54.15172413793104" y="-79.46206896551725" type="curve"/>
    </contour>
  </outline>
</glyph>
<glyph name="asterisk" format="2">
  <advance width="422.7793103448276"/>
  <unicode hex="002A"/>
  <outline>
    <contour>
      <point x="168.4448275862069" y="371.4758620689655" type="line"/>
      <point x="255.148275862069" y="371.4758620689655" type="line"/>
      <point x="227.4103448275862" y="535.2586206896551" type="line"/>
      <point x="355.1758620689655" y="436.68275862068964" type="line"/>
      <point x="390.77586206896547" y="519.6310344827585" type="line"/>
      <point x="255.8793103448276" y="565.7379310344828" type="line"/>
      <point x="390.77586206896547" y="611.9586206896552" type="line"/>
      <point x="355.1758620689655" y="694.7931034482759" type="line"/>
      <point x="227.4103448275862" y="596.0482758620689" type="line"/>
      <point x="255.6551724137931" y="760.0" type="line"/>
      <point x="168.4448275862069" y="760.0" type="line"/>
      <point x="194.43103448275863" y="595.1620689655172" type="line"/>
      <point x="67.23103448275862" y="696.9068965517241" type="line"/>
      <point x="32.13793103448276" y="612.9586206896552" type="line"/>
      <point x="167.0344827586207" y="565.7379310344828" type="line"/>
      <point x="32.13793103448276" y="518.6310344827585" type="line"/>
      <point x="67.23103448275862" y="434.68275862068964" type="line"/>
      <point x="193.88275862068966" y="535.6931034482759" type="line"/>
    </contour>
  </outline>
</glyph>
<glyph name="plus" format="2">
  <advance width="465.2"/>
  <unicode hex="002B"/>
  <outline>
    <contour>
      <point x="199.48275862068965" y="143.0" type="line"/>
      <point x="264.3379310344828" y="143.0" type="line"/>
      <point x="264.3379310344828" y="326.1965517241379" type="line"/>
      <point x="417.77241379310345" y="326.1965517241379" type="line"/>
      <point x="417.77241379310345" y="388.9172413793103" type="line"/>
      <point x="264.3379310344828" y="388.9172413793103" type="line"/>
      <point x="264.3379310344828" y="572.0" type="line"/>
      <point x="199.48275862068965" y="572.0" type="line"/>
      <point x="199.48275862068965" y="388.9172413793103" type="line"/>
      <point x="47.31379310344827" y="388.9172413793103" type="line"/>
      <point x="47.31379310344827" y="326.1965517241379" type="line"/>
      <point x="199.48275862068965" y="326.1965517241379" type="line"/>
    </contour>
  </outline>
</glyph>
<glyph name="comma" format="2">
  <advance width="260.19310344827585"/>
  <unicode hex="002C"/>
  <outline>
    <contour>
      <point x="54.75862068965518" y="-154.0" type="line"/>
      <point x="160.01724137931038" y="-120.77931034482759"/>
      <point x="199.748275862069" y="-47.97586206896552"/>
      <point x="199.748275862069" y="33.01379310344828" type="curve" smooth="yes"/>
      <point x="199.748275862069" y="95.37931034482759"/>
      <point x="172.82068965517243" y="132.25862068965517"/>
      <point x="129.2793103448276" y="132.25862068965517" type="curve" smooth="yes"/>
      <point x="95.97931034482758" y="132.25862068965517"/>
      <point x="69.7551724137931" y="110.28275862068965"/>
      <point x="69.7551724137931" y="72.22413793103449" type="curve" smooth="yes"/>
      <point x="69.7551724137931" y="7.082758620689655"/>
      <point x="129.7344827586207" y="12.427586206896553"/>
      <point x="129.7344827586207" y="-24.851724137931036" type="curve" smooth="yes"/>
      <point x="129.7344827586207" y="-61.0"/>
      <point x="104.76551724137931" y="-90.15172413793104"/>
      <point x="54.75862068965518" y="-110.18620689655174" type="curve"/>
    </contour>
  </outline>
</glyph>
<glyph name="hyphen" format="2">
  <advance width="268.6758620689655"/>
  <unicode hex="002D"/>
  <outline>
    <contour>
      <point x="21.820689655172412" y="229.2241379310345" type="line"/>
      <point x="246.74137931034483" y="229.2241379310345" type="line"/>
      <point x="246.74137931034483" y="315.7758620689655" type="line"/>
      <point x="21.820689655172412" y="315.7758620689655" type="line"/>
    </contour>
  </outline>
</glyph>
<glyph name="period" format="2">
  <advance width="257.2551724137931"/>
  <unicode hex="002E"/>
  <outline>
    <contour>
      <point x="137.69310344827588" y="-7.620689655172414" type="curve" smooth="yes"/>
      <point x="171.40689655172415" y="-7.620689655172414"/>
      <point x="200.9" y="9.541379310344828"/>
      <point x="200.9" y="62.46896551724138" type="curve" smooth="yes"/>
      <point x="200.9" y="115.28275862068965"/>
      <point x="171.40689655172415" y="132.25862068965517"/>
      <point x="137.69310344827588" y="132.25862068965517" type="curve" smooth="yes"/>
      <point x="101.65862068965517" y="132.25862068965517"/>
      <point x="73.48620689655172" y="115.28275862068965"/>
      <point x="73.48620689655172" y="62.46896551724138" type="curve" smooth="yes"/>
      <point x="73.48620689655172" y="9.541379310344828"/>
      <point x="101.65862068965517" y="-7.620689655172414"/>
    </contour>
  </outline>
</glyph>
<glyph name="slash" format="2">
  <advance width="249.04137931034484"/>
  <unicode hex="002F"/>
  <outline>
    <contour>
      <point x="0.0" y="-121.0" type="line"/>
      <point x="58.44137931034483" y="-120.73448275862069" type="line"/>
      <point x="249.04137931034484" y="760.0" type="line"/>
      <point x="192.92068965517242" y="760.0" type="line"/>
    </contour>
  </outline>
</glyph>
<glyph name="zero" format="2">
  <advance width="483.1827586206897"/>
  <unicode hex="0030"/>
  <outline>
    <contour>
      <point x="241.74137931034483" y="-10.0" type="curve" smooth="yes"/>
      <point x="388.4862068965517" y="-10.0"/>
      <point x="450.0413793103449" y="130.77241379310345"/>
      <point x="450.0413793103449" y="358.0" type="curve" smooth="yes"/>
      <point x="450.0413793103449" y="587.1931034482758"/>
      <point x="390.15172413793107" y="724.0"/>
      <point x="242.74137931034483" y="724.0" type="curve" smooth="yes"/>
      <point x="86.73103448275862" y="724.0"/>
      <point x="32.44137931034483" y="584.296551724138"/>
      <point x="32.44137931034483" y="359.0" type="curve" smooth="yes"/>
      <point x="32.44137931034483" y="128.84137931034482"/>
      <point x="87.96206896551723" y="-10.0"/>
    </contour>
    <contour>
      <point x="241.74137931034483" y="46.66206896551724" type="curve" smooth="yes"/>
      <point x="169.7793103448276" y="46.66206896551724"/>
      <point x="150.55517241379312" y="161.25172413793103"/>
      <point x="150.55517241379312" y="358.0" type="curve" smooth="yes"/>
      <point x="150.55517241379312" y="554.748275862069"/>
      <point x="169.7793103448276" y="667.3379310344826"/>
      <point x="242.74137931034483" y="667.3379310344826" type="curve" smooth="yes"/>
      <point x="313.2689655172414" y="667.3379310344826"/>
      <point x="332.8931034482759" y="554.748275862069"/>
      <point x="332.8931034482759" y="358.0" type="curve" smooth="yes"/>
      <point x="332.8931034482759" y="161.25172413793103"/>
      <point x="313.2689655172414" y="46.66206896551724"/>
    </contour>
  </outline>
</glyph>
<glyph name="one" format="2">
  <advance width="483.1827586206897"/>
  <unicode hex="0031"/>
  <outline>
    <contour>
      <point x="80.37586206896552" y="0.0" type="line"/>
      <point x="425.0448275862069" y="0.0" type="line"/>
      <point x="425.0448275862069" y="46.32758620689655" type="line"/>
      <point x="378.4137931034483" y="46.32758620689655" type="line" smooth="yes"/>
      <point x="339.27241379310345" y="46.32758620689655"/>
      <point x="315.0448275862069" y="61.179310344827584"/>
      <point x="315.0448275862069" y="114.97586206896551" type="curve" smooth="yes"/>
      <point x="315.0448275862069" y="718.0" type="line"/>
      <point x="234.751724137931" y="718.0" type="line"/>
      <point x="174.38275862068966" y="667.5689655172414" type="line" smooth="yes"/>
      <point x="116.61379310344829" y="619.2689655172413"/>
      <point x="77.97586206896553" y="601.703448275862"/>
      <point x="43.14137931034483" y="591.703448275862" type="curve"/>
      <point x="43.14137931034483" y="554.1344827586207"/>
      <point x="63.63793103448276" y="530.8827586206897"/>
      <point x="90.81379310344828" y="530.8827586206897" type="curve" smooth="yes"/>
      <point x="125.38275862068966" y="530.8827586206897"/>
      <point x="159.61724137931037" y="570.2758620689656"/>
      <point x="202.65172413793104" y="628.7758620689656" type="curve"/>
      <point x="202.65172413793104" y="114.97586206896551" type="line" smooth="yes"/>
      <point x="202.65172413793104" y="56.4103448275862"/>
      <point x="175.7551724137931" y="46.32758620689655"/>
      <point x="138.84827586206896" y="46.32758620689655" type="curve" smooth="yes"/>
      <point x="80.37586206896552" y="46.32758620689655" type="line"/>
    </contour>
  </outline>
</glyph>
<glyph name="two" format="2">
  <advance width="483.1827586206897"/>
  <unicode hex="0032"/>
  <outline>
    <contour>
      <point x="37.49655172413794" y="0.0" type="line"/>
      <point x="436.95862068965516" y="0.0" type="line"/>
      <point x="440.99310344827586" y="187.41034482758621" type="line"/>
      <point x="394.01724137931035" y="187.41034482758621" type="line"/>
      <point x="388.34137931034485" y="163.4965517241379" type="line" smooth="yes"/>
      <point x="378.1" y="118.33793103448276"/>
      <point x="356.9103448275862" y="91.49310344827586"/>
      <point x="315.80689655172415" y="91.49310344827586" type="curve" smooth="yes"/>
      <point x="119.0896551724138" y="91.49310344827586" type="line"/>
      <point x="251.4586206896552" y="247.31034482758622" type="line" smooth="yes"/>
      <point x="357.81724137931036" y="364.05172413793105"/>
      <point x="420.45862068965516" y="449.07586206896553"/>
      <point x="420.45862068965516" y="554.2172413793104" type="curve" smooth="yes"/>
      <point x="420.45862068965516" y="655.8379310344828"/>
      <point x="350.88275862068963" y="724.0"/>
      <point x="227.5068965517241" y="724.0" type="curve" smooth="yes"/>
      <point x="104.99655172413792" y="724.0"/>
      <point x="43.91379310344828" y="661.8310344827586"/>
      <point x="43.91379310344828" y="589.8379310344827" type="curve" smooth="yes"/>
      <point x="43.91379310344828" y="531.2206896551725"/>
      <point x="88.78620689655173" y="514.3482758620689"/>
      <point x="139.71724137931034" y="514.3482758620689" type="curve"/>
      <point x="139.71724137931034" y="606.703448275862"/>
      <point x="159.61379310344827" y="669.6724137931035"/>
      <point x="227.5068965517241" y="669.6724137931035" type="curve" smooth="yes"/>
      <point x="276.93448275862073" y="669.6724137931035"/>
      <point x="304.1137931034483" y="625.9965517241379"/>
      <point x="304.1137931034483" y="547.0275862068966" type="curve" smooth="yes"/>
      <point x="304.1137931034483" y="452.70344827586206"/>
      <point x="274.1034482758621" y="378.7275862068965"/>
      <point x="174.76206896551724" y="254.84827586206896" type="curve" smooth="yes"/>
      <point x="37.49655172413794" y="81.08965517241379" type="line"/>
    </contour>
  </outline>
</glyph>
<glyph name="three" format="2">
  <advance width="483.1827586206897"/>
  <unicode hex="0033"/>
  <outline>
    <contour>
      <point x="217.05862068965519" y="-10.0" type="curve" smooth="yes"/>
      <point x="329.1689655172414" y="-10.0"/>
      <point x="442.7310344827586" y="43.0"/>
      <point x="442.7310344827586" y="200.75862068965517" type="curve" smooth="yes"/>
      <point x="442.7310344827586" y="322.6172413793103"/>
      <point x="359.82068965517243" y="367.451724137931"/>
      <point x="289.10689655172416" y="379.33448275862065" type="curve"/>
      <point x="364.44827586206895" y="403.9862068965517"/>
      <point x="421.2310344827586" y="469.99310344827586"/>
      <point x="421.2310344827586" y="559.9931034482757" type="curve" smooth="yes"/>
      <point x="421.2310344827586" y="664.6793103448275"/>
      <point x="345.9655172413793" y="724.0"/>
      <point x="230.33448275862065" y="724.0" type="curve" smooth="yes"/>
      <point x="108.25862068965517" y="724.0"/>
      <point x="46.72413793103448" y="663.3482758620689"/>
      <point x="46.72413793103448" y="591.0103448275862" type="curve" smooth="yes"/>
      <point x="46.72413793103448" y="539.0137931034483"/>
      <point x="85.81724137931035" y="521.0862068965516"/>
      <point x="139.23103448275862" y="521.0862068965516" type="curve"/>
      <point x="139.23103448275862" y="600.0862068965516"/>
      <point x="159.1689655172414" y="669.6724137931035"/>
      <point x="224.87586206896555" y="669.6724137931035" type="curve" smooth="yes"/>
      <point x="278.1413793103448" y="669.6724137931035"/>
      <point x="304.5517241379311" y="624.2931034482759"/>
      <point x="304.5517241379311" y="548.7586206896551" type="curve" smooth="yes"/>
      <point x="304.5517241379311" y="455.9758620689655"/>
      <point x="265.1793103448276" y="397.29655172413794"/>
      <point x="189.96551724137933" y="397.29655172413794" type="curve"/>
      <point x="142.14137931034483" y="397.29655172413794" type="line"/>
      <point x="142.14137931034483" y="343.63448275862066" type="line"/>
      <point x="187.5896551724138" y="343.63448275862066" type="line" smooth="yes"/>
      <point x="278.4448275862069" y="343.63448275862066"/>
      <point x="325.7517241379311" y="287.6689655172413"/>
      <point x="325.7517241379311" y="201.75862068965517" type="curve" smooth="yes"/>
      <point x="325.7517241379311" y="87.91724137931034"/>
      <point x="273.92758620689654" y="49.92413793103448"/>
      <point x="214.4241379310345" y="49.92413793103448" type="curve" smooth="yes"/>
      <point x="147.89655172413794" y="49.92413793103448"/>
      <point x="106.16551724137932" y="100.97586206896551"/>
      <point x="106.16551724137932" y="176.54482758620688" type="curve"/>
      <point x="66.11724137931034" y="176.54482758620688"/>
      <point x="34.05172413793103" y="151.92413793103447"/>
      <point x="34.05172413793103" y="107.4103448275862" type="curve" smooth="yes"/>
      <point x="34.05172413793103" y="43.162068965517236"/>
      <point x="86.63103448275862" y="-10.0"/>
    </contour>
  </outline>
</glyph>
<glyph name="four" format="2">
  <advance width="483.1827586206897"/>
  <unicode hex="0034"/>
  <outline>
    <contour>
      <point x="167.151724137931" y="0.0" type="line"/>
      <point x="454.8689655172414" y="0.0" type="line"/>
      <point x="454.8689655172414" y="46.32758620689655" type="line"/>
      <point x="443.96896551724143" y="46.32758620689655" type="line" smooth="yes"/>
      <point x="404.5689655172414" y="46.32758620689655"/>
      <point x="372.3" y="55.32758620689655"/>
      <point x="372.3" y="118.32758620689654" type="curve" smooth="yes"/>
      <point x="372.3" y="192.10689655172413" type="line"/>
      <point x="467.58620689655174" y="192.10689655172413" type="line"/>
      <point x="467.58620689655174" y="252.0" type="line"/>
      <point x="372.3" y="252.0" type="line"/>
      <point x="372.3" y="714.0" type="line"/>
      <point x="263.11724137931037" y="714.0" type="line"/>
      <point x="12.958620689655174" y="240.89310344827587" type="line"/>
      <point x="12.958620689655174" y="192.10689655172413" type="line"/>
      <point x="261.9206896551724" y="192.10689655172413" type="line"/>
      <point x="261.9206896551724" y="118.32758620689654" type="line" smooth="yes"/>
      <point x="261.9206896551724" y="55.32758620689655"/>
      <point x="230.78620689655173" y="46.32758620689655"/>
      <point x="190.6862068965517" y="46.32758620689655" type="curve" smooth="yes"/>
      <point x="167.151724137931" y="46.32758620689655" type="line"/>
    </contour>
    <contour>
      <point x="77.57931034482759" y="252.0" type="line"/>
      <point x="195.14827586206897" y="476.4" type="line" smooth="yes"/>
      <point x="215.81724137931033" y="517.4862068965518"/>
      <point x="254.35172413793103" y="596.5275862068966"/>
      <point x="267.95517241379315" y="631.9310344827586" type="curve"/>
      <point x="263.2206896551724" y="569.9310344827586"/>
      <point x="261.9206896551724" y="495.3793103448276"/>
      <point x="261.9206896551724" y="437.3793103448276" type="curve" smooth="yes"/>
      <point x="261.9206896551724" y="252.0" type="line"/>
    </contour>
  </outline>
</glyph>
<glyph name="five" format="2">
  <advance width="483.1827586206897"/>
  <unicode hex="0035"/>
  <outline>
    <contour>
      <point x="211.52758620689656" y="-10.0" type="curve" smooth="yes"/>
      <point x="325.43448275862073" y="-10.0"/>
      <point x="431.3655172413793" y="68.21034482758621"/>
      <point x="431.3655172413793" y="218.6206896551724" type="curve" smooth="yes"/>
      <point x="431.3655172413793" y="359.9758620689655"/>
      <point x="344.5206896551724" y="431.29655172413794"/>
      <point x="216.6379310344828" y="431.29655172413794" type="curve" smooth="yes"/>
      <point x="180.22758620689655" y="431.29655172413794"/>
      <point x="140.1689655172414" y="422.9172413793103"/>
      <point x="120.41724137931034" y="414.3310344827587" type="curve"/>
      <point x="137.39655172413794" y="622.9413793103448" type="line"/>
      <point x="310.96896551724143" y="622.9413793103448" type="line" smooth="yes"/>
      <point x="342.2448275862069" y="622.9413793103448"/>
      <point x="345.94827586206895" y="610.0206896551723"/>
      <point x="353.20000000000005" y="578.4344827586207" type="curve" smooth="yes"/>
      <point x="359.57586206896553" y="551.3206896551724" type="line"/>
      <point x="405.4965517241379" y="551.3206896551724" type="line"/>
      <point x="401.46206896551723" y="714.0" type="line"/>
      <point x="92.73793103448276" y="714.0" type="line"/>
      <point x="63.36896551724138" y="363.93793103448274" type="line"/>
      <point x="90.88275862068966" y="350.67931034482757" type="line"/>
      <point x="115.81379310344828" y="361.3241379310345"/>
      <point x="146.32758620689654" y="373.63448275862066"/>
      <point x="193.00344827586207" y="373.63448275862066" type="curve" smooth="yes"/>
      <point x="267.9103448275862" y="373.63448275862066"/>
      <point x="314.1206896551724" y="321.7586206896552"/>
      <point x="314.1206896551724" y="218.6206896551724" type="curve" smooth="yes"/>
      <point x="314.1206896551724" y="90.39999999999999"/>
      <point x="263.9137931034483" y="49.73103448275862"/>
      <point x="201.2344827586207" y="49.73103448275862" type="curve" smooth="yes"/>
      <point x="131.0793103448276" y="49.73103448275862"/>
      <point x="102.85862068965517" y="106.6896551724138"/>
      <point x="102.85862068965517" y="165.35517241379313" type="curve"/>
      <point x="63.95862068965518" y="165.35517241379313"/>
      <point x="38.91379310344828" y="141.6896551724138"/>
      <point x="38.91379310344828" y="101.41724137931034" type="curve" smooth="yes"/>
      <point x="38.91379310344828" y="49.87241379310345"/>
      <point x="81.98275862068965" y="-10.0"/>
    </contour>
  </outline>
</glyph>
<glyph name="six" format="2">
  <advance width="483.1827586206897"/>
  <unicode hex="0036"/>
  <outline>
    <contour>
      <point x="253.34137931034485" y="-10.0" type="curve" smooth="yes"/>
      <point x="379.76896551724144" y="-10.0"/>
      <point x="448.00344827586207" y="88.0"/>
      <point x="448.00344827586207" y="229.6206896551724" type="curve" smooth="yes"/>
      <point x="448.00344827586207" y="357.9758620689655"/>
      <point x="379.76896551724144" y="434.9758620689655"/>
      <point x="276.0827586206897" y="434.9758620689655" type="curve" smooth="yes"/>
      <point x="216.84137931034482" y="434.9758620689655"/>
      <point x="180.5" y="411.22758620689655"/>
      <point x="155.41379310344826" y="388.4655172413793" type="curve"/>
      <point x="160.91724137931035" y="572.2689655172414"/>
      <point x="199.58965517241379" y="671.6724137931035"/>
      <point x="273.05517241379306" y="671.6724137931035" type="curve" smooth="yes"/>
      <point x="323.6275862068965" y="671.6724137931035"/>
      <point x="344.6758620689655" y="618.5344827586207"/>
      <point x="344.6758620689655" y="550.4241379310345" type="curve"/>
      <point x="404.3" y="550.4241379310345"/>
      <point x="430.3620689655172" y="576.1586206896551"/>
      <point x="430.3620689655172" y="616.7034482758621" type="curve" smooth="yes"/>
      <point x="430.3620689655172" y="672.3793103448276"/>
      <point x="382.5206896551724" y="724.0"/>
      <point x="276.7068965517242" y="724.0" type="curve" smooth="yes"/>
      <point x="118.43448275862069" y="724.0"/>
      <point x="43.77931034482759" y="572.8344827586207"/>
      <point x="43.77931034482759" y="340.6620689655172" type="curve" smooth="yes"/>
      <point x="43.77931034482759" y="97.0"/>
      <point x="130.08275862068967" y="-10.0"/>
    </contour>
    <contour>
      <point x="254.77241379310345" y="46.96206896551724" type="curve" smooth="yes"/>
      <point x="192.29310344827584" y="46.96206896551724"/>
      <point x="156.84827586206896" y="136.24827586206897"/>
      <point x="154.84827586206896" y="330.24827586206897" type="curve"/>
      <point x="174.01379310344828" y="352.548275862069"/>
      <point x="206.79310344827584" y="380.3655172413793"/>
      <point x="249.97241379310347" y="380.3655172413793" type="curve" smooth="yes"/>
      <point x="305.0896551724138" y="380.3655172413793"/>
      <point x="336.6413793103448" y="332.0241379310345"/>
      <point x="336.6413793103448" y="219.6206896551724" type="curve" smooth="yes"/>
      <point x="336.6413793103448" y="100.30689655172414"/>
      <point x="306.8586206896552" y="46.96206896551724"/>
    </contour>
  </outline>
</glyph>
<glyph name="seven" format="2">
  <advance width="483.1827586206897"/>
  <unicode hex="0037"/>
  <outline>
    <contour>
      <point x="144.54827586206898" y="0.0" type="line"/>
      <point x="219.2" y="0.0" type="line"/>
      <point x="445.33103448275864" y="677.2137931034482" type="line"/>
      <point x="445.33103448275864" y="714.0" type="line"/>
      <point x="47.98620689655172" y="714.0" type="line"/>
      <point x="42.98620689655172" y="521.9413793103448" type="line"/>
      <point x="91.81379310344828" y="521.9413793103448" type="line"/>
      <point x="96.86896551724138" y="570.2758620689655" type="line" smooth="yes"/>
      <point x="99.86896551724138" y="605.9068965517241"/>
      <point x="114.40344827586206" y="622.9413793103448"/>
      <point x="145.93793103448274" y="622.9413793103448" type="curve" smooth="yes"/>
      <point x="368.5310344827587" y="622.9413793103448" type="line"/>
    </contour>
  </outline>
</glyph>
<glyph name="eight" format="2">
  <advance width="483.1827586206897"/>
  <unicode hex="0038"/>
  <outline>
    <contour>
      <point x="237.10689655172413" y="-10.0" type="curve" smooth="yes"/>
      <point x="371.2655172413793" y="-10.0"/>
      <point x="452.3034482758621" y="63.18620689655173"/>
      <point x="452.3034482758621" y="183.45172413793105" type="curve" smooth="yes"/>
      <point x="452.3034482758621" y="281.00344827586207"/>
      <point x="403.0827586206896" y="334.5551724137931"/>
      <point x="312.46896551724143" y="383.17931034482757" type="curve"/>
      <point x="383.0586206896552" y="420.75172413793103"/>
      <point x="427.77241379310345" y="467.26206896551724"/>
      <point x="427.77241379310345" y="556.2620689655172" type="curve" smooth="yes"/>
      <point x="427.77241379310345" y="653.0448275862069"/>
      <point x="364.26896551724144" y="724.0"/>
      <point x="246.21034482758623" y="724.0" type="curve" smooth="yes"/>
      <point x="107.72758620689655" y="724.0"/>
      <point x="51.07931034482759" y="642.2448275862068"/>
      <point x="51.07931034482759" y="545.4241379310345" type="curve" smooth="yes"/>
      <point x="51.07931034482759" y="458.2344827586207"/>
      <point x="95.71379310344828" y="405.9827586206897"/>
      <point x="162.1896551724138" y="364.01034482758615" type="curve"/>
      <point x="88.4" y="326.89310344827584"/>
      <point x="31.41034482758621" y="275.1241379310345"/>
      <point x="31.41034482758621" y="175.60689655172413" type="curve" smooth="yes"/>
      <point x="31.41034482758621" y="72.6896551724138"/>
      <point x="97.19310344827586" y="-10.0"/>
    </contour>
    <contour>
      <point x="240.44137931034484" y="42.69310344827586" type="curve" smooth="yes"/>
      <point x="175.42413793103447" y="42.69310344827586"/>
      <point x="135.91034482758621" y="92.13448275862069"/>
      <point x="135.91034482758621" y="177.8103448275862" type="curve" smooth="yes"/>
      <point x="135.91034482758621" y="249.64482758620687"/>
      <point x="163.4586206896552" y="301.32068965517243"/>
      <point x="208.88275862068969" y="334.5931034482759" type="curve"/>
      <point x="303.20344827586206" y="281.86551724137934"/>
      <point x="343.7793103448276" y="235.69655172413792"/>
      <point x="343.7793103448276" y="167.53793103448274" type="curve" smooth="yes"/>
      <point x="343.7793103448276" y="90.01724137931033"/>
      <point x="302.2448275862069" y="42.69310344827586"/>
    </contour>
    <contour>
      <point x="263.0827586206897" y="409.8241379310345" type="curve"/>
      <point x="196.7448275862069" y="446.66551724137935"/>
      <point x="158.74827586206897" y="484.80689655172415"/>
      <point x="158.74827586206897" y="559.1620689655172" type="curve" smooth="yes"/>
      <point x="158.74827586206897" y="625.8655172413793"/>
      <point x="188.32413793103447" y="671.0068965517241"/>
      <point x="242.5758620689655" y="671.0068965517241" type="curve" smooth="yes"/>
      <point x="302.4068965517241" y="671.0068965517241"/>
      <point x="328.92413793103447" y="615.9206896551724"/>
      <point x="328.92413793103447" y="555.0275862068964" type="curve" smooth="yes"/>
      <point x="328.92413793103447" y="485.32068965517243"/>
      <point x="310.1379310344828" y="442.2310344827587"/>
    </contour>
  </outline>
</glyph>
<glyph name="nine" format="2">
  <advance width="483.1827586206897"/>
  <unicode hex="0039"/>
  <outline>
    <contour>
      <point x="196.27241379310345" y="-10.379310344827585" type="curve"/>
      <point x="370.17241379310343" y="-10.379310344827585"/>
      <point x="440.1034482758621" y="160.68620689655174"/>
      <point x="440.1034482758621" y="388.0" type="curve" smooth="yes"/>
      <point x="440.1034482758621" y="626.8379310344828"/>
      <point x="349.25172413793103" y="724.0"/>
      <point x="227.25517241379308" y="724.0" type="curve" smooth="yes"/>
      <point x="105.91379310344828" y="724.0"/>
      <point x="35.17931034482759" y="624.6413793103449"/>
      <point x="35.17931034482759" y="483.00689655172414" type="curve" smooth="yes"/>
      <point x="35.17931034482759" y="349.23793103448276"/>
      <point x="105.41379310344827" y="278.3310344827586"/>
      <point x="204.59655172413795" y="278.3310344827586" type="curve" smooth="yes"/>
      <point x="264.1586206896552" y="278.3310344827586"/>
      <point x="304.99655172413793" y="309.5827586206897"/>
      <point x="328.7344827586207" y="342.7586206896552" type="curve"/>
      <point x="323.13448275862066" y="145.27241379310345"/>
      <point x="283.7758620689655" y="47.706896551724135"/>
      <point x="201.84482758620692" y="47.706896551724135" type="curve" smooth="yes"/>
      <point x="142.23793103448276" y="47.706896551724135"/>
      <point x="115.72758620689655" y="89.73448275862069"/>
      <point x="99.47241379310344" y="138.97931034482758" type="curve"/>
      <point x="72.84137931034482" y="132.39310344827587"/>
      <point x="60.03793103448275" y="110.03103448275861"/>
      <point x="60.03793103448275" y="83.16896551724138" type="curve" smooth="yes"/>
      <point x="60.03793103448275" y="35.86551724137931"/>
      <point x="95.76206896551724" y="-10.379310344827585"/>
    </contour>
    <contour>
      <point x="234.91379310344828" y="337.90344827586205" type="curve" smooth="yes"/>
      <point x="175.73793103448276" y="339.1344827586207"/>
      <point x="146.92068965517242" y="388.8413793103448"/>
      <point x="146.92068965517242" y="488.0" type="curve" smooth="yes"/>
      <point x="146.92068965517242" y="603.6689655172414"/>
      <point x="176.85172413793103" y="666.4172413793103"/>
      <point x="232.1034482758621" y="666.4172413793103" type="curve" smooth="yes"/>
      <point x="291.71379310344827" y="666.4172413793103"/>
      <point x="327.4344827586207" y="591.1999999999999"/>
      <point x="330.0" y="404.048275862069" type="curve"/>
      <point x="312.3448275862069" y="371.31724137931036"/>
      <point x="283.21379310344827" y="339.1344827586207"/>
    </contour>
  </outline>
</glyph>
<glyph name="colon" format="2">
  <advance width="256.5551724137931"/>
  <unicode hex="003A"/>
  <outline>
    <contour>
      <point x="136.99310344827586" y="398.7068965517241" type="curve" smooth="yes"/>
      <point x="170.70689655172416" y="398.7068965517241"/>
      <point x="200.2" y="415.4172413793104"/>
      <point x="200.2" y="467.7965517241379" type="curve" smooth="yes"/>
      <point x="200.2" y="520.9103448275862"/>
      <point x="170.70689655172416" y="537.3206896551725"/>
      <point x="136.99310344827586" y="537.3206896551725" type="curve" smooth="yes"/>
      <point x="101.39310344827585" y="537.3206896551725"/>
      <point x="73.48620689655172" y="520.9103448275862"/>
      <point x="73.48620689655172" y="467.7965517241379" type="curve" smooth="yes"/>
      <point x="73.48620689655172" y="415.4172413793104"/>
      <point x="101.39310344827585" y="398.7068965517241"/>
    </contour>
    <contour>
      <point x="136.99310344827586" y="-7.620689655172414" type="curve" smooth="yes"/>
      <point x="170.70689655172416" y="-7.620689655172414"/>
      <point x="200.2" y="9.541379310344828"/>
      <point x="200.2" y="62.46896551724138" type="curve" smooth="yes"/>
      <point x="200.2" y="115.28275862068965"/>
      <point x="170.70689655172416" y="132.25862068965517"/>
      <point x="136.99310344827586" y="132.25862068965517" type="curve" smooth="yes"/>
      <point x="101.39310344827585" y="132.25862068965517"/>
      <point x="73.48620689655172" y="115.28275862068965"/>
      <point x="73.48620689655172" y="62.46896551724138" type="curve" smooth="yes"/>
      <point x="73.48620689655172" y="9.541379310344828"/>
      <point x="101.39310344827585" y="-7.620689655172414"/>
    </contour>
  </outline>
</glyph>
<glyph name="semicolon" format="2">
  <advance width="263.4724137931035"/>
  <unicode hex="003B"/>
  <outline>
    <contour>
      <point x="54.75862068965518" y="-154.0" type="line"/>
      <point x="160.71724137931037" y="-120.77931034482759"/>
      <point x="200.44827586206898" y="-47.97586206896552"/>
      <point x="200.44827586206898" y="33.01379310344828" type="curve" smooth="yes"/>
      <point x="200.44827586206898" y="95.37931034482759"/>
      <point x="173.3344827586207" y="132.25862068965517"/>
      <point x="128.9793103448276" y="132.25862068965517" type="curve" smooth="yes"/>
      <point x="96.67931034482757" y="132.25862068965517"/>
      <point x="70.4551724137931" y="110.28275862068965"/>
      <point x="70.4551724137931" y="72.22413793103449" type="curve" smooth="yes"/>
      <point x="70.4551724137931" y="7.082758620689655"/>
      <point x="130.70000000000002" y="12.427586206896553"/>
      <point x="130.70000000000002" y="-24.851724137931036" type="curve"/>
      <point x="130.70000000000002" y="-62.320689655172416"/>
      <point x="105.86551724137931" y="-90.15172413793104"/>
      <point x="54.75862068965518" y="-110.18620689655174" type="curve"/>
    </contour>
    <contour>
      <point x="136.14482758620693" y="398.7068965517241" type="curve" smooth="yes"/>
      <point x="170.37241379310345" y="398.7068965517241"/>
      <point x="199.651724137931" y="415.4172413793104"/>
      <point x="199.651724137931" y="467.7965517241379" type="curve" smooth="yes"/>
      <point x="199.651724137931" y="520.9103448275862"/>
      <point x="170.37241379310345" y="537.3206896551725"/>
      <point x="136.14482758620693" y="537.3206896551725" type="curve" smooth="yes"/>
      <point x="100.35862068965517" y="537.3206896551725"/>
      <point x="72.75172413793103" y="520.9103448275862"/>
      <point x="72.75172413793103" y="467.7965517241379" type="curve" smooth="yes"/>
      <point x="72.75172413793103" y="415.4172413793104"/>
      <point x="100.35862068965517" y="398.7068965517241"/>
    </contour>
  </outline>
</glyph>
<glyph name="less" format="2">
  <advance width="465.2"/>
  <unicode hex="003C"/>
  <outline>
    <contour>
      <point x="417.77241379310345" y="108.08275862068966" type="line"/>
      <point x="417.77241379310345" y="179.20344827586206" type="line"/>
      <point x="134.1758620689655" y="357.0" type="line"/>
      <point x="417.77241379310345" y="537.0620689655173" type="line"/>
      <point x="417.77241379310345" y="607.9172413793103" type="line"/>
      <point x="47.42758620689655" y="376.2413793103448" type="line"/>
      <point x="47.42758620689655" y="338.7586206896552" type="line"/>
    </contour>
  </outline>
</glyph>
<glyph name="equal" format="2">
  <advance width="465.2"/>
  <unicode hex="003D"/>
  <outline>
    <contour>
      <point x="46.37241379310345" y="419.65862068965515" type="line"/>
      <point x="419.0137931034483" y="419.65862068965515" type="line"/>
      <point x="419.0137931034483" y="482.45862068965516" type="line"/>
      <point x="46.37241379310345" y="482.45862068965516" type="line"/>
    </contour>
    <contour>
      <point x="46.37241379310345" y="231.42758620689656" type="line"/>
      <point x="419.0137931034483" y="231.42758620689656" type="line"/>
      <point x="419.0137931034483" y="294.34137931034485" type="line"/>
      <point x="46.37241379310345" y="294.34137931034485" type="line"/>
    </contour>
  </outline>
</glyph>
<glyph name="greater" format="2">
  <advance width="465.2"/>
  <unicode hex="003E"/>
  <outline>
    <contour>
      <point x="47.42758620689655" y="108.08275862068966" type="line"/>
      <point x="417.77241379310345" y="338.7586206896552" type="line"/>
      <point x="417.77241379310345" y="376.2413793103448" type="line"/>
      <point x="47.42758620689655" y="607.9172413793103" type="line"/>
      <point x="47.42758620689655" y="537.0620689655173" type="line"/>
      <point x="330.3241379310345" y="357.0" type="line"/>
      <point x="47.42758620689655" y="179.20344827586206" type="line"/>
    </contour>
  </outline>
</glyph>
<glyph name="question" format="2">
  <advance width="457.0103448275862"/>
  <unicode hex="003F"/>
  <outline>
    <contour>
      <point x="179.0" y="216.15862068965518" type="line"/>
      <point x="235.22068965517244" y="216.15862068965518" type="line"/>
      <point x="247.68275862068964" y="321.2310344827587" type="line"/>
      <point x="360.9034482758621" y="373.5793103448276"/>
      <point x="415.6896551724138" y="434.66551724137935"/>
      <point x="415.6896551724138" y="543.5034482758621" type="curve" smooth="yes"/>
      <point x="415.6896551724138" y="658.0448275862069"/>
      <point x="335.36551724137934" y="724.0"/>
      <point x="212.2551724137931" y="724.0" type="curve" smooth="yes"/>
      <point x="90.54827586206896" y="724.0"/>
      <point x="32.02413793103448" y="669.944827586207"/>
      <point x="32.02413793103448" y="607.4068965517241" type="curve" smooth="yes"/>
      <point x="32.02413793103448" y="557.6413793103447"/>
      <point x="70.72413793103449" y="539.7793103448276"/>
      <point x="134.25172413793103" y="539.7793103448276" type="curve"/>
      <point x="134.25172413793103" y="619.4172413793103"/>
      <point x="156.65862068965518" y="669.7413793103449"/>
      <point x="213.6448275862069" y="669.7413793103449" type="curve" smooth="yes"/>
      <point x="265.76551724137937" y="669.7413793103449"/>
      <point x="292.048275862069" y="620.2793103448275"/>
      <point x="292.048275862069" y="551.7241379310345" type="curve" smooth="yes"/>
      <point x="292.048275862069" y="468.003448275862"/>
      <point x="265.61379310344824" y="396.60689655172416"/>
      <point x="166.80344827586208" y="348.59655172413795" type="curve"/>
    </contour>
    <contour>
      <point x="205.6896551724138" y="-7.620689655172414" type="curve" smooth="yes"/>
      <point x="241.5275862068966" y="-7.620689655172414"/>
      <point x="271.99310344827586" y="9.841379310344827"/>
      <point x="271.99310344827586" y="64.0" type="curve" smooth="yes"/>
      <point x="271.99310344827586" y="118.27241379310345"/>
      <point x="241.5275862068966" y="135.6206896551724"/>
      <point x="205.6896551724138" y="135.6206896551724" type="curve" smooth="yes"/>
      <point x="169.5689655172414" y="135.6206896551724"/>
      <point x="141.23793103448276" y="118.27241379310345"/>
      <point x="141.23793103448276" y="64.0" type="curve" smooth="yes"/>
      <point x="141.23793103448276" y="9.841379310344827"/>
      <point x="169.5689655172414" y="-7.620689655172414"/>
    </contour>
  </outline>
</glyph>
<glyph name="bracketleft" format="2">
  <advance width="343.2758620689656"/>
  <unicode hex="005B"/>
  <outline>
    <contour>
      <point x="76.18620689655172" y="-128.0" type="line"/>
      <point x="299.1413793103448" y="-128.0" type="line"/>
      <point x="299.1413793103448" y="-81.89999999999999" type="line"/>
      <point x="261.3655172413793" y="-81.89999999999999" type="line" smooth="yes"/>
      <point x="222.93103448275863" y="-81.89999999999999"/>
      <point x="191.03793103448277" y="-72.89999999999999"/>
      <point x="191.03793103448277" y="-9.786206896551723" type="curve" smooth="yes"/>
      <point x="191.03793103448277" y="641.6724137931035" type="line" smooth="yes"/>
      <point x="191.03793103448277" y="704.9"/>
      <point x="222.93103448275863" y="713.9"/>
      <point x="261.3655172413793" y="713.9" type="curve" smooth="yes"/>
      <point x="299.1413793103448" y="713.9" type="line"/>
      <point x="299.1413793103448" y="760.0" type="line"/>
      <point x="76.18620689655172" y="760.0" type="line"/>
    </contour>
  </outline>
</glyph>
<glyph name="backslash" format="2">
  <advance width="249.04137931034484"/>
  <unicode hex="005C"/>
  <outline>
    <contour>
      <point x="191.3" y="-121.0" type="line"/>
      <point x="249.04137931034484" y="-121.0" type="line"/>
      <point x="57.44137931034483" y="760.0" type="line"/>
      <point x="0.0" y="760.0" type="line"/>
    </contour>
  </outline>
</glyph>
<glyph name="bracketright" format="2">
  <advance width="354.9655172413793"/>
  <unicode hex="005D"/>
  <outline>
    <contour>
      <point x="56.71034482758621" y="-128.0" type="line"/>
      <point x="278.6655172413793" y="-128.0" type="line"/>
      <point x="278.6655172413793" y="760.0" type="line"/>
      <point x="56.71034482758621" y="760.0" type="line"/>
      <point x="56.71034482758621" y="713.9" type="line"/>
      <point x="93.67241379310344" y="713.9" type="line" smooth="yes"/>
      <point x="132.9206896551724" y="713.9"/>
      <point x="164.11379310344827" y="704.9"/>
      <point x="164.11379310344827" y="641.6724137931035" type="curve" smooth="yes"/>
      <point x="164.11379310344827" y="-9.786206896551723" type="line" smooth="yes"/>
      <point x="164.11379310344827" y="-72.89999999999999"/>
      <point x="132.9206896551724" y="-81.89999999999999"/>
      <point x="93.67241379310344" y="-81.89999999999999" type="curve" smooth="yes"/>
      <point x="56.71034482758621" y="-81.89999999999999" type="line"/>
    </contour>
  </outline>
</glyph>
<glyph name="asciicircum" format="2">
  <advance width="464.5"/>
  <unicode hex="005E"/>
  <outline>
    <contour>
      <point x="31.83103448275862" y="265.13793103448273" type="line"/>
      <point x="95.36551724137931" y="265.13793103448273" type="line"/>
      <point x="231.1" y="616.5103448275862" type="line"/>
      <point x="368.13448275862066" y="265.13793103448273" type="line"/>
      <point x="432.06896551724145" y="265.13793103448273" type="line"/>
      <point x="248.56206896551726" y="714.0" type="line"/>
      <point x="214.63793103448273" y="714.0" type="line"/>
    </contour>
  </outline>
</glyph>
<glyph name="underscore" format="2">
  <advance width="396.3137931034483"/>
  <unicode hex="005F"/>
  <outline>
    <contour>
      <point x="-4.73448275862069" y="-141.47241379310344" type="line"/>
      <point x="400.61379310344824" y="-141.47241379310344" type="line"/>
      <point x="400.61379310344824" y="-83.0" type="line"/>
      <point x="-4.73448275862069" y="-83.0" type="line"/>
    </contour>
  </outline>
</glyph>
<glyph name="braceleft" format="2">
  <advance width="383.703448275862"/>
  <unicode hex="007B"/>
  <outline>
    <contour>
      <point x="266.7344827586207" y="-126.75862068965517" type="curve" smooth="yes"/>
      <point x="339.651724137931" y="-126.75862068965517" type="line"/>
      <point x="339.651724137931" y="-80.27931034482758" type="line"/>
      <point x="308.5586206896552" y="-80.27931034482758" type="line" smooth="yes"/>
      <point x="259.0310344827586" y="-80.27931034482758"/>
      <point x="243.7689655172414" y="-43.9"/>
      <point x="243.7689655172414" y="21.917241379310344" type="curve" smooth="yes"/>
      <point x="243.7689655172414" y="193.86206896551724" type="line" smooth="yes"/>
      <point x="243.7689655172414" y="258.37931034482756"/>
      <point x="213.8551724137931" y="301.46206896551723"/>
      <point x="149.3" y="316.37931034482756" type="curve"/>
      <point x="149.3" y="320.29655172413794" type="line"/>
      <point x="214.49655172413793" y="334.32758620689657"/>
      <point x="243.7689655172414" y="376.86206896551727"/>
      <point x="243.7689655172414" y="440.37931034482756" type="curve" smooth="yes"/>
      <point x="243.7689655172414" y="611.4931034482757" type="line" smooth="yes"/>
      <point x="243.7689655172414" y="678.5758620689654"/>
      <point x="259.0310344827586" y="713.5206896551724"/>
      <point x="308.8586206896552" y="713.5206896551724" type="curve" smooth="yes"/>
      <point x="339.651724137931" y="713.5206896551724" type="line"/>
      <point x="339.651724137931" y="760.0" type="line"/>
      <point x="266.7344827586207" y="760.0" type="line" smooth="yes"/>
      <point x="175.34827586206896" y="760.0"/>
      <point x="127.08965517241379" y="707.3793103448276"/>
      <point x="127.08965517241379" y="616.0586206896551" type="curve" smooth="yes"/>
      <point x="127.08965517241379" y="442.37931034482756" type="line" smooth="yes"/>
      <point x="127.08965517241379" y="363.99655172413793"/>
      <point x="83.24137931034484" y="344.09999999999997"/>
      <point x="26.341379310344827" y="342.09999999999997" type="curve"/>
      <point x="26.341379310344827" y="293.46206896551723" type="line"/>
      <point x="83.24137931034484" y="290.46206896551723"/>
      <point x="127.08965517241379" y="271.37931034482756"/>
      <point x="127.08965517241379" y="190.86206896551724" type="curve" smooth="yes"/>
      <point x="127.08965517241379" y="18.803448275862067" type="line" smooth="yes"/>
      <point x="127.08965517241379" y="-71.02413793103449"/>
      <point x="175.34827586206896" y="-126.75862068965517"/>
    </contour>
  </outline>
</glyph>
<glyph name="bar" format="2">
  <advance width="483.0689655172414"/>
  <unicode hex="007C"/>
  <outline>
    <contour>
      <point x="211.62413793103448" y="-240.0" type="line"/>
      <point x="270.5586206896552" y="-240.0" type="line"/>
      <point x="270.5586206896552" y="760.0" type="line"/>
      <point x="211.62413793103448" y="760.0" type="line"/>
    </contour>
  </outline>
</glyph>
<glyph name="braceright" format="2">
  <advance width="393.3448275862069"/>
  <unicode hex="007D"/>
  <outline>
    <contour>
      <point x="54.12758620689656" y="-126.75862068965517" type="line"/>
      <point x="127.4241379310345" y="-126.75862068965517" type="line" smooth="yes"/>
      <point x="218.81034482758622" y="-126.75862068965517"/>
      <point x="266.0689655172414" y="-71.02413793103449"/>
      <point x="266.0689655172414" y="18.803448275862067" type="curve" smooth="yes"/>
      <point x="266.0689655172414" y="190.86206896551724" type="line" smooth="yes"/>
      <point x="266.0689655172414" y="271.37931034482756"/>
      <point x="311.36896551724135" y="290.46206896551723"/>
      <point x="367.551724137931" y="293.46206896551723" type="curve"/>
      <point x="367.551724137931" y="342.09999999999997" type="line"/>
      <point x="311.36896551724135" y="344.09999999999997"/>
      <point x="266.0689655172414" y="363.99655172413793"/>
      <point x="266.0689655172414" y="442.37931034482756" type="curve" smooth="yes"/>
      <point x="266.0689655172414" y="616.0586206896551" type="line" smooth="yes"/>
      <point x="266.0689655172414" y="707.3793103448276"/>
      <point x="218.81034482758622" y="760.0"/>
      <point x="127.4241379310345" y="760.0" type="curve" smooth="yes"/>
      <point x="54.12758620689656" y="760.0" type="line"/>
      <point x="54.12758620689656" y="713.5206896551724" type="line"/>
      <point x="85.48620689655175" y="713.5206896551724" type="line" smooth="yes"/>
      <point x="135.5793103448276" y="713.5206896551724"/>
      <point x="149.68965517241378" y="678.5758620689654"/>
      <point x="149.68965517241378" y="611.4931034482757" type="curve" smooth="yes"/>
      <point x="149.68965517241378" y="440.37931034482756" type="line" smooth="yes"/>
      <point x="149.68965517241378" y="376.86206896551727"/>
      <point x="179.848275862069" y="334.32758620689657"/>
      <point x="245.74482758620692" y="320.29655172413794" type="curve"/>
      <point x="245.74482758620692" y="316.37931034482756" type="line"/>
      <point x="178.7896551724138" y="301.46206896551723"/>
      <point x="149.68965517241378" y="258.37931034482756"/>
      <point x="149.68965517241378" y="193.86206896551724" type="curve" smooth="yes"/>
      <point x="149.68965517241378" y="21.917241379310344" type="line" smooth="yes"/>
      <point x="149.68965517241378" y="-43.9"/>
      <point x="135.5793103448276" y="-80.27931034482758"/>
      <point x="85.59999999999998" y="-80.27931034482758" type="curve" smooth="yes"/>
      <point x="54.12758620689656" y="-80.27931034482758" type="line"/>
    </contour>
  </outline>
</glyph>
<glyph name="asciitilde" format="2">
  <advance width="465.2"/>
  <unicode hex="007E"/>
  <outline>
    <contour>
      <point x="31.355172413793102" y="266.46206896551723" type="curve"/>
      <point x="92.33103448275862" y="266.46206896551723" type="line"/>
      <point x="97.3344827586207" y="348.28965517241375"/>
      <point x="112.5896551724138" y="383.9931034482758"/>
      <point x="145.18275862068967" y="383.9931034482758" type="curve" smooth="yes"/>
      <point x="168.3551724137931" y="383.9931034482758"/>
      <point x="184.3689655172414" y="365.9241379310345"/>
      <point x="216.26551724137929" y="331.23448275862063" type="curve" smooth="yes"/>
      <point x="261.81724137931036" y="280.151724137931"/>
      <point x="288.2931034482759" y="266.46206896551723"/>
      <point x="324.08620689655174" y="266.46206896551723" type="curve" smooth="yes"/>
      <point x="407.21034482758625" y="266.46206896551723"/>
      <point x="430.2862068965518" y="358.63793103448273"/>
      <point x="434.7758620689655" y="446.8034482758621" type="curve"/>
      <point x="373.2344827586207" y="446.8034482758621" type="line"/>
      <point x="368.5172413793103" y="366.15517241379314"/>
      <point x="354.86206896551727" y="329.2724137931035"/>
      <point x="322.72068965517246" y="329.2724137931035" type="curve" smooth="yes"/>
      <point x="299.7275862068966" y="329.2724137931035"/>
      <point x="283.9896551724138" y="348.61034482758623"/>
      <point x="253.99655172413796" y="380.18275862068964" type="curve" smooth="yes"/>
      <point x="210.13793103448276" y="424.75517241379316"/>
      <point x="183.5344827586207" y="446.8034482758621"/>
      <point x="143.45517241379312" y="446.8034482758621" type="curve" smooth="yes"/>
      <point x="59.08275862068965" y="446.8034482758621"/>
      <point x="35.90689655172414" y="356.87586206896555"/>
    </contour>
  </outline>
</glyph>
<glyph name="multiply" format="2">
  <advance width="465.08620689655174"/>
  <unicode hex="00D7"/>
  <outline>
    <contour>
      <point x="97.18965517241381" y="154.55862068965519" type="line"/>
      <point x="233.3310344827586" y="311.4758620689655" type="line"/>
      <point x="368.60344827586204" y="155.42758620689656" type="line"/>
      <point x="414.42758620689654" y="196.08620689655172" type="line"/>
      <point x="274.2551724137931" y="358.4344827586207" type="line"/>
      <point x="414.42758620689654" y="520.3310344827586" type="line"/>
      <point x="368.16896551724136" y="560.7413793103448" type="line"/>
      <point x="233.3310344827586" y="405.7310344827586" type="line"/>
      <point x="97.8896551724138" y="561.5758620689654" type="line"/>
      <point x="51.17931034482758" y="521.4655172413793" type="line"/>
      <point x="192.67241379310343" y="358.7344827586207" type="line"/>
      <point x="51.17931034482758" y="195.25172413793103" type="line"/>
    </contour>
  </outline>
</glyph>
<glyph name="divide" format="2">
  <advance width="465.2"/>
  <unicode hex="00F7"/>
  <outline>
    <contour>
      <point x="47.42758620689655" y="326.1965517241379" type="line"/>
      <point x="417.77241379310345" y="326.1965517241379" type="line"/>
      <point x="417.77241379310345" y="388.9172413793103" type="line"/>
      <point x="47.42758620689655" y="388.9172413793103" type="line"/>
    </contour>
    <contour>
      <point x="233.1" y="111.49655172413793" type="curve" smooth="yes"/>
      <point x="259.54137931034484" y="111.49655172413793"/>
      <point x="280.93103448275866" y="126.55172413793103"/>
      <point x="280.93103448275866" y="168.41379310344828" type="curve" smooth="yes"/>
      <point x="280.93103448275866" y="211.27586206896552"/>
      <point x="259.54137931034484" y="225.3310344827586"/>
      <point x="233.1" y="225.3310344827586" type="curve" smooth="yes"/>
      <point x="205.22413793103448" y="225.3310344827586"/>
      <point x="184.5689655172414" y="211.27586206896552"/>
      <point x="184.5689655172414" y="168.41379310344828" type="curve" smooth="yes"/>
      <point x="184.5689655172414" y="126.55172413793103"/>
      <point x="205.22413793103448" y="111.49655172413793"/>
    </contour>
    <contour>
      <point x="233.1" y="489.9689655172413" type="curve" smooth="yes"/>
      <point x="259.54137931034484" y="489.9689655172413"/>
      <point x="280.93103448275866" y="504.7241379310345"/>
      <point x="280.93103448275866" y="546.5862068965517" type="curve" smooth="yes"/>
      <point x="280.93103448275866" y="589.448275862069"/>
      <point x="259.54137931034484" y="603.5034482758621"/>
      <point x="233.1" y="603.5034482758621" type="curve" smooth="yes"/>
      <point x="205.22413793103448" y="603.5034482758621"/>
      <point x="184.5689655172414" y="589.448275862069"/>
      <point x="184.5689655172414" y="546.5862068965517" type="curve" smooth="yes"/>
      <point x="184.5689655172414" y="504.7241379310345"/>
      <point x="205.22413793103448" y="489.9689655172413"/>
    </contour>
  </outline>
</glyph>
<glyph name="anudatta-deva" format="2">
  <unicode hex="0952"/>
  <anchor x="-299.0" y="403.6896551724138" name="_vedic"/>
  <outline>
    <contour>
      <point x="-492.74827586206897" y="-150.20689655172413" type="line"/>
      <point x="-104.43793103448276" y="-150.20689655172413" type="line"/>
      <point x="-104.43793103448276" y="-85.79310344827586" type="line"/>
      <point x="-492.74827586206897" y="-85.79310344827586" type="line"/>
    </contour>
  </outline>
</glyph>
<glyph name="danda-deva" format="2">
  <advance width="381.75172413793103"/>
  <unicode hex="0964"/>
  <outline>
    <contour>
      <point x="314.09655172413795" y="-30.448275862068968" type="line"/>
      <point x="320.2" y="-28.20689655172414" type="line"/>
      <point x="320.2" y="586.8620689655172" type="line"/>
      <point x="246.85517241379313" y="623.8620689655172" type="line"/>
      <point x="243.85517241379313" y="623.8620689655172" type="line"/>
      <point x="243.85517241379313" y="3.1379310344827585" type="line"/>
    </contour>
  </outline>
</glyph>
<glyph name="dbldanda-deva" format="2">
  <advance width="534.6655172413793"/>
  <unicode hex="0965"/>
  <outline>
    <contour>
      <point x="467.6310344827586" y="-30.448275862068968" type="line"/>
      <point x="473.11379310344824" y="-28.20689655172414" type="line"/>
      <point x="473.11379310344824" y="586.8620689655172" type="line"/>
      <point x="400.38965517241377" y="623.8620689655172" type="line"/>
      <point x="397.38965517241377" y="623.8620689655172" type="line"/>
      <point x="397.38965517241377" y="3.1379310344827585" type="line"/>
    </contour>
    <contour>
      <point x="314.09655172413795" y="-30.448275862068968" type="line"/>
      <point x="320.2" y="-28.20689655172414" type="line"/>
      <point x="320.2" y="586.8620689655172" type="line"/>
      <point x="246.85517241379313" y="623.8620689655172" type="line"/>
      <point x="243.85517241379313" y="623.8620689655172" type="line"/>
      <point x="243.85517241379313" y="3.1379310344827585" type="line"/>
    </contour>
  </outline>
</glyph>
<glyph name="anji-beng" format="2">
  <advance width="490.8482758620689"/>
  <unicode hex="0980"/>
  <anchor x="263.0655172413794" y="578.0689655172414" name="top"/>
  <outline>
    <contour>
      <point x="405.3068965517241" y="-20.855172413793106" type="curve" smooth="yes"/>
      <point x="451.4413793103448" y="-20.855172413793106"/>
      <point x="476.57586206896553" y="9.134482758620688"/>
      <point x="476.57586206896553" y="52.58275862068966" type="curve" smooth="yes"/>
      <point x="476.57586206896553" y="95.3103448275862"/>
      <point x="448.0103448275862" y="124.52758620689656"/>
      <point x="411.1241379310345" y="124.52758620689656" type="curve" smooth="yes"/>
      <point x="372.87586206896555" y="124.52758620689656"/>
      <point x="358.71379310344827" y="96.45862068965518"/>
      <point x="356.9206896551724" y="67.65172413793104" type="curve"/>
      <point x="389.04827586206903" y="64.54827586206896" type="line"/>
      <point x="389.04827586206903" y="476.06896551724134" type="line" smooth="yes"/>
      <point x="389.04827586206903" y="560.9206896551725"/>
      <point x="334.15862068965515" y="627.5862068965517"/>
      <point x="239.62413793103448" y="627.5862068965517" type="curve" smooth="yes"/>
      <point x="131.34827586206896" y="627.5862068965517"/>
      <point x="43.793103448275865" y="538.4896551724138"/>
      <point x="43.793103448275865" y="413.74482758620695" type="curve" smooth="yes"/>
      <point x="43.793103448275865" y="289.74827586206897"/>
      <point x="117.32413793103447" y="224.45172413793102"/>
      <point x="198.23103448275862" y="224.45172413793102" type="curve" smooth="yes"/>
      <point x="254.35172413793103" y="224.45172413793102"/>
      <point x="286.8551724137931" y="260.0172413793104"/>
      <point x="286.8551724137931" y="312.7448275862069" type="curve" smooth="yes"/>
      <point x="286.8551724137931" y="364.89655172413796"/>
      <point x="256.92758620689654" y="395.4206896551724"/>
      <point x="215.40689655172415" y="395.4206896551724" type="curve" smooth="yes"/>
      <point x="175.34137931034485" y="395.4206896551724"/>
      <point x="147.64482758620693" y="366.45862068965516"/>
      <point x="147.64482758620693" y="321.7206896551724" type="curve" smooth="yes"/>
      <point x="147.64482758620693" y="306.56206896551726"/>
      <point x="150.53103448275863" y="290.1344827586207"/>
      <point x="154.45172413793105" y="281.67241379310343" type="curve"/>
      <point x="195.7344827586207" y="303.1344827586207" type="line"/>
      <point x="185.89310344827587" y="299.7551724137931"/>
      <point x="175.43103448275863" y="298.7551724137931"/>
      <point x="165.5896551724138" y="298.7551724137931" type="curve" smooth="yes"/>
      <point x="136.4034482758621" y="298.7551724137931"/>
      <point x="118.58620689655173" y="330.3068965517241"/>
      <point x="118.58620689655173" y="382.96551724137925" type="curve" smooth="yes"/>
      <point x="118.58620689655173" y="473.17586206896556"/>
      <point x="206.52758620689656" y="546.3103448275862"/>
      <point x="265.06896551724145" y="546.3103448275862" type="curve" smooth="yes"/>
      <point x="301.33103448275864" y="546.3103448275862"/>
      <point x="315.23793103448276" y="525.1344827586206"/>
      <point x="315.23793103448276" y="485.25517241379316" type="curve" smooth="yes"/>
      <point x="315.23793103448276" y="93.34827586206896" type="line" smooth="yes"/>
      <point x="315.23793103448276" y="27.379310344827587"/>
      <point x="348.9172413793104" y="-20.855172413793106"/>
    </contour>
  </outline>
</glyph>
<glyph name="anusvara-beng" format="2">
  <advance width="327.81724137931036"/>
  <unicode hex="0982"/>
  <anchor x="-193.7206896551724" y="0.0" name="vedic"/>
  <outline>
    <contour>
      <point x="159.88620689655173" y="346.37931034482756" type="curve" smooth="yes"/>
      <point x="232.17586206896553" y="346.37931034482756"/>
      <point x="284.2896551724138" y="404.8034482758621"/>
      <point x="284.2896551724138" y="487.0689655172414" type="curve" smooth="yes"/>
      <point x="284.2896551724138" y="562.0344827586207"/>
      <point x="239.75862068965517" y="622.3793103448276"/>
      <point x="167.85862068965517" y="622.3793103448276" type="curve" smooth="yes"/>
      <point x="96.4" y="622.3793103448276"/>
      <point x="45.03793103448276" y="563.0344827586207"/>
      <point x="45.03793103448276" y="482.0689655172414" type="curve" smooth="yes"/>
      <point x="45.03793103448276" y="408.05862068965513"/>
      <point x="89.88275862068966" y="346.37931034482756"/>
    </contour>
    <contour>
      <point x="138.94827586206895" y="409.6551724137931" type="curve" smooth="yes"/>
      <point x="122.42413793103447" y="409.6551724137931"/>
      <point x="109.05172413793105" y="423.17241379310343"/>
      <point x="109.05172413793105" y="448.61724137931037" type="curve" smooth="yes"/>
      <point x="109.05172413793105" y="497.2655172413793"/>
      <point x="155.59310344827585" y="555.9655172413793"/>
      <point x="193.97241379310344" y="555.9655172413793" type="curve" smooth="yes"/>
      <point x="212.13103448275862" y="555.9655172413793"/>
      <point x="221.8241379310345" y="540.3689655172413"/>
      <point x="221.8241379310345" y="522.3103448275862" type="curve" smooth="yes"/>
      <point x="221.8241379310345" y="475.7344827586207"/>
      <point x="176.9241379310345" y="409.6551724137931"/>
    </contour>
    <contour>
      <point x="276.66896551724136" y="-56.0" type="curve"/>
      <point x="317.23448275862063" y="-39.13793103448276" type="line"/>
      <point x="263.1241379310345" y="100.50689655172414"/>
      <point x="187.86896551724138" y="233.80344827586208"/>
      <point x="102.30344827586208" y="305.9206896551724" type="curve"/>
      <point x="44.324137931034485" y="200.10344827586206" type="line"/>
      <point x="127.9344827586207" y="144.79310344827587"/>
      <point x="189.4793103448276" y="89.55172413793105"/>
    </contour>
  </outline>
</glyph>
<glyph name="visarga-beng" format="2">
  <advance width="331.93448275862073"/>
  <unicode hex="0983"/>
  <anchor x="-193.7206896551724" y="0.0" name="vedic"/>
  <outline>
    <contour>
      <point x="161.18965517241378" y="346.00689655172414" type="curve" smooth="yes"/>
      <point x="234.4103448275862" y="346.00689655172414"/>
      <point x="287.0827586206897" y="404.6172413793103"/>
      <point x="287.0827586206897" y="487.0689655172414" type="curve" smooth="yes"/>
      <point x="287.0827586206897" y="562.4068965517241"/>
      <point x="242.17931034482757" y="622.7517241379311"/>
      <point x="169.16206896551722" y="622.7517241379311" type="curve" smooth="yes"/>
      <point x="96.95862068965516" y="622.7517241379311"/>
      <point x="45.03793103448276" y="563.4068965517241"/>
      <point x="45.03793103448276" y="482.0689655172414" type="curve" smooth="yes"/>
      <point x="45.03793103448276" y="407.8724137931035"/>
      <point x="90.44137931034483" y="346.00689655172414"/>
    </contour>
    <contour>
      <point x="140.43793103448274" y="409.28275862068966" type="curve" smooth="yes"/>
      <point x="123.91379310344828" y="409.28275862068966"/>
      <point x="110.3551724137931" y="422.8"/>
      <point x="110.3551724137931" y="448.0586206896552" type="curve" smooth="yes"/>
      <point x="110.3551724137931" y="496.8931034482759"/>
      <point x="156.71034482758623" y="556.3379310344828"/>
      <point x="195.27586206896552" y="556.3379310344828" type="curve" smooth="yes"/>
      <point x="213.6206896551724" y="556.3379310344828"/>
      <point x="223.3137931034483" y="540.7413793103448"/>
      <point x="223.3137931034483" y="522.6827586206897" type="curve" smooth="yes"/>
      <point x="223.3137931034483" y="476.1068965517241"/>
      <point x="178.97241379310344" y="409.28275862068966"/>
    </contour>
    <contour>
      <point x="161.37586206896552" y="-7.582758620689654" type="curve" smooth="yes"/>
      <point x="234.2241379310345" y="-7.582758620689654"/>
      <point x="286.5241379310345" y="50.40689655172413"/>
      <point x="286.5241379310345" y="132.99310344827586" type="curve" smooth="yes"/>
      <point x="286.5241379310345" y="208.07241379310346"/>
      <point x="241.80689655172412" y="267.68275862068964"/>
      <point x="169.16206896551722" y="267.68275862068964" type="curve" smooth="yes"/>
      <point x="97.33103448275861" y="267.68275862068964"/>
      <point x="45.41034482758621" y="208.6379310344828"/>
      <point x="45.41034482758621" y="127.55862068965517" type="curve" smooth="yes"/>
      <point x="45.41034482758621" y="53.66206896551724"/>
      <point x="90.62758620689655" y="-7.582758620689654"/>
    </contour>
    <contour>
      <point x="140.62413793103448" y="55.20689655172414" type="curve" smooth="yes"/>
      <point x="123.91379310344828" y="55.20689655172414"/>
      <point x="110.54137931034482" y="68.28965517241379"/>
      <point x="110.54137931034482" y="93.98275862068965" type="curve" smooth="yes"/>
      <point x="110.54137931034482" y="142.9310344827586"/>
      <point x="156.71034482758623" y="202.0758620689655"/>
      <point x="195.27586206896552" y="202.0758620689655" type="curve" smooth="yes"/>
      <point x="213.43448275862073" y="202.0758620689655"/>
      <point x="223.12758620689658" y="186.4793103448276"/>
      <point x="223.12758620689658" y="168.72068965517244" type="curve" smooth="yes"/>
      <point x="223.12758620689658" y="122.1448275862069"/>
      <point x="178.97241379310344" y="55.20689655172414"/>
    </contour>
  </outline>
</glyph>
<glyph name="a-beng" format="2">
  <advance width="678.0310344827585"/>
  <unicode hex="0985"/>
  <anchor x="614.1793103448275" y="0.0" name="bottom"/>
  <anchor x="614.6137931034482" y="80.55172413793103" name="bottom.rakaar"/>
  <anchor x="614.1793103448275" y="11.379310344827585" name="bottom.rvocalic"/>
  <anchor x="597.5103448275862" y="10.96551724137931" name="bottom.virama"/>
  <anchor x="614.1793103448275" y="557.5862068965517" name="top"/>
  <anchor x="614.1793103448275" y="557.5862068965517" name="topright"/>
  <anchor x="338.66551724137923" y="0.0" name="vedic"/>
  <outline>
    <contour>
      <point x="605.2172413793103" y="-19.82758620689655" type="line"/>
      <point x="612.7793103448275" y="-18.20689655172414" type="line"/>
      <point x="612.7793103448275" y="557.5862068965517" type="line"/>
      <point x="707.9551724137931" y="557.5862068965517" type="line"/>
      <point x="672.3206896551724" y="622.0" type="line"/>
      <point x="-29.924137931034483" y="622.0" type="line"/>
      <point x="5.144827586206897" y="557.5862068965517" type="line"/>
      <point x="539.1551724137931" y="557.5862068965517" type="line"/>
      <point x="539.1551724137931" y="84.21724137931035" type="line"/>
      <point x="553.8310344827586" y="87.70689655172414" type="line"/>
      <point x="526.7344827586207" y="160.9758620689655"/>
      <point x="486.0827586206897" y="211.30689655172412"/>
      <point x="441.21379310344827" y="245.22413793103448" type="curve"/>
      <point x="411.57931034482755" y="171.18965517241378" type="line"/>
      <point x="469.0206896551724" y="136.89310344827584"/>
      <point x="514.9758620689655" y="87.34137931034483"/>
      <point x="551.3758620689655" y="16.679310344827588" type="curve"/>
    </contour>
    <contour>
      <point x="297.4137931034483" y="68.19655172413793" type="curve" smooth="yes"/>
      <point x="403.24482758620684" y="68.19655172413793"/>
      <point x="475.13793103448273" y="153.29999999999998"/>
      <point x="475.13793103448273" y="286.86206896551727" type="curve" smooth="yes"/>
      <point x="475.13793103448273" y="405.48275862068965"/>
      <point x="410.63448275862066" y="503.7931034482759"/>
      <point x="288.6620689655172" y="503.7931034482759" type="curve" smooth="yes"/>
      <point x="216.14827586206897" y="503.7931034482759"/>
      <point x="167.65862068965518" y="462.0793103448276"/>
      <point x="167.65862068965518" y="390.2413793103448" type="curve" smooth="yes"/>
      <point x="167.65862068965518" y="327.13793103448273"/>
      <point x="207.63793103448276" y="285.3103448275862"/>
      <point x="264.86206896551727" y="285.3103448275862" type="curve" smooth="yes"/>
      <point x="323.3551724137931" y="285.3103448275862"/>
      <point x="353.38965517241377" y="331.0586206896552"/>
      <point x="353.38965517241377" y="391.8965517241379" type="curve" smooth="yes"/>
      <point x="353.38965517241377" y="471.0137931034483"/>
      <point x="303.3034482758621" y="535.9310344827586"/>
      <point x="266.9310344827586" y="568.3103448275862" type="curve"/>
      <point x="129.25172413793103" y="566.9310344827586" type="line"/>
      <point x="244.53448275862067" y="535.9310344827586"/>
      <point x="284.53793103448277" y="473.6551724137931"/>
      <point x="293.60689655172416" y="389.55172413793105" type="curve"/>
      <point x="306.2068965517242" y="397.9310344827586"/>
      <point x="321.43793103448274" y="404.0344827586207"/>
      <point x="340.87586206896555" y="404.0344827586207" type="curve" smooth="yes"/>
      <point x="375.67931034482757" y="404.0344827586207"/>
      <point x="414.2413793103449" y="375.5758620689655"/>
      <point x="415.1827586206896" y="301.9655172413793" type="curve" smooth="yes"/>
      <point x="416.12413793103445" y="221.68965517241378"/>
      <point x="366.048275862069" y="183.65862068965518"/>
      <point x="294.29655172413794" y="183.65862068965518" type="curve" smooth="yes"/>
      <point x="188.9586206896552" y="183.65862068965518"/>
      <point x="108.7655172413793" y="258.10344827586204"/>
      <point x="58.60689655172414" y="487.7931034482759" type="curve"/>
      <point x="9.6" y="476.3689655172414" type="line"/>
      <point x="63.13448275862069" y="186.60344827586206"/>
      <point x="158.21724137931034" y="68.19655172413793"/>
    </contour>
  </outline>
</glyph>
<glyph name="aa-beng" format="2">
  <advance width="877.4310344827586"/>
  <unicode hex="0986"/>
  <anchor x="613.3103448275862" y="0.0" name="bottom"/>
  <anchor x="612.8758620689655" y="80.55172413793103" name="bottom.rakaar"/>
  <anchor x="612.8758620689655" y="11.379310344827585" name="bottom.rvocalic"/>
  <anchor x="596.2068965517242" y="10.96551724137931" name="bottom.virama"/>
  <anchor x="814.0310344827586" y="557.5862068965517" name="top"/>
  <anchor x="814.0310344827586" y="535.1724137931035" name="topright"/>
  <anchor x="438.4413793103448" y="0.0" name="vedic"/>
  <outline>
    <contour>
      <point x="605.2172413793103" y="-19.82758620689655" type="line"/>
      <point x="612.7793103448275" y="-18.20689655172414" type="line"/>
      <point x="612.7793103448275" y="557.5862068965517" type="line"/>
      <point x="679.5586206896552" y="557.5862068965517" type="line"/>
      <point x="643.6758620689656" y="622.0" type="line"/>
      <point x="-29.924137931034483" y="622.0" type="line"/>
      <point x="5.144827586206897" y="557.5862068965517" type="line"/>
      <point x="539.1551724137931" y="557.5862068965517" type="line"/>
      <point x="539.1551724137931" y="84.21724137931035" type="line"/>
      <point x="553.8310344827586" y="87.70689655172414" type="line"/>
      <point x="526.7344827586207" y="160.9758620689655"/>
      <point x="486.0827586206897" y="211.30689655172412"/>
      <point x="441.21379310344827" y="245.22413793103448" type="curve"/>
      <point x="411.57931034482755" y="171.18965517241378" type="line"/>
      <point x="469.0206896551724" y="136.89310344827584"/>
      <point x="514.9758620689655" y="87.34137931034483"/>
      <point x="551.3758620689655" y="16.679310344827588" type="curve"/>
    </contour>
    <contour>
      <point x="297.4137931034483" y="68.19655172413793" type="curve" smooth="yes"/>
      <point x="403.24482758620684" y="68.19655172413793"/>
      <point x="475.13793103448273" y="153.29999999999998"/>
      <point x="475.13793103448273" y="286.86206896551727" type="curve" smooth="yes"/>
      <point x="475.13793103448273" y="405.48275862068965"/>
      <point x="410.63448275862066" y="503.7931034482759"/>
      <point x="288.6620689655172" y="503.7931034482759" type="curve" smooth="yes"/>
      <point x="216.14827586206897" y="503.7931034482759"/>
      <point x="167.65862068965518" y="462.0793103448276"/>
      <point x="167.65862068965518" y="390.2413793103448" type="curve" smooth="yes"/>
      <point x="167.65862068965518" y="327.13793103448273"/>
      <point x="207.63793103448276" y="285.3103448275862"/>
      <point x="264.86206896551727" y="285.3103448275862" type="curve" smooth="yes"/>
      <point x="323.3551724137931" y="285.3103448275862"/>
      <point x="353.38965517241377" y="331.0586206896552"/>
      <point x="353.38965517241377" y="391.8965517241379" type="curve" smooth="yes"/>
      <point x="353.38965517241377" y="471.0137931034483"/>
      <point x="303.3034482758621" y="535.9310344827586"/>
      <point x="266.9310344827586" y="568.3103448275862" type="curve"/>
      <point x="129.25172413793103" y="566.9310344827586" type="line"/>
      <point x="244.53448275862067" y="535.9310344827586"/>
      <point x="284.53793103448277" y="473.6551724137931"/>
      <point x="293.60689655172416" y="389.55172413793105" type="curve"/>
      <point x="306.2068965517242" y="397.9310344827586"/>
      <point x="321.43793103448274" y="404.0344827586207"/>
      <point x="340.87586206896555" y="404.0344827586207" type="curve" smooth="yes"/>
      <point x="375.67931034482757" y="404.0344827586207"/>
      <point x="415.1827586206896" y="375.5758620689655"/>
      <point x="415.1827586206896" y="301.9655172413793" type="curve" smooth="yes"/>
      <point x="415.1827586206896" y="221.5758620689655"/>
      <point x="365.93448275862073" y="183.65862068965518"/>
      <point x="294.29655172413794" y="183.65862068965518" type="curve" smooth="yes"/>
      <point x="188.9586206896552" y="183.65862068965518"/>
      <point x="108.7655172413793" y="258.10344827586204"/>
      <point x="58.60689655172414" y="487.7931034482759" type="curve"/>
      <point x="9.6" y="476.3689655172414" type="line"/>
      <point x="63.13448275862069" y="186.60344827586206"/>
      <point x="158.21724137931034" y="68.19655172413793"/>
    </contour>
    <contour>
      <point x="805.5620689655173" y="-31.20689655172414" type="line"/>
      <point x="811.9310344827586" y="-29.586206896551722" type="line"/>
      <point x="811.9310344827586" y="557.5862068965517" type="line"/>
      <point x="907.3551724137931" y="557.5862068965517" type="line"/>
      <point x="871.1724137931034" y="622.0" type="line"/>
      <point x="805.9206896551724" y="622.0" type="line"/>
      <point x="799.1724137931034" y="672.448275862069" type="line"/>
      <point x="744.851724137931" y="707.3103448275862" type="line"/>
      <point x="739.4241379310344" y="705.0689655172414" type="line"/>
      <point x="739.4241379310344" y="634.2344827586206" type="line" smooth="yes"/>
      <point x="739.4241379310344" y="607.4137931034484"/>
      <point x="742.5379310344829" y="560.9655172413793"/>
      <point x="746.9896551724137" y="523.0413793103447" type="curve"/>
      <point x="753.2034482758621" y="524.6413793103447" type="line"/>
      <point x="741.0034482758621" y="594.106896551724"/>
      <point x="710.2" y="622.0"/>
      <point x="673.5724137931034" y="622.0" type="curve" smooth="yes"/>
      <point x="629.4344827586207" y="622.0" type="line"/>
      <point x="665.3896551724137" y="557.5862068965517" type="line"/>
      <point x="685.2620689655172" y="557.5862068965517" type="line" smooth="yes"/>
      <point x="711.7931034482759" y="557.5862068965517"/>
      <point x="731.6137931034483" y="520.7862068965517"/>
      <point x="738.1206896551723" y="475.351724137931" type="curve"/>
      <point x="738.1206896551723" y="1.7586206896551724" type="line"/>
    </contour>
  </outline>
</glyph>
<glyph name="i-beng" format="2">
  <advance width="424.45862068965516"/>
  <unicode hex="0987"/>
  <anchor x="262.0586206896552" y="66.14827586206896" name="bottom"/>
  <anchor x="372.2586206896552" y="-74.86206896551725" name="bottom.rakaar"/>
  <anchor x="327.81724137931036" y="63.93103448275862" name="bottom.rvocalic"/>
  <anchor x="250.15172413793104" y="68.27586206896552" name="bottom.virama"/>
  <anchor x="282.9206896551724" y="612.6551724137931" name="top"/>
  <anchor x="233.69655172413792" y="616.0586206896552" name="topright"/>
  <anchor x="211.8793103448276" y="0.0" name="vedic"/>
  <outline>
    <contour>
      <point x="321.78275862068966" y="603.3103448275862" type="curve"/>
      <point x="371.9310344827586" y="603.3103448275862" type="line"/>
      <point x="367.5344827586207" y="742.458620689655"/>
      <point x="321.8724137931035" y="809.6758620689654"/>
      <point x="235.73448275862071" y="809.6758620689654" type="curve" smooth="yes"/>
      <point x="191.84482758620692" y="809.6758620689654"/>
      <point x="161.30344827586208" y="799.8275862068966"/>
      <point x="115.20689655172414" y="799.8275862068966" type="curve" smooth="yes"/>
      <point x="57.2551724137931" y="799.8275862068966"/>
      <point x="29.8448275862069" y="819.2724137931034"/>
      <point x="29.8448275862069" y="882.5862068965517" type="curve" smooth="yes"/>
      <point x="29.8448275862069" y="895.3241379310346"/>
      <point x="30.8448275862069" y="910.0620689655171"/>
      <point x="32.54482758620691" y="921.1758620689654" type="curve"/>
      <point x="-11.710344827586209" y="926.2310344827586" type="line"/>
      <point x="-15.651724137931033" y="904.3482758620689"/>
      <point x="-17.458620689655174" y="879.7724137931034"/>
      <point x="-17.458620689655174" y="858.3482758620689" type="curve" smooth="yes"/>
      <point x="-17.458620689655174" y="759.2965517241379"/>
      <point x="26.92068965517241" y="701.0551724137931"/>
      <point x="118.43448275862069" y="701.0551724137931" type="curve" smooth="yes"/>
      <point x="175.47931034482758" y="701.0551724137931"/>
      <point x="208.80689655172415" y="711.6551724137931"/>
      <point x="246.47241379310347" y="711.6551724137931" type="curve" smooth="yes"/>
      <point x="291.2448275862069" y="711.6551724137931"/>
      <point x="319.2517241379311" y="683.9758620689655"/>
    </contour>
    <component base="ha-beng"/>
  </outline>
</glyph>
<glyph name="ii-beng" format="2">
  <advance width="580.5758620689655"/>
  <unicode hex="0988"/>
  <anchor x="509.93103448275866" y="-18.20689655172414" name="bottom"/>
  <anchor x="512.1724137931034" y="55.724137931034484" name="bottom.rakaar"/>
  <anchor x="498.4206896551724" y="-9.689655172413794" name="bottom.rvocalic"/>
  <anchor x="497.2172413793103" y="-23.586206896551726" name="bottom.virama"/>
  <anchor x="354.1689655172414" y="612.6551724137931" name="top"/>
  <anchor x="311.6103448275862" y="615.7931034482758" name="topright"/>
  <anchor x="290.2310344827587" y="0.0" name="vedic"/>
  <outline>
    <contour>
      <point x="472.47241379310344" y="-45.36551724137931" type="curve"/>
      <point x="517.4137931034483" y="-28.151724137931037" type="line"/>
      <point x="497.38275862068963" y="37.80689655172414"/>
      <point x="488.8379310344827" y="91.25862068965517"/>
      <point x="488.8379310344827" y="152.31379310344826" type="curve" smooth="yes"/>
      <point x="488.8379310344827" y="238.82758620689654"/>
      <point x="510.5379310344827" y="325.75172413793103"/>
      <point x="550.5310344827586" y="401.2413793103448" type="curve"/>
      <point x="447.4689655172413" y="485.951724137931" type="line"/>
      <point x="374.0448275862069" y="425.62413793103445"/>
      <point x="335.6655172413793" y="357.7758620689655"/>
      <point x="298.7551724137931" y="284.0758620689655" type="curve"/>
      <point x="325.8931034482759" y="270.43793103448274" type="line"/>
      <point x="330.0206896551724" y="287.5551724137931"/>
      <point x="331.45517241379315" y="308.3379310344827"/>
      <point x="331.45517241379315" y="325.0931034482758" type="curve" smooth="yes"/>
      <point x="331.45517241379315" y="418.8413793103448"/>
      <point x="288.8551724137931" y="501.7931034482759"/>
      <point x="162.648275862069" y="501.7931034482759" type="curve" smooth="yes"/>
      <point x="86.95862068965518" y="501.7931034482759"/>
      <point x="45.10344827586207" y="464.44827586206895"/>
      <point x="45.10344827586207" y="403.62068965517244" type="curve" smooth="yes"/>
      <point x="45.10344827586207" y="346.0689655172414"/>
      <point x="81.86206896551724" y="312.2068965517241"/>
      <point x="131.51034482758624" y="312.2068965517241" type="curve" smooth="yes"/>
      <point x="183.19655172413795" y="312.2068965517241"/>
      <point x="217.05862068965516" y="349.91034482758624"/>
      <point x="216.62413793103448" y="414.7931034482759" type="curve" smooth="yes"/>
      <point x="215.75517241379308" y="471.44827586206895"/>
      <point x="178.86206896551727" y="538.4137931034483"/>
      <point x="150.52068965517242" y="564.5862068965517" type="curve"/>
      <point x="36.686206896551724" y="564.5862068965517" type="line"/>
      <point x="78.9" y="548.448275862069"/>
      <point x="125.73793103448276" y="513.7379310344828"/>
      <point x="154.40344827586205" y="463.0344827586207" type="curve"/>
      <point x="126.97241379310344" y="390.37931034482756" type="line"/>
      <point x="147.72413793103448" y="409.37931034482756"/>
      <point x="175.10344827586204" y="420.49655172413793"/>
      <point x="201.84482758620692" y="420.49655172413793" type="curve" smooth="yes"/>
      <point x="253.2344827586207" y="420.49655172413793"/>
      <point x="276.6758620689655" y="384.2689655172414"/>
      <point x="276.6758620689655" y="331.2448275862069" type="curve" smooth="yes"/>
      <point x="276.6758620689655" y="295.94827586206895"/>
      <point x="267.8310344827587" y="255.848275862069"/>
      <point x="250.42758620689656" y="224.86551724137928" type="curve" smooth="yes"/>
      <point x="230.83793103448275" y="189.13103448275862"/>
      <point x="205.66206896551722" y="171.22758620689655"/>
      <point x="174.37931034482762" y="171.22758620689655" type="curve" smooth="yes"/>
      <point x="141.16551724137935" y="171.22758620689655"/>
      <point x="114.26551724137931" y="196.36551724137934"/>
      <point x="90.67586206896551" y="246.70689655172413" type="curve"/>
      <point x="47.73103448275862" y="226.2551724137931" type="line"/>
      <point x="86.22068965517241" y="121.2"/>
      <point x="136.81379310344826" y="66.09655172413794"/>
      <point x="203.08275862068965" y="66.09655172413794" type="curve" smooth="yes"/>
      <point x="267.0206896551724" y="66.09655172413794"/>
      <point x="308.40344827586205" y="125.35172413793103"/>
      <point x="355.0551724137932" y="205.2206896551724" type="curve" smooth="yes"/>
      <point x="394.3965517241379" y="271.2103448275862"/>
      <point x="425.16551724137935" y="327.2724137931034"/>
      <point x="481.3241379310345" y="388.203448275862" type="curve"/>
      <point x="458.91724137931027" y="402.6620689655172" type="line"/>
      <point x="432.2724137931035" y="335.07586206896553"/>
      <point x="418.8206896551724" y="268.8586206896552"/>
      <point x="418.8206896551724" y="194.74137931034483" type="curve" smooth="yes"/>
      <point x="418.8206896551724" y="105.68275862068965"/>
      <point x="442.1137931034483" y="26.413793103448274"/>
    </contour>
    <contour>
      <point x="5.144827586206897" y="557.5862068965517" type="line"/>
      <point x="610.5" y="557.5862068965517" type="line"/>
      <point x="575.7517241379311" y="622.0" type="line"/>
      <point x="-29.924137931034483" y="622.0" type="line"/>
    </contour>
    <contour>
      <point x="446.25172413793103" y="603.3103448275862" type="curve"/>
      <point x="497.1172413793103" y="603.3103448275862" type="line"/>
      <point x="486.74137931034477" y="738.3793103448276"/>
      <point x="445.02758620689656" y="814.6206896551723"/>
      <point x="336.7034482758621" y="814.6206896551723" type="curve" smooth="yes"/>
      <point x="280.8" y="814.6206896551723"/>
      <point x="250.51724137931035" y="802.703448275862"/>
      <point x="184.58620689655172" y="802.703448275862" type="curve" smooth="yes"/>
      <point x="115.00689655172413" y="802.703448275862"/>
      <point x="85.47241379310344" y="821.3517241379311"/>
      <point x="85.47241379310344" y="890.6689655172414" type="curve" smooth="yes"/>
      <point x="85.47241379310344" y="898.7517241379311"/>
      <point x="85.90689655172415" y="910.2344827586207"/>
      <point x="87.79310344827587" y="921.4413793103448" type="curve"/>
      <point x="44.61724137931034" y="926.4965517241379" type="line"/>
      <point x="40.37586206896552" y="905.5793103448276"/>
      <point x="38.05517241379311" y="884.6931034482759"/>
      <point x="38.05517241379311" y="863.8965517241379" type="curve" smooth="yes"/>
      <point x="38.05517241379311" y="762.1620689655173"/>
      <point x="88.64827586206897" y="700.5034482758621"/>
      <point x="194.97586206896554" y="700.5034482758621" type="curve" smooth="yes"/>
      <point x="262.5" y="700.5034482758621"/>
      <point x="309.1965517241379" y="714.0413793103448"/>
      <point x="358.2896551724138" y="714.0413793103448" type="curve" smooth="yes"/>
      <point x="415.6689655172414" y="714.0413793103448"/>
      <point x="438.8758620689655" y="683.2758620689655"/>
    </contour>
  </outline>
</glyph>
<glyph name="u-beng" format="2">
  <advance width="525.5344827586207"/>
  <unicode hex="0989"/>
  <anchor x="407.303448275862" y="13.144827586206896" name="bottom"/>
  <anchor x="456.7" y="-8.127586206896552" name="bottom.rakaar"/>
  <anchor x="393.5931034482759" y="39.27241379310345" name="bottom.rvocalic"/>
  <anchor x="341.2896551724138" y="5.824137931034484" name="bottom.virama"/>
  <anchor x="327.89310344827584" y="609.9862068965517" name="top"/>
  <anchor x="272.5551724137931" y="616.4931034482759" name="topright"/>
  <anchor x="262.63448275862066" y="0.0" name="vedic"/>
  <anchor x="282.62068965517244" y="-90.55172413793103" name="nukta"/>
  <outline>
    <contour>
      <point x="415.49655172413793" y="603.3103448275862" type="curve"/>
      <point x="465.9275862068966" y="603.3103448275862" type="line"/>
      <point x="457.0931034482759" y="741.5724137931035"/>
      <point x="410.06206896551726" y="810.6413793103449"/>
      <point x="313.4655172413793" y="810.6413793103449" type="curve" smooth="yes"/>
      <point x="264.4862068965517" y="810.6413793103449"/>
      <point x="231.58620689655174" y="801.2068965517242"/>
      <point x="181.44482758620688" y="801.2068965517242" type="curve" smooth="yes"/>
      <point x="111.79310344827584" y="801.2068965517242"/>
      <point x="83.92413793103448" y="823.3620689655172"/>
      <point x="83.92413793103448" y="882.4137931034483" type="curve" smooth="yes"/>
      <point x="83.92413793103448" y="892.9413793103448"/>
      <point x="84.8103448275862" y="907.151724137931"/>
      <point x="86.51034482758621" y="920.9896551724138" type="curve"/>
      <point x="41.403448275862075" y="926.2310344827586" type="line"/>
      <point x="37.162068965517236" y="903.8965517241379"/>
      <point x="35.54137931034482" y="882.5758620689655"/>
      <point x="35.54137931034482" y="859.5034482758621" type="curve" smooth="yes"/>
      <point x="35.54137931034482" y="761.7103448275861"/>
      <point x="85.86896551724138" y="701.2827586206896"/>
      <point x="190.0689655172414" y="701.2827586206896" type="curve" smooth="yes"/>
      <point x="249.1448275862069" y="701.2827586206896"/>
      <point x="290.15517241379314" y="711.903448275862"/>
      <point x="327.60689655172416" y="711.903448275862" type="curve" smooth="yes"/>
      <point x="381.38620689655176" y="711.903448275862"/>
      <point x="407.48275862068965" y="683.5241379310345"/>
    </contour>
    <component base="dda-beng"/>
  </outline>
</glyph>
<glyph name="uu-beng" format="2">
  <advance width="603.2413793103448"/>
  <unicode hex="098A"/>
  <anchor x="477.84827586206904" y="8.551724137931032" name="bottom"/>
  <anchor x="527.244827586207" y="-11.586206896551724" name="bottom.rakaar"/>
  <anchor x="463.70344827586206" y="34.41379310344827" name="bottom.rvocalic"/>
  <anchor x="410.43448275862073" y="1.5862068965517242" name="bottom.virama"/>
  <anchor x="376.5655172413793" y="611.4137931034483" name="top"/>
  <anchor x="354.803448275862" y="615.7931034482758" name="topright"/>
  <anchor x="301.40344827586205" y="0.0" name="vedic"/>
  <outline>
    <contour>
      <point x="375.02413793103455" y="21.324137931034482" type="curve" smooth="yes"/>
      <point x="515.6758620689656" y="21.324137931034482"/>
      <point x="581.2551724137932" y="118.23793103448277"/>
      <point x="581.2551724137932" y="250.3310344827586" type="curve" smooth="yes"/>
      <point x="581.2551724137932" y="353.0862068965517"/>
      <point x="543.5931034482759" y="424.91034482758624"/>
      <point x="492.33448275862077" y="473.63448275862066" type="curve"/>
      <point x="454.4620689655173" y="401.1379310344828"/>
      <point x="407.351724137931" y="353.6724137931035"/>
      <point x="369.8862068965517" y="353.6724137931035" type="curve" smooth="yes"/>
      <point x="355.2931034482759" y="353.6724137931035"/>
      <point x="342.7758620689655" y="362.2448275862069"/>
      <point x="342.7758620689655" y="382.9137931034483" type="curve" smooth="yes"/>
      <point x="342.7758620689655" y="557.5862068965517" type="line"/>
      <point x="633.1655172413792" y="557.5862068965517" type="line"/>
      <point x="596.2103448275863" y="622.0" type="line"/>
      <point x="-29.924137931034483" y="622.0" type="line"/>
      <point x="6.331034482758621" y="557.5862068965517" type="line"/>
      <point x="269.15172413793107" y="557.5862068965517" type="line"/>
      <point x="269.15172413793107" y="377.82068965517243" type="line" smooth="yes"/>
      <point x="269.15172413793107" y="337.60344827586204"/>
      <point x="279.9068965517241" y="308.59655172413795"/>
      <point x="302.53793103448277" y="285.7586206896552" type="curve" smooth="yes"/>
      <point x="324.1827586206897" y="263.9793103448276"/>
      <point x="350.1931034482759" y="252.36896551724138"/>
      <point x="383.1655172413793" y="252.36896551724138" type="curve" smooth="yes"/>
      <point x="438.87931034482756" y="252.36896551724138"/>
      <point x="499.64482758620693" y="299.4758620689655"/>
      <point x="536.6103448275862" y="370.2" type="curve"/>
      <point x="490.248275862069" y="358.5344827586207" type="line"/>
      <point x="510.38965517241377" y="338.98275862068965"/>
      <point x="523.0793103448276" y="311.04137931034484"/>
      <point x="523.0793103448276" y="270.21379310344827" type="curve" smooth="yes"/>
      <point x="523.0793103448276" y="187.42068965517242"/>
      <point x="471.40344827586216" y="132.93103448275863"/>
      <point x="388.62413793103445" y="132.40344827586208" type="curve" smooth="yes"/>
      <point x="249.93103448275863" y="131.46206896551723"/>
      <point x="207.82758620689657" y="283.49655172413793"/>
      <point x="157.8206896551724" y="496.6" type="curve"/>
      <point x="111.70344827586207" y="482.92413793103447" type="line"/>
      <point x="140.88275862068969" y="307.18620689655177"/>
      <point x="174.54137931034487" y="195.07241379310344"/>
      <point x="229.1379310344828" y="121.11724137931034" type="curve"/>
      <point x="262.848275862069" y="124.08275862068966" type="line"/>
      <point x="173.39310344827587" y="156.32413793103447"/>
      <point x="112.29655172413794" y="275.8965517241379"/>
      <point x="55.55517241379311" y="492.87586206896555" type="curve"/>
      <point x="9.437931034482759" y="479.6344827586207" type="line"/>
      <point x="67.6896551724138" y="170.42758620689654"/>
      <point x="185.57931034482758" y="21.324137931034482"/>
    </contour>
    <contour>
      <point x="492.76551724137937" y="603.3103448275862" type="curve"/>
      <point x="543.3655172413794" y="603.3103448275862" type="line"/>
      <point x="532.6172413793104" y="738.3793103448276"/>
      <point x="479.9413793103448" y="817.0068965517241"/>
      <point x="369.8344827586207" y="817.0068965517241" type="curve" smooth="yes"/>
      <point x="303.9068965517241" y="817.0068965517241"/>
      <point x="264.2586206896552" y="799.5931034482758"/>
      <point x="180.56206896551723" y="799.5931034482758" type="curve" smooth="yes"/>
      <point x="111.83103448275862" y="799.5931034482758"/>
      <point x="85.6896551724138" y="823.548275862069"/>
      <point x="85.6896551724138" y="882.4137931034483" type="curve" smooth="yes"/>
      <point x="85.6896551724138" y="893.1275862068966"/>
      <point x="86.57586206896552" y="907.3379310344827"/>
      <point x="88.27586206896552" y="921.1758620689654" type="curve"/>
      <point x="43.0551724137931" y="926.2310344827586" type="line"/>
      <point x="39.11379310344828" y="904.0827586206897"/>
      <point x="36.872413793103455" y="882.7620689655172"/>
      <point x="36.872413793103455" y="859.5034482758621" type="curve" smooth="yes"/>
      <point x="36.872413793103455" y="760.6551724137931"/>
      <point x="85.28620689655172" y="700.0413793103448"/>
      <point x="193.4689655172414" y="700.0413793103448" type="curve" smooth="yes"/>
      <point x="274.9517241379311" y="700.0413793103448"/>
      <point x="323.2551724137931" y="719.0758620689655"/>
      <point x="386.89655172413796" y="719.0758620689655" type="curve" smooth="yes"/>
      <point x="450.703448275862" y="719.0758620689655"/>
      <point x="484.051724137931" y="683.2758620689655"/>
    </contour>
  </outline>
</glyph>
<glyph name="rVocalic-beng" format="2">
  <advance width="656.4827586206897"/>
  <unicode hex="098B"/>
  <anchor x="448.1931034482759" y="0.0" name="bottom"/>
  <anchor x="448.1931034482759" y="80.55172413793103" name="bottom.rakaar"/>
  <anchor x="382.8896551724138" y="122.03103448275863" name="bottom.rvocalic"/>
  <anchor x="430.82413793103444" y="10.96551724137931" name="bottom.virama"/>
  <anchor x="448.1931034482759" y="557.5862068965517" name="top"/>
  <anchor x="450.4931034482759" y="557.5862068965517" name="topright"/>
  <anchor x="328.02413793103443" y="0.0" name="vedic"/>
  <outline>
    <contour>
      <point x="440.44482758620694" y="-21.317241379310346" type="line"/>
      <point x="448.1931034482759" y="-19.51034482758621" type="line"/>
      <point x="448.1931034482759" y="640.8965517241379" type="line"/>
      <point x="379.8103448275862" y="683.5862068965517" type="line"/>
      <point x="374.3827586206897" y="681.9655172413793" type="line"/>
      <point x="374.3827586206897" y="454.7724137931034" type="line"/>
      <point x="381.99655172413793" y="493.35517241379307" type="line"/>
      <point x="271.12068965517244" y="450.63793103448273"/>
      <point x="159.2206896551724" y="392.6275862068965"/>
      <point x="67.55172413793105" y="331.38620689655176" type="curve"/>
      <point x="126.15517241379311" y="205.51724137931035" type="line"/>
      <point x="237.53793103448274" y="184.19310344827585"/>
      <point x="328.5206896551724" y="126.32413793103449"/>
      <point x="386.60344827586204" y="15.375862068965517" type="curve"/>
    </contour>
    <contour>
      <point x="374.3827586206897" y="82.91379310344828" type="line"/>
      <point x="389.05862068965513" y="86.21724137931035" type="line"/>
      <point x="342.8689655172414" y="210.1862068965517"/>
      <point x="247.8896551724138" y="266.39310344827584"/>
      <point x="165.17586206896553" y="291.8620689655172" type="curve"/>
      <point x="174.96206896551723" y="263.6206896551724" type="line"/>
      <point x="232.73103448275862" y="308.7241379310345"/>
      <point x="319.8" y="352.2068965517241"/>
      <point x="387.55517241379306" y="377.4206896551724" type="curve"/>
      <point x="374.3827586206897" y="407.29655172413794" type="line"/>
    </contour>
    <contour>
      <point x="121.92758620689656" y="425.19310344827585" type="curve" smooth="yes"/>
      <point x="184.60344827586206" y="425.19310344827585"/>
      <point x="257.2344827586207" y="459.3068965517241"/>
      <point x="301.1931034482759" y="540.2379310344827" type="curve"/>
      <point x="269.11379310344824" y="539.1724137931035" type="line"/>
      <point x="291.4068965517241" y="515.4689655172414"/>
      <point x="310.45862068965516" y="487.97241379310344"/>
      <point x="331.09310344827594" y="442.7586206896552" type="curve"/>
      <point x="372.6827586206897" y="453.62068965517244" type="line"/>
      <point x="346.8724137931035" y="530.7689655172413"/>
      <point x="310.87931034482756" y="591.6206896551724"/>
      <point x="262.5827586206897" y="629.0" type="curve"/>
      <point x="222.30344827586202" y="551.6931034482759"/>
      <point x="169.02068965517242" y="511.2"/>
      <point x="121.44482758620691" y="511.2" type="curve" smooth="yes"/>
      <point x="111.17241379310344" y="511.2"/>
      <point x="97.28620689655173" y="513.951724137931"/>
      <point x="90.69310344827588" y="517.2896551724137" type="curve"/>
      <point x="129.11724137931034" y="480.36551724137934" type="line"/>
      <point x="145.99310344827586" y="496.9862068965517"/>
      <point x="151.91379310344828" y="512.4931034482759"/>
      <point x="151.91379310344828" y="539.4689655172414" type="curve" smooth="yes"/>
      <point x="151.91379310344828" y="575.0896551724138"/>
      <point x="130.09310344827585" y="604.4344827586207"/>
      <point x="86.42068965517242" y="604.4344827586207" type="curve" smooth="yes"/>
      <point x="42.36551724137931" y="604.4344827586207"/>
      <point x="14.889655172413793" y="575.0310344827587"/>
      <point x="14.889655172413793" y="526.8137931034483" type="curve" smooth="yes"/>
      <point x="14.889655172413793" y="459.08965517241376"/>
      <point x="65.1103448275862" y="425.19310344827585"/>
    </contour>
    <contour>
      <point x="584.0827586206896" y="68.90689655172413" type="line"/>
      <point x="591.2310344827586" y="70.52758620689654" type="line"/>
      <point x="591.2310344827586" y="557.5862068965517" type="line"/>
      <point x="686.4068965517242" y="557.5862068965517" type="line"/>
      <point x="650.4724137931034" y="622.0" type="line"/>
      <point x="585.2206896551724" y="622.0" type="line"/>
      <point x="578.6586206896551" y="672.448275862069" type="line"/>
      <point x="524.3379310344827" y="707.3103448275862" type="line"/>
      <point x="518.4758620689655" y="705.0689655172414" type="line"/>
      <point x="518.4758620689655" y="174.31724137931036" type="line"/>
      <point x="533.151724137931" y="177.37241379310345" type="line"/>
      <point x="506.7758620689655" y="251.4241379310345"/>
      <point x="466.43793103448274" y="300.748275862069"/>
      <point x="418.3137931034483" y="337.00344827586207" type="curve"/>
      <point x="410.5137931034482" y="245.9103448275862" type="line"/>
      <point x="460.448275862069" y="213.54482758620688"/>
      <point x="498.85172413793106" y="168.40689655172415"/>
      <point x="530.696551724138" y="105.6" type="curve"/>
    </contour>
  </outline>
</glyph>
<glyph name="lVocalic-beng" format="2">
  <advance width="460.403448275862"/>
  <unicode hex="098C"/>
  <anchor x="350.7379310344827" y="557.5862068965517" name="top"/>
  <anchor x="229.75862068965517" y="0.0" name="vedic"/>
  <outline>
    <contour>
      <point x="262.0103448275862" y="1.2413793103448256" type="line"/>
      <point x="347.1275862068965" y="18.89655172413793"/>
      <point x="444.0310344827587" y="111.84137931034482"/>
      <point x="444.0310344827587" y="275.49655172413793" type="curve" smooth="yes"/>
      <point x="444.0310344827587" y="415.42758620689654"/>
      <point x="381.0" y="471.4413793103448"/>
      <point x="249.75172413793103" y="506.1310344827586" type="curve" smooth="yes"/>
      <point x="171.41379310344828" y="527.1758620689656"/>
      <point x="119.46206896551725" y="542.0999999999999"/>
      <point x="119.46206896551725" y="616.8275862068965" type="curve" smooth="yes"/>
      <point x="119.46206896551725" y="646.3551724137931"/>
      <point x="126.25862068965517" y="671.3793103448276"/>
      <point x="136.8793103448276" y="698.6206896551724" type="curve"/>
      <point x="91.31724137931033" y="713.8620689655172" type="line"/>
      <point x="73.97241379310346" y="678.4241379310346"/>
      <point x="57.58620689655174" y="631.1586206896551"/>
      <point x="57.58620689655174" y="578.6379310344827" type="curve" smooth="yes"/>
      <point x="57.58620689655174" y="466.40000000000003"/>
      <point x="120.87241379310343" y="427.9172413793104"/>
      <point x="230.0137931034483" y="400.7586206896552" type="curve" smooth="yes"/>
      <point x="327.67241379310343" y="376.1275862068966"/>
      <point x="384.8689655172414" y="357.9206896551724"/>
      <point x="384.8689655172414" y="250.42413793103447" type="curve" smooth="yes"/>
      <point x="384.8689655172414" y="177.3206896551724"/>
      <point x="351.21379310344827" y="114.50689655172414"/>
      <point x="302.41379310344826" y="104.15172413793104" type="curve"/>
      <point x="342.11379310344824" y="79.79310344827586" type="line"/>
      <point x="342.67931034482757" y="205.82758620689654"/>
      <point x="289.40000000000003" y="321.2068965517241"/>
      <point x="177.12758620689655" y="321.2068965517241" type="curve" smooth="yes"/>
      <point x="82.8896551724138" y="321.2068965517241"/>
      <point x="36.41724137931035" y="247.5241379310345"/>
      <point x="36.41724137931035" y="163.37241379310345" type="curve" smooth="yes"/>
      <point x="36.41724137931035" y="67.26206896551724"/>
      <point x="82.82413793103447" y="17.379310344827587"/>
      <point x="141.91379310344826" y="17.379310344827587" type="curve" smooth="yes"/>
      <point x="190.58275862068965" y="17.379310344827587"/>
      <point x="212.07931034482758" y="53.179310344827584"/>
      <point x="212.07931034482758" y="95.06896551724138" type="curve" smooth="yes"/>
      <point x="212.07931034482758" y="138.4689655172414"/>
      <point x="184.98275862068965" y="166.75862068965517"/>
      <point x="146.7448275862069" y="166.75862068965517" type="curve" smooth="yes"/>
      <point x="113.61724137931036" y="166.75862068965517"/>
      <point x="85.51034482758621" y="141.27586206896552"/>
      <point x="85.83103448275862" y="108.93103448275862" type="curve"/>
      <point x="131.82758620689654" y="106.50689655172414" type="line"/>
      <point x="113.7448275862069" y="114.58620689655173"/>
      <point x="100.05172413793103" y="133.7793103448276"/>
      <point x="100.05172413793103" y="167.10344827586206" type="curve" smooth="yes"/>
      <point x="100.05172413793103" y="204.21724137931037"/>
      <point x="123.88620689655173" y="234.24137931034483"/>
      <point x="163.26206896551722" y="234.24137931034483" type="curve" smooth="yes"/>
      <point x="234.45862068965516" y="234.24137931034483"/>
      <point x="258.8965517241379" y="138.57586206896553"/>
      <point x="258.8965517241379" y="53.758620689655174" type="curve" smooth="yes"/>
      <point x="258.8965517241379" y="37.43448275862069"/>
      <point x="258.1620689655172" y="21.675862068965515"/>
      <point x="255.97586206896554" y="5.862068965517242" type="curve"/>
    </contour>
  </outline>
</glyph>
<glyph name="e-beng" format="2">
  <advance width="570.2931034482759"/>
  <unicode hex="098F"/>
  <anchor x="510.6275862068966" y="0.0" name="bottom"/>
  <anchor x="510.6275862068966" y="-1.9655172413793105" name="bottom.rvocalic"/>
  <anchor x="493.9586206896552" y="7.241379310344827" name="bottom.virama"/>
  <anchor x="429.0931034482759" y="557.5862068965517" name="top"/>
  <anchor x="432.0931034482759" y="557.5862068965517" name="topright"/>
  <anchor x="284.77931034482754" y="0.0" name="vedic"/>
  <outline>
    <contour>
      <point x="501.3827586206897" y="-22.93103448275862" type="line"/>
      <point x="509.13103448275865" y="-21.310344827586206" type="line"/>
      <point x="509.13103448275865" y="497.9896551724138" type="line" smooth="yes"/>
      <point x="509.13103448275865" y="579.4965517241379"/>
      <point x="464.95517241379304" y="632.6206896551724"/>
      <point x="388.951724137931" y="632.6206896551724" type="curve" smooth="yes"/>
      <point x="276.39310344827584" y="632.6206896551724"/>
      <point x="173.5344827586207" y="506.9310344827586"/>
      <point x="173.5344827586207" y="386.7586206896552" type="curve" smooth="yes"/>
      <point x="173.5344827586207" y="307.0344827586207"/>
      <point x="221.6862068965517" y="263.9310344827586"/>
      <point x="279.4379310344828" y="262.55172413793105" type="curve" smooth="yes"/>
      <point x="340.748275862069" y="261.17241379310343"/>
      <point x="371.91034482758624" y="302.36896551724135"/>
      <point x="371.91034482758624" y="352.86206896551727" type="curve" smooth="yes"/>
      <point x="371.91034482758624" y="398.44827586206895"/>
      <point x="345.66551724137935" y="434.2068965517241"/>
      <point x="302.25172413793103" y="434.2068965517241" type="curve" smooth="yes"/>
      <point x="283.32068965517243" y="434.2068965517241"/>
      <point x="263.2931034482759" y="424.9655172413793"/>
      <point x="252.33793103448278" y="404.2068965517241" type="curve"/>
      <point x="290.8068965517241" y="400.7241379310345" type="line"/>
      <point x="291.44827586206895" y="475.5034482758621"/>
      <point x="348.59655172413795" y="562.1379310344828"/>
      <point x="397.0689655172414" y="562.1379310344828" type="curve" smooth="yes"/>
      <point x="426.51724137931035" y="562.1379310344828"/>
      <point x="435.3206896551724" y="535.9655172413793"/>
      <point x="435.3206896551724" y="502.0689655172414" type="curve" smooth="yes"/>
      <point x="435.3206896551724" y="216.0344827586207" type="line" smooth="yes"/>
      <point x="435.3206896551724" y="176.2965517241379"/>
      <point x="438.8827586206897" y="124.9448275862069"/>
      <point x="444.63103448275865" y="89.13793103448276" type="curve"/>
      <point x="411.12068965517244" y="159.9793103448276"/>
      <point x="368.55862068965513" y="177.26206896551727"/>
      <point x="318.6241379310345" y="177.26206896551727" type="curve" smooth="yes"/>
      <point x="275.3586206896552" y="177.26206896551727"/>
      <point x="246.29655172413794" y="170.0793103448276"/>
      <point x="192.89655172413794" y="170.0793103448276" type="curve" smooth="yes"/>
      <point x="131.96551724137933" y="170.0793103448276"/>
      <point x="88.43448275862069" y="202.54827586206898"/>
      <point x="88.43448275862069" y="286.67586206896556" type="curve" smooth="yes"/>
      <point x="88.43448275862069" y="321.8620689655172"/>
      <point x="92.51379310344826" y="351.28275862068966"/>
      <point x="98.86896551724138" y="377.7413793103449" type="curve"/>
      <point x="50.07931034482758" y="385.8103448275862" type="line"/>
      <point x="39.97586206896551" y="348.0172413793103"/>
      <point x="33.3551724137931" y="302.2413793103448"/>
      <point x="33.3551724137931" y="257.13448275862066" type="curve" smooth="yes"/>
      <point x="33.3551724137931" y="105.32758620689657"/>
      <point x="114.95862068965518" y="57.74137931034482"/>
      <point x="201.6" y="57.74137931034482" type="curve" smooth="yes"/>
      <point x="263.5448275862069" y="57.74137931034482"/>
      <point x="301.98275862068965" y="72.21379310344828"/>
      <point x="354.38275862068963" y="72.21379310344828" type="curve" smooth="yes"/>
      <point x="396.948275862069" y="72.21379310344828"/>
      <point x="424.4137931034483" y="57.813793103448276"/>
      <point x="453.2586206896551" y="9.675862068965516" type="curve"/>
    </contour>
  </outline>
</glyph>
<glyph name="ai-beng" format="2">
  <advance width="659.0137931034483"/>
  <unicode hex="0990"/>
  <anchor x="454.1206896551723" y="601.8620689655172" name="top"/>
  <anchor x="415.6793103448276" y="600.1379310344828" name="topright"/>
  <anchor x="329.1965517241379" y="0.0" name="vedic"/>
  <anchor x="510.6275862068966" y="0.0" name="bottom"/>
  <anchor x="510.6275862068966" y="-1.9655172413793105" name="bottom.rvocalic"/>
  <anchor x="493.9586206896552" y="7.241379310344827" name="bottom.virama"/>
  <outline>
    <contour>
      <point x="495.0034482758621" y="316.9310344827586" type="line"/>
      <point x="553.1448275862069" y="375.3724137931035"/>
      <point x="603.9724137931034" y="451.2620689655173"/>
      <point x="603.9724137931034" y="567.2034482758621" type="curve" smooth="yes"/>
      <point x="603.9724137931034" y="735.4758620689655"/>
      <point x="484.36551724137934" y="763.3689655172413"/>
      <point x="370.25517241379316" y="783.0275862068966" type="curve" smooth="yes"/>
      <point x="274.0241379310345" y="799.696551724138"/>
      <point x="200.75862068965517" y="814.3655172413794"/>
      <point x="200.75862068965517" y="900.7689655172414" type="curve" smooth="yes"/>
      <point x="200.75862068965517" y="930.0551724137931"/>
      <point x="207.64482758620687" y="960.8827586206896"/>
      <point x="218.37241379310345" y="985.8758620689655" type="curve"/>
      <point x="172.03793103448277" y="1002.1103448275862" type="line"/>
      <point x="154.35517241379313" y="961.8827586206896"/>
      <point x="143.0758620689655" y="919.6620689655174"/>
      <point x="143.0758620689655" y="874.6413793103449" type="curve" smooth="yes"/>
      <point x="143.0758620689655" y="739.7896551724137"/>
      <point x="243.77586206896555" y="711.1793103448275"/>
      <point x="357.88620689655176" y="692.951724137931" type="curve" smooth="yes"/>
      <point x="466.51724137931035" y="676.2206896551724"/>
      <point x="551.4482758620688" y="663.2206896551725"/>
      <point x="551.4482758620688" y="554.7655172413793" type="curve" smooth="yes"/>
      <point x="551.4482758620688" y="485.3724137931034"/>
      <point x="524.4689655172415" y="438.5793103448276"/>
      <point x="473.9068965517241" y="394.68275862068964" type="curve"/>
    </contour>
    <component base="e-beng"/>
  </outline>
</glyph>
<glyph name="o-beng" format="2">
  <advance width="609.0793103448276"/>
  <unicode hex="0993"/>
  <anchor x="465.2068965517241" y="18.579310344827586" name="bottom"/>
  <anchor x="513.3620689655172" y="-0.3793103448275862" name="bottom.rakaar"/>
  <anchor x="452.56896551724134" y="42.76551724137931" name="bottom.rvocalic"/>
  <anchor x="401.2413793103448" y="10.931034482758621" name="bottom.virama"/>
  <anchor x="399.9862068965517" y="543.3724137931034" name="top"/>
  <anchor x="402.28620689655173" y="543.3724137931034" name="topright"/>
  <anchor x="304.2655172413793" y="0.0" name="vedic"/>
  <outline>
    <contour>
      <point x="375.4689655172414" y="40.103448275862064" type="curve" smooth="yes"/>
      <point x="498.60689655172416" y="40.103448275862064"/>
      <point x="569.7103448275863" y="120.00344827586207"/>
      <point x="569.7103448275863" y="228.12413793103445" type="curve" smooth="yes"/>
      <point x="569.7103448275863" y="343.1379310344828"/>
      <point x="475.18620689655177" y="420.4068965517241"/>
      <point x="413.46551724137936" y="420.4068965517241" type="curve" smooth="yes"/>
      <point x="374.43793103448274" y="420.4068965517241"/>
      <point x="343.60689655172416" y="394.6551724137931"/>
      <point x="343.60689655172416" y="345.3310344827586" type="curve" smooth="yes"/>
      <point x="343.60689655172416" y="297.9310344827586"/>
      <point x="371.58620689655174" y="266.6413793103448"/>
      <point x="416.9137931034483" y="266.6413793103448" type="curve" smooth="yes"/>
      <point x="488.56551724137927" y="266.6413793103448"/>
      <point x="547.7862068965517" y="375.7551724137931"/>
      <point x="547.7862068965517" y="475.26206896551724" type="curve" smooth="yes"/>
      <point x="547.7862068965517" y="566.9862068965517"/>
      <point x="490.5241379310345" y="630.3793103448276"/>
      <point x="389.3344827586207" y="630.3793103448276" type="curve" smooth="yes"/>
      <point x="265.3344827586207" y="630.3793103448276"/>
      <point x="159.19310344827588" y="529.4965517241379"/>
      <point x="159.19310344827588" y="419.6275862068966" type="curve" smooth="yes"/>
      <point x="159.19310344827588" y="350.35517241379307"/>
      <point x="197.9448275862069" y="314.6310344827586"/>
      <point x="245.43793103448277" y="314.6310344827586" type="curve" smooth="yes"/>
      <point x="292.50689655172414" y="314.6310344827586"/>
      <point x="321.8689655172414" y="345.7241379310345"/>
      <point x="321.8689655172414" y="397.3379310344827" type="curve" smooth="yes"/>
      <point x="321.8689655172414" y="436.1965517241379"/>
      <point x="298.3724137931034" y="465.65862068965515"/>
      <point x="266.2103448275862" y="465.65862068965515" type="curve" smooth="yes"/>
      <point x="244.36551724137934" y="465.65862068965515"/>
      <point x="226.07241379310346" y="455.69310344827585"/>
      <point x="218.39310344827587" y="440.9448275862069" type="curve"/>
      <point x="269.5137931034483" y="420.4413793103448" type="line"/>
      <point x="276.84482758620686" y="504.4896551724138"/>
      <point x="344.4862068965517" y="565.6482758620689"/>
      <point x="414.09655172413795" y="565.6482758620689" type="curve" smooth="yes"/>
      <point x="454.7586206896551" y="565.6482758620689"/>
      <point x="473.796551724138" y="540.7448275862068"/>
      <point x="473.796551724138" y="501.8827586206897" type="curve" smooth="yes"/>
      <point x="473.796551724138" y="458.1344827586207"/>
      <point x="450.03793103448277" y="418.59999999999997"/>
      <point x="409.72068965517246" y="394.8413793103448" type="curve"/>
      <point x="426.2551724137931" y="339.7310344827586" type="line"/>
      <point x="460.8344827586207" y="340.53793103448277"/>
      <point x="507.2551724137931" y="313.19310344827585"/>
      <point x="507.2551724137931" y="254.76896551724138" type="curve" smooth="yes"/>
      <point x="507.2551724137931" y="189.7551724137931"/>
      <point x="458.6586206896552" y="149.12413793103448"/>
      <point x="375.66551724137935" y="149.12413793103448" type="curve" smooth="yes"/>
      <point x="242.60344827586204" y="149.12413793103448"/>
      <point x="137.54827586206898" y="239.95172413793105"/>
      <point x="67.32758620689656" y="546.0379310344828" type="curve"/>
      <point x="17.90344827586207" y="533.8413793103448" type="line"/>
      <point x="81.75172413793103" y="185.91724137931035"/>
      <point x="209.7655172413793" y="40.103448275862064"/>
    </contour>
  </outline>
</glyph>
<glyph name="au-beng" format="2">
  <advance width="678.744827586207"/>
  <unicode hex="0994"/>
  <anchor x="546.6206896551724" y="19.137931034482758" name="bottom"/>
  <anchor x="601.448275862069" y="-1.0" name="bottom.rakaar"/>
  <anchor x="526.9655172413793" y="44.37931034482759" name="bottom.rvocalic"/>
  <anchor x="465.1034482758621" y="11.551724137931034" name="bottom.virama"/>
  <anchor x="570.9655172413793" y="601.8620689655172" name="top"/>
  <anchor x="511.86206896551727" y="600.1379310344828" name="topright"/>
  <anchor x="339.3724137931035" y="0.0" name="vedic"/>
  <outline>
    <contour>
      <point x="514.7344827586207" y="318.9793103448276" type="line"/>
      <point x="573.3103448275862" y="377.4206896551724"/>
      <point x="623.703448275862" y="452.3793103448276"/>
      <point x="623.703448275862" y="567.6896551724137" type="curve" smooth="yes"/>
      <point x="623.703448275862" y="734.9758620689655"/>
      <point x="503.9620689655173" y="763.4827586206897"/>
      <point x="390.23448275862074" y="783.0275862068966" type="curve" smooth="yes"/>
      <point x="298.65862068965515" y="798.9517241379311"/>
      <point x="220.92413793103447" y="812.8758620689655"/>
      <point x="220.92413793103447" y="900.7689655172414" type="curve" smooth="yes"/>
      <point x="220.92413793103447" y="930.0551724137931"/>
      <point x="227.8103448275862" y="960.8827586206896"/>
      <point x="238.10344827586206" y="985.8758620689655" type="curve"/>
      <point x="191.76896551724138" y="1002.1103448275862" type="line"/>
      <point x="174.52068965517245" y="961.8827586206896"/>
      <point x="163.24137931034483" y="919.6620689655174"/>
      <point x="163.24137931034483" y="874.6413793103449" type="curve" smooth="yes"/>
      <point x="163.24137931034483" y="739.7896551724137"/>
      <point x="263.9413793103448" y="711.1793103448275"/>
      <point x="377.93793103448274" y="692.951724137931" type="curve" smooth="yes"/>
      <point x="482.4" y="676.4793103448276"/>
      <point x="571.6137931034483" y="664.5241379310345"/>
      <point x="571.6137931034483" y="554.393103448276" type="curve" smooth="yes"/>
      <point x="571.6137931034483" y="482.93103448275866"/>
      <point x="544.3344827586207" y="437.11034482758623"/>
      <point x="493.95862068965516" y="393.0275862068966" type="curve"/>
    </contour>
    <component base="o-beng"/>
  </outline>
</glyph>
<glyph name="ka-beng" format="2">
  <advance width="624.9999999999999"/>
  <unicode hex="0995"/>
  <anchor x="386.8931034482759" y="32.48275862068966" name="bottom"/>
  <anchor x="388.8551724137931" y="64.91034482758621" name="bottom.rakaar"/>
  <anchor x="391.75172413793103" y="9.882758620689655" name="bottom.rvocalic"/>
  <anchor x="378.4586206896552" y="0.4137931034482758" name="bottom.virama"/>
  <anchor x="176.89655172413794" y="56.2551724137931" name="nukta"/>
  <anchor x="373.0206896551724" y="578.0689655172414" name="top"/>
  <anchor x="374.7" y="570.6206896551724" name="topright"/>
  <anchor x="311.99999999999994" y="0.0" name="vedic"/>
  <outline>
    <contour>
      <point x="384.0034482758621" y="-19.82758620689655" type="line"/>
      <point x="391.75172413793103" y="-18.20689655172414" type="line"/>
      <point x="391.75172413793103" y="428.1275862068965" type="line"/>
      <point x="376.4758620689655" y="403.0344827586207" type="line"/>
      <point x="381.39655172413796" y="404.7689655172414"/>
      <point x="387.16551724137935" y="405.7689655172414"/>
      <point x="391.82068965517243" y="405.7689655172414" type="curve" smooth="yes"/>
      <point x="486.751724137931" y="405.7689655172414"/>
      <point x="551.2275862068966" y="344.051724137931"/>
      <point x="551.2275862068966" y="275.6689655172414" type="curve" smooth="yes"/>
      <point x="551.2275862068966" y="259.9689655172414"/>
      <point x="548.548275862069" y="250.34827586206896"/>
      <point x="540.7793103448276" y="237.99310344827586" type="curve"/>
      <point x="560.5758620689654" y="235.22758620689655" type="line"/>
      <point x="555.3103448275862" y="278.33103448275864"/>
      <point x="532.1931034482759" y="298.848275862069"/>
      <point x="495.20000000000005" y="298.848275862069" type="curve" smooth="yes"/>
      <point x="454.61724137931037" y="298.848275862069"/>
      <point x="427.9793103448276" y="267.8137931034483"/>
      <point x="427.9793103448276" y="223.79310344827587" type="curve" smooth="yes"/>
      <point x="427.9793103448276" y="180.53793103448274"/>
      <point x="453.11034482758623" y="141.48275862068968"/>
      <point x="503.91379310344826" y="141.48275862068968" type="curve" smooth="yes"/>
      <point x="564.4241379310346" y="141.48275862068968"/>
      <point x="600.1448275862068" y="196.23793103448273"/>
      <point x="600.1448275862068" y="279.13793103448273" type="curve" smooth="yes"/>
      <point x="600.1448275862068" y="402.06896551724134"/>
      <point x="513.7793103448275" y="505.0103448275862"/>
      <point x="378.79655172413794" y="516.5724137931035" type="curve"/>
      <point x="391.75172413793103" y="494.41379310344826" type="line"/>
      <point x="391.75172413793103" y="557.5862068965517" type="line"/>
      <point x="654.4896551724138" y="557.5862068965517" type="line"/>
      <point x="619.0413793103448" y="622.0" type="line"/>
      <point x="-29.924137931034483" y="622.0" type="line"/>
      <point x="5.710344827586207" y="557.5862068965517" type="line"/>
      <point x="317.9413793103448" y="557.5862068965517" type="line"/>
      <point x="317.9413793103448" y="480.7586206896552" type="line"/>
      <point x="326.4241379310345" y="518.7793103448275" type="line"/>
      <point x="213.43793103448277" y="476.24827586206897"/>
      <point x="106.17241379310343" y="418.13793103448273"/>
      <point x="11.234482758620688" y="346.5310344827587" type="curve"/>
      <point x="69.1551724137931" y="214.8896551724138" type="line"/>
      <point x="182.02758620689653" y="190.93793103448274"/>
      <point x="270.90000000000003" y="128.37241379310345"/>
      <point x="330.348275862069" y="16.86551724137931" type="curve"/>
    </contour>
    <contour>
      <point x="317.9413793103448" y="85.14827586206897" type="line"/>
      <point x="332.1827586206897" y="89.38275862068966" type="line"/>
      <point x="289.03448275862064" y="207.39310344827587"/>
      <point x="199.57931034482758" y="273.27241379310345"/>
      <point x="117.98275862068967" y="300.11724137931037" type="curve"/>
      <point x="124.16896551724139" y="280.86551724137934" type="line"/>
      <point x="184.5448275862069" y="332.6103448275862"/>
      <point x="265.32758620689657" y="372.551724137931"/>
      <point x="331.11379310344824" y="400.1931034482759" type="curve"/>
      <point x="317.9413793103448" y="433.37931034482756" type="line"/>
    </contour>
  </outline>
</glyph>
<glyph name="kha-beng" format="2">
  <advance width="540.0344827586207"/>
  <unicode hex="0996"/>
  <anchor x="469.0379310344828" y="32.48275862068966" name="bottom"/>
  <anchor x="474.348275862069" y="80.55172413793103" name="bottom.rakaar"/>
  <anchor x="474.348275862069" y="10.510344827586206" name="bottom.rvocalic"/>
  <anchor x="456.8103448275862" y="6.186206896551724" name="bottom.virama"/>
  <anchor x="451.50344827586207" y="568.0689655172414" name="top"/>
  <anchor x="435.78965517241375" y="559.448275862069" name="topright"/>
  <anchor x="254.02758620689653" y="0.0" name="vedic"/>
  <outline>
    <contour>
      <point x="467.30000000000007" y="-19.82758620689655" type="line"/>
      <point x="474.348275862069" y="-18.20689655172414" type="line"/>
      <point x="474.348275862069" y="557.5862068965517" type="line"/>
      <point x="569.9586206896552" y="557.5862068965517" type="line"/>
      <point x="534.0241379310345" y="622.0" type="line"/>
      <point x="468.7724137931034" y="622.0" type="line"/>
      <point x="462.02413793103443" y="672.448275862069" type="line"/>
      <point x="406.8344827586207" y="707.3103448275862" type="line"/>
      <point x="400.9724137931035" y="705.0689655172414" type="line"/>
      <point x="400.9724137931035" y="85.88275862068966" type="line"/>
      <point x="413.98275862068965" y="93.33103448275861" type="line"/>
      <point x="372.8137931034483" y="198.37241379310342"/>
      <point x="298.15517241379314" y="260.8137931034483"/>
      <point x="219.3896551724138" y="291.3068965517241" type="curve"/>
      <point x="226.88965517241377" y="266.2931034482759" type="line"/>
      <point x="313.6103448275862" y="288.2689655172414"/>
      <point x="357.9344827586207" y="341.7689655172414"/>
      <point x="357.9344827586207" y="435.4172413793104" type="curve" smooth="yes"/>
      <point x="357.9344827586207" y="531.8068965517242"/>
      <point x="300.36551724137934" y="591.9655172413793"/>
      <point x="252.16551724137935" y="628.3793103448276" type="curve"/>
      <point x="214.4103448275862" y="550.5137931034483"/>
      <point x="169.17586206896553" y="501.848275862069"/>
      <point x="121.14482758620692" y="501.848275862069" type="curve" smooth="yes"/>
      <point x="111.13103448275862" y="501.848275862069"/>
      <point x="97.88620689655173" y="503.7931034482759"/>
      <point x="91.96551724137932" y="507.7931034482759" type="curve"/>
      <point x="129.11724137931034" y="474.7586206896552" type="line"/>
      <point x="145.99310344827586" y="491.37931034482756"/>
      <point x="151.91379310344828" y="506.88620689655176"/>
      <point x="151.91379310344828" y="533.8620689655172" type="curve" smooth="yes"/>
      <point x="151.91379310344828" y="569.4827586206897"/>
      <point x="130.09310344827585" y="598.8275862068965"/>
      <point x="86.42068965517242" y="598.8275862068965" type="curve" smooth="yes"/>
      <point x="42.36551724137931" y="598.8275862068965"/>
      <point x="14.889655172413793" y="568.9896551724139"/>
      <point x="14.889655172413793" y="521.2068965517242" type="curve" smooth="yes"/>
      <point x="14.889655172413793" y="449.85862068965514"/>
      <point x="65.51379310344828" y="414.19310344827585"/>
      <point x="121.22413793103448" y="414.19310344827585" type="curve" smooth="yes"/>
      <point x="184.38620689655173" y="414.19310344827585"/>
      <point x="247.8793103448276" y="452.4793103448276"/>
      <point x="291.7758620689655" y="537.444827586207" type="curve"/>
      <point x="254.52068965517242" y="536.8689655172413" type="line"/>
      <point x="273.0551724137931" y="517.6068965517242"/>
      <point x="287.3689655172414" y="494.3068965517241"/>
      <point x="287.3689655172414" y="459.4068965517241" type="curve" smooth="yes"/>
      <point x="287.3689655172414" y="377.0655172413793"/>
      <point x="204.95172413793102" y="346.06206896551726"/>
      <point x="99.29310344827587" y="343.86551724137934" type="curve"/>
      <point x="141.90344827586208" y="216.49655172413793" type="line"/>
      <point x="260.35517241379307" y="199.80689655172412"/>
      <point x="352.32758620689657" y="131.69310344827585"/>
      <point x="412.41379310344826" y="19.841379310344827" type="curve"/>
    </contour>
  </outline>
</glyph>
<glyph name="ga-beng" format="2">
  <advance width="536.3793103448277"/>
  <unicode hex="0997"/>
  <anchor x="458.655172413793" y="62.703448275862065" name="bottom"/>
  <anchor x="471.1275862068966" y="-10.448275862068966" name="bottom.rakaar"/>
  <anchor x="471.1275862068966" y="-2.6206896551724137" name="bottom.rvocalic"/>
  <anchor x="441.3379310344828" y="7.241379310344827" name="bottom.virama"/>
  <anchor x="449.151724137931" y="568.0689655172414" name="top"/>
  <anchor x="433.43793103448274" y="559.448275862069" name="topright"/>
  <anchor x="267.78275862068966" y="0.0" name="vedic"/>
  <outline>
    <contour>
      <point x="464.7586206896552" y="-31.20689655172414" type="line"/>
      <point x="471.1275862068966" y="-29.586206896551722" type="line"/>
      <point x="471.1275862068966" y="557.5862068965517" type="line"/>
      <point x="566.3034482758621" y="557.5862068965517" type="line"/>
      <point x="530.3689655172413" y="622.0" type="line"/>
      <point x="465.1172413793103" y="622.0" type="line"/>
      <point x="458.55517241379306" y="672.448275862069" type="line"/>
      <point x="404.2344827586207" y="707.3103448275862" type="line"/>
      <point x="398.3724137931034" y="705.0689655172414" type="line"/>
      <point x="398.3724137931034" y="584.948275862069" type="line" smooth="yes"/>
      <point x="398.3724137931034" y="528.7103448275863"/>
      <point x="401.65517241379314" y="475.5827586206897"/>
      <point x="406.17931034482757" y="430.7793103448276" type="curve"/>
      <point x="416.3034482758621" y="428.7931034482759" type="line"/>
      <point x="363.5206896551725" y="571.3241379310344"/>
      <point x="289.9241379310345" y="632.1034482758621"/>
      <point x="205.7551724137931" y="632.1034482758621" type="curve" smooth="yes"/>
      <point x="126.15862068965518" y="632.1034482758621"/>
      <point x="48.44137931034483" y="572.8758620689655"/>
      <point x="-0.013793103448275446" y="436.7344827586207" type="curve"/>
      <point x="93.73793103448276" y="364.0965517241379" type="line"/>
      <point x="118.2448275862069" y="394.1344827586207"/>
      <point x="152.59310344827585" y="415.0827586206896"/>
      <point x="185.79655172413794" y="415.0827586206896" type="curve" smooth="yes"/>
      <point x="217.52758620689656" y="415.0827586206896"/>
      <point x="233.9931034482759" y="396.3379310344828"/>
      <point x="233.9931034482759" y="367.49310344827586" type="curve" smooth="yes"/>
      <point x="233.9931034482759" y="321.76206896551724"/>
      <point x="186.73793103448276" y="286.6275862068965"/>
      <point x="106.5448275862069" y="255.42758620689656" type="curve"/>
      <point x="170.07931034482755" y="148.8275862068965" type="line"/>
      <point x="278.5689655172414" y="207.14827586206894"/>
      <point x="315.8862068965517" y="274.3379310344827"/>
      <point x="315.8862068965517" y="350.64137931034486" type="curve" smooth="yes"/>
      <point x="315.8862068965517" y="422.28620689655173"/>
      <point x="273.62068965517244" y="477.803448275862"/>
      <point x="202.51379310344828" y="477.803448275862" type="curve" smooth="yes"/>
      <point x="162.07241379310346" y="477.803448275862"/>
      <point x="130.44482758620688" y="463.4689655172414"/>
      <point x="109.67241379310344" y="444.52068965517236" type="curve"/>
      <point x="125.41724137931035" y="431.2758620689655" type="line"/>
      <point x="143.4655172413793" y="501.7689655172414"/>
      <point x="187.5344827586207" y="541.5620689655173"/>
      <point x="234.27586206896552" y="541.5620689655173" type="curve" smooth="yes"/>
      <point x="291.9103448275862" y="541.5620689655173"/>
      <point x="350.3551724137931" y="492.40344827586205"/>
      <point x="407.32068965517243" y="338.85172413793106" type="curve"/>
      <point x="397.50344827586207" y="409.3241379310345" type="line"/>
      <point x="397.50344827586207" y="1.7586206896551724" type="line"/>
    </contour>
  </outline>
</glyph>
<glyph name="gha-beng" format="2">
  <advance width="468.8275862068965"/>
  <unicode hex="0998"/>
  <anchor x="398.46896551724143" y="32.48275862068966" name="bottom"/>
  <anchor x="400.4310344827586" y="80.55172413793103" name="bottom.rakaar"/>
  <anchor x="403.32758620689657" y="8.579310344827586" name="bottom.rvocalic"/>
  <anchor x="387.9862068965517" y="6.186206896551724" name="bottom.virama"/>
  <anchor x="384.59655172413795" y="578.0689655172414" name="top"/>
  <anchor x="386.2758620689656" y="570.6206896551724" name="topright"/>
  <anchor x="234.19655172413792" y="0.0" name="vedic"/>
  <outline>
    <contour>
      <point x="395.57931034482755" y="-19.82758620689655" type="line"/>
      <point x="403.32758620689657" y="-18.20689655172414" type="line"/>
      <point x="403.32758620689657" y="557.5862068965517" type="line"/>
      <point x="498.31724137931036" y="557.5862068965517" type="line"/>
      <point x="462.68275862068964" y="622.0" type="line"/>
      <point x="-29.924137931034483" y="622.0" type="line"/>
      <point x="5.710344827586207" y="557.5862068965517" type="line"/>
      <point x="329.51724137931035" y="557.5862068965517" type="line"/>
      <point x="329.51724137931035" y="84.21724137931035" type="line"/>
      <point x="344.19310344827585" y="87.70689655172414" type="line"/>
      <point x="301.0551724137931" y="204.64137931034483"/>
      <point x="215.84137931034482" y="268.07931034482755"/>
      <point x="121.92413793103448" y="299.10344827586204" type="curve"/>
      <point x="128.08620689655172" y="270.9310344827586" type="line"/>
      <point x="179.24137931034483" y="311.3206896551724"/>
      <point x="241.96551724137927" y="345.57931034482755"/>
      <point x="302.04482758620696" y="376.5931034482758" type="curve"/>
      <point x="255.8137931034483" y="468.13793103448273" type="line"/>
      <point x="233.14137931034483" y="449.0724137931034"/>
      <point x="211.7758620689655" y="440.3586206896552"/>
      <point x="187.94827586206898" y="440.3586206896552" type="curve" smooth="yes"/>
      <point x="155.14827586206894" y="440.3586206896552"/>
      <point x="132.75172413793103" y="461.43793103448274"/>
      <point x="132.75172413793103" y="494.44482758620694" type="curve" smooth="yes"/>
      <point x="132.75172413793103" y="534.1793103448276"/>
      <point x="159.2551724137931" y="557.5862068965517"/>
      <point x="204.16206896551725" y="568.2068965517242" type="curve"/>
      <point x="107.50344827586207" y="607.5034482758621" type="line"/>
      <point x="66.04827586206896" y="596.7862068965517"/>
      <point x="23.089655172413792" y="564.7068965517241"/>
      <point x="23.089655172413792" y="505.051724137931" type="curve" smooth="yes"/>
      <point x="23.089655172413792" y="433.3793103448276"/>
      <point x="84.04827586206896" y="399.92413793103447"/>
      <point x="145.2241379310345" y="393.5793103448276" type="curve"/>
      <point x="144.6241379310345" y="409.55172413793105" type="line"/>
      <point x="105.36206896551725" y="389.1724137931035"/>
      <point x="64.62413793103448" y="365.751724137931"/>
      <point x="26.858620689655176" y="338.68275862068964" type="curve"/>
      <point x="81.47586206896553" y="213.13103448275862" type="line"/>
      <point x="192.2793103448276" y="190.4103448275862"/>
      <point x="283.95517241379315" y="127.81379310344826"/>
      <point x="341.9241379310345" y="16.679310344827588" type="curve"/>
    </contour>
  </outline>
</glyph>
<glyph name="nga-beng" format="2">
  <advance width="522.4068965517242"/>
  <unicode hex="0999"/>
  <anchor x="360.2689655172414" y="11.399999999999999" name="bottom"/>
  <anchor x="461.1" y="-12.986206896551723" name="bottom.rakaar"/>
  <anchor x="378.8793103448276" y="-2.0965517241379303" name="bottom.rvocalic"/>
  <anchor x="344.72413793103453" y="0.0" name="bottom.virama"/>
  <anchor x="313.52758620689656" y="577.6344827586207" name="top"/>
  <anchor x="304.3689655172414" y="570.6206896551724" name="topright"/>
  <anchor x="260.7034482758621" y="0.0" name="vedic"/>
  <outline>
    <contour>
      <point x="314.39310344827584" y="16.572413793103447" type="curve" smooth="yes"/>
      <point x="441.7068965517241" y="16.572413793103447"/>
      <point x="504.44482758620694" y="111.05172413793105"/>
      <point x="504.44482758620694" y="247.2793103448276" type="curve" smooth="yes"/>
      <point x="504.44482758620694" y="331.451724137931"/>
      <point x="469.3586206896552" y="399.9896551724138"/>
      <point x="430.68275862068964" y="446.0241379310345" type="curve"/>
      <point x="390.62413793103445" y="369.0896551724138"/>
      <point x="330.6034482758621" y="316.5517241379311"/>
      <point x="285.3724137931035" y="316.5517241379311" type="curve" smooth="yes"/>
      <point x="268.8862068965517" y="316.5517241379311"/>
      <point x="258.19310344827585" y="326.28620689655173"/>
      <point x="258.19310344827585" y="346.14827586206894" type="curve" smooth="yes"/>
      <point x="258.19310344827585" y="464.3896551724138" type="line" smooth="yes"/>
      <point x="258.19310344827585" y="531.0896551724138"/>
      <point x="274.82758620689657" y="569.8827586206896"/>
      <point x="309.81379310344823" y="569.8827586206896" type="curve" smooth="yes"/>
      <point x="333.36551724137934" y="569.8827586206896"/>
      <point x="348.00689655172414" y="553.8068965517242"/>
      <point x="348.00689655172414" y="527.2275862068965" type="curve" smooth="yes"/>
      <point x="348.00689655172414" y="499.6620689655173"/>
      <point x="333.2413793103448" y="472.7103448275862"/>
      <point x="288.5689655172414" y="472.7103448275862" type="curve" smooth="yes"/>
      <point x="205.46206896551726" y="472.7103448275862"/>
      <point x="173.55172413793102" y="521.4241379310345"/>
      <point x="132.4655172413793" y="622.6310344827585" type="curve"/>
      <point x="88.73793103448276" y="603.2413793103449" type="line"/>
      <point x="132.89655172413794" y="488.64137931034486"/>
      <point x="182.4758620689655" y="405.0206896551724"/>
      <point x="290.5241379310345" y="405.0206896551724" type="curve" smooth="yes"/>
      <point x="375.5931034482759" y="405.0206896551724"/>
      <point x="410.9344827586207" y="463.59655172413795"/>
      <point x="411.048275862069" y="518.8965517241379" type="curve" smooth="yes"/>
      <point x="411.1620689655172" y="583.3793103448276"/>
      <point x="376.4448275862069" y="633.2413793103449"/>
      <point x="305.89310344827584" y="633.2413793103449" type="curve" smooth="yes"/>
      <point x="231.64137931034483" y="633.2413793103449"/>
      <point x="186.88620689655173" y="573.2758620689655"/>
      <point x="186.88620689655173" y="476.9310344827586" type="curve" smooth="yes"/>
      <point x="186.88620689655173" y="337.45862068965516" type="line" smooth="yes"/>
      <point x="186.88620689655173" y="295.9137931034483"/>
      <point x="204.14137931034483" y="267.3413793103448"/>
      <point x="222.46551724137927" y="249.61724137931034" type="curve" smooth="yes"/>
      <point x="243.94137931034481" y="228.19310344827588"/>
      <point x="271.22758620689655" y="218.59310344827588"/>
      <point x="301.4068965517242" y="218.59310344827588" type="curve" smooth="yes"/>
      <point x="359.5793103448276" y="218.59310344827588"/>
      <point x="428.63793103448273" y="269.2586206896552"/>
      <point x="459.97586206896557" y="331.6034482758621" type="curve"/>
      <point x="420.5241379310345" y="343.44827586206895" type="line"/>
      <point x="436.02413793103455" y="319.0206896551724"/>
      <point x="447.1655172413793" y="289.00689655172414"/>
      <point x="447.1655172413793" y="255.0" type="curve" smooth="yes"/>
      <point x="447.1655172413793" y="174.0896551724138"/>
      <point x="395.8965517241379" y="125.60344827586206"/>
      <point x="309.42068965517245" y="125.60344827586206" type="curve" smooth="yes"/>
      <point x="178.74827586206897" y="125.60344827586206"/>
      <point x="114.14827586206896" y="229.15862068965518"/>
      <point x="58.22068965517242" y="493.2413793103448" type="curve"/>
      <point x="10.389655172413793" y="481.5758620689655" type="line"/>
      <point x="62.696551724137926" y="165.49310344827586"/>
      <point x="149.9896551724138" y="16.572413793103447"/>
    </contour>
  </outline>
</glyph>
<glyph name="ca-beng" format="2">
  <advance width="436.8793103448276"/>
  <unicode hex="099A"/>
  <anchor x="298.5655172413793" y="15.724137931034482" name="bottom"/>
  <anchor x="359.60689655172416" y="0.0" name="bottom.rakaar"/>
  <anchor x="307.69310344827585" y="9.675862068965515" name="bottom.rvocalic"/>
  <anchor x="238.96896551724134" y="30.413793103448278" name="bottom.virama"/>
  <anchor x="121.20000000000002" y="578.0689655172414" name="top"/>
  <anchor x="122.61379310344827" y="570.6206896551724" name="topright"/>
  <anchor x="218.08965517241379" y="0.0" name="vedic"/>
  <outline>
    <contour>
      <point x="195.8655172413793" y="15.482758620689655" type="curve" smooth="yes"/>
      <point x="331.3379310344827" y="15.482758620689655"/>
      <point x="406.5827586206897" y="202.09310344827583"/>
      <point x="406.5827586206897" y="311.44827586206895" type="curve" smooth="yes"/>
      <point x="406.5827586206897" y="362.18620689655177"/>
      <point x="365.13103448275865" y="397.2068965517241"/>
      <point x="340.6172413793103" y="410.44827586206895" type="curve"/>
      <point x="269.73793103448276" y="416.9655172413793"/>
      <point x="182.96206896551723" y="453.5275862068966"/>
      <point x="134.2758620689655" y="557.4137931034483" type="curve"/>
      <point x="133.0689655172414" y="479.95862068965516" type="line"/>
      <point x="164.44137931034484" y="388.2689655172414"/>
      <point x="235.11379310344827" y="322.9310344827586"/>
      <point x="338.6379310344828" y="312.8862068965517" type="curve"/>
      <point x="305.5586206896552" y="347.2551724137931" type="line"/>
      <point x="298.0896551724138" y="204.3241379310345"/>
      <point x="233.97931034482758" y="100.3344827586207"/>
      <point x="180.13793103448276" y="100.3344827586207" type="curve" smooth="yes"/>
      <point x="155.39655172413794" y="100.3344827586207"/>
      <point x="139.31034482758622" y="114.84137931034482"/>
      <point x="139.31034482758622" y="146.4758620689655" type="curve" smooth="yes"/>
      <point x="139.31034482758622" y="557.5862068965517" type="line"/>
      <point x="466.80344827586214" y="557.5862068965517" type="line"/>
      <point x="431.78965517241375" y="622.0" type="line"/>
      <point x="-29.924137931034483" y="622.0" type="line"/>
      <point x="7.444827586206896" y="557.5862068965517" type="line"/>
      <point x="65.68620689655172" y="557.5862068965517" type="line"/>
      <point x="65.68620689655172" y="143.86896551724138" type="line" smooth="yes"/>
      <point x="65.68620689655172" y="65.51379310344828"/>
      <point x="126.87241379310346" y="15.482758620689655"/>
    </contour>
  </outline>
</glyph>
<glyph name="cha-beng" format="2">
  <advance width="479.17586206896544"/>
  <unicode hex="099B"/>
  <anchor x="288.99310344827586" y="26.875862068965517" name="bottom"/>
  <anchor x="398.05172413793105" y="-117.92413793103448" name="bottom.rakaar"/>
  <anchor x="356.4655172413793" y="19.903448275862065" name="bottom.rvocalic"/>
  <anchor x="280.97241379310344" y="24.24827586206896" name="bottom.virama"/>
  <anchor x="100.80344827586207" y="578.0689655172414" name="top"/>
  <anchor x="102.21724137931035" y="570.6206896551724" name="topright"/>
  <anchor x="239.43793103448274" y="0.0" name="vedic"/>
  <outline>
    <contour>
      <point x="457.75862068965523" y="-118.26206896551724" type="curve"/>
      <point x="490.2068965517241" y="-80.29655172413794" type="line"/>
      <point x="410.4689655172414" y="9.999999999999998"/>
      <point x="306.00689655172414" y="102.37931034482759"/>
      <point x="204.5689655172414" y="128.92758620689656" type="curve"/>
      <point x="174.9344827586207" y="99.0758620689655" type="line"/>
      <point x="189.15862068965515" y="91.40689655172413"/>
      <point x="213.38275862068966" y="88.97931034482757"/>
      <point x="237.5655172413793" y="88.97931034482757" type="curve" smooth="yes"/>
      <point x="354.60689655172416" y="88.97931034482757"/>
      <point x="443.54137931034484" y="161.2655172413793"/>
      <point x="443.54137931034484" y="297.00689655172414" type="curve" smooth="yes"/>
      <point x="443.54137931034484" y="417.9413793103448"/>
      <point x="359.09999999999997" y="490.6655172413793"/>
      <point x="258.6034482758621" y="490.6655172413793" type="curve" smooth="yes"/>
      <point x="194.29310344827587" y="490.6655172413793"/>
      <point x="142.3620689655172" y="507.8965517241379"/>
      <point x="114.24137931034483" y="558.2068965517242" type="curve"/>
      <point x="110.62068965517241" y="511.7241379310345" type="line"/>
      <point x="136.8896551724138" y="452.48275862068965"/>
      <point x="190.56551724137933" y="418.44827586206895"/>
      <point x="238.20344827586206" y="413.93103448275866" type="curve"/>
      <point x="214.45517241379312" y="453.7931034482759" type="line"/>
      <point x="210.58275862068965" y="366.0"/>
      <point x="182.49655172413793" y="305.28620689655173"/>
      <point x="148.00689655172414" y="305.28620689655173" type="curve" smooth="yes"/>
      <point x="130.00689655172414" y="305.28620689655173"/>
      <point x="119.54137931034484" y="317.9310344827586"/>
      <point x="119.54137931034484" y="337.67586206896556" type="curve" smooth="yes"/>
      <point x="119.54137931034484" y="557.5862068965517" type="line"/>
      <point x="509.1" y="557.5862068965517" type="line"/>
      <point x="472.14482758620693" y="622.0" type="line"/>
      <point x="-29.924137931034483" y="622.0" type="line"/>
      <point x="5.710344827586207" y="557.5862068965517" type="line"/>
      <point x="47.220689655172414" y="557.5862068965517" type="line"/>
      <point x="47.220689655172414" y="337.8793103448276" type="line" smooth="yes"/>
      <point x="47.220689655172414" y="280.5"/>
      <point x="98.40689655172415" y="227.86206896551724"/>
      <point x="165.41379310344828" y="227.86206896551724" type="curve" smooth="yes"/>
      <point x="242.5137931034483" y="227.86206896551724"/>
      <point x="300.4034482758621" y="288.8965517241379"/>
      <point x="316.26551724137926" y="452.7241379310345" type="curve"/>
      <point x="277.8103448275862" y="426.0965517241379" type="line"/>
      <point x="320.40000000000003" y="425.83103448275864"/>
      <point x="366.3241379310345" y="398.4689655172414"/>
      <point x="366.3241379310345" y="316.9413793103448" type="curve" smooth="yes"/>
      <point x="366.3241379310345" y="225.31034482758622"/>
      <point x="302.26206896551724" y="180.08965517241379"/>
      <point x="204.91034482758621" y="180.08965517241379" type="curve" smooth="yes"/>
      <point x="153.8137931034483" y="180.08965517241379"/>
      <point x="109.12413793103447" y="189.86551724137934"/>
      <point x="71.7103448275862" y="211.2448275862069" type="curve"/>
      <point x="98.28965517241379" y="83.00689655172414" type="line"/>
      <point x="220.69655172413792" y="57.2103448275862"/>
      <point x="323.8724137931035" y="8.631034482758622"/>
    </contour>
  </outline>
</glyph>
<glyph name="ja-beng" format="2">
  <advance width="696.5000000000001"/>
  <unicode hex="099C"/>
  <anchor x="617.1999999999999" y="68.44137931034483" name="bottom"/>
  <anchor x="628.9137931034484" y="61.62068965517241" name="bottom.rakaar"/>
  <anchor x="628.5551724137931" y="-12.689655172413794" name="bottom.rvocalic"/>
  <anchor x="613.9586206896552" y="-17.255172413793105" name="bottom.virama"/>
  <anchor x="380.02758620689656" y="577.6344827586207" name="top"/>
  <anchor x="381.2551724137931" y="570.6206896551724" name="topright"/>
  <anchor x="347.9758620689655" y="0.0" name="vedic"/>
  <outline>
    <contour>
      <point x="303.95862068965516" y="16.531034482758617" type="curve" smooth="yes"/>
      <point x="427.0103448275862" y="16.531034482758617"/>
      <point x="479.3310344827586" y="106.07241379310345"/>
      <point x="479.3310344827586" y="226.16206896551725" type="curve" smooth="yes"/>
      <point x="479.3310344827586" y="310.1620689655172"/>
      <point x="445.20000000000005" y="376.7586206896552"/>
      <point x="402.13448275862066" y="422.4689655172414" type="curve"/>
      <point x="364.7758620689656" y="360.8724137931034"/>
      <point x="325.148275862069" y="324.94137931034487"/>
      <point x="288.4551724137931" y="324.94137931034487" type="curve" smooth="yes"/>
      <point x="259.74482758620695" y="324.94137931034487"/>
      <point x="239.22068965517246" y="344.34482758620686"/>
      <point x="239.22068965517246" y="379.8137931034483" type="curve" smooth="yes"/>
      <point x="239.22068965517246" y="442.6620689655173"/>
      <point x="319.9655172413793" y="510.7586206896552"/>
      <point x="415.4448275862069" y="557.5862068965517" type="curve"/>
      <point x="726.4241379310346" y="557.5862068965517" type="line"/>
      <point x="690.9758620689655" y="622.0" type="line"/>
      <point x="-29.924137931034483" y="622.0" type="line"/>
      <point x="5.710344827586207" y="557.5862068965517" type="line"/>
      <point x="297.0103448275862" y="557.5862068965517" type="line"/>
      <point x="276.87586206896555" y="581.7586206896551" type="line"/>
      <point x="224.91379310344826" y="547.0620689655173"/>
      <point x="160.03103448275863" y="475.44827586206895"/>
      <point x="160.03103448275863" y="392.65172413793107" type="curve" smooth="yes"/>
      <point x="160.03103448275863" y="294.9586206896552"/>
      <point x="224.98620689655172" y="225.86896551724138"/>
      <point x="298.73448275862074" y="225.86896551724138" type="curve" smooth="yes"/>
      <point x="355.37586206896555" y="225.86896551724138"/>
      <point x="407.7551724137931" y="266.46206896551723"/>
      <point x="444.32068965517243" y="326.04137931034484" type="curve"/>
      <point x="399.7827586206896" y="327.951724137931" type="line"/>
      <point x="414.4310344827586" y="305.5241379310345"/>
      <point x="425.4586206896552" y="277.6551724137931"/>
      <point x="425.4586206896552" y="241.95862068965516" type="curve" smooth="yes"/>
      <point x="425.4586206896552" y="173.6793103448276"/>
      <point x="381.5034482758621" y="127.17241379310344"/>
      <point x="302.551724137931" y="127.17241379310344" type="curve" smooth="yes"/>
      <point x="179.90689655172412" y="127.17241379310344"/>
      <point x="104.92068965517241" y="235.54827586206898"/>
      <point x="64.42758620689655" y="483.7034482758621" type="curve"/>
      <point x="14.700000000000001" y="473.7931034482759" type="line"/>
      <point x="57.18620689655172" y="156.6448275862069"/>
      <point x="149.5448275862069" y="16.531034482758617"/>
    </contour>
    <contour>
      <point x="583.0551724137931" y="-41.20689655172414" type="curve"/>
      <point x="628.5551724137931" y="-24.427586206896553" type="line"/>
      <point x="608.1" y="43.09310344827586"/>
      <point x="601.0758620689654" y="98.48965517241379"/>
      <point x="601.0758620689654" y="160.42413793103447" type="curve" smooth="yes"/>
      <point x="601.0758620689654" y="244.10344827586206"/>
      <point x="624.5448275862068" y="324.8827586206897"/>
      <point x="671.3137931034482" y="386.0689655172414" type="curve"/>
      <point x="616.3793103448276" y="467.1034482758621" type="line"/>
      <point x="511.46551724137936" y="462.84827586206893"/>
      <point x="447.23448275862063" y="498.4275862068966"/>
      <point x="413.13448275862066" y="592.9103448275862" type="curve"/>
      <point x="372.10344827586204" y="553.9310344827586" type="line"/>
      <point x="410.9068965517242" y="431.19310344827585"/>
      <point x="502.71724137931034" y="380.06206896551726"/>
      <point x="585.5275862068966" y="365.3724137931034" type="curve"/>
      <point x="568.4551724137931" y="406.3758620689655" type="line"/>
      <point x="542.751724137931" y="341.71724137931034"/>
      <point x="531.0379310344827" y="274.5482758620689"/>
      <point x="531.0379310344827" y="200.49310344827586" type="curve" smooth="yes"/>
      <point x="531.0379310344827" y="109.48965517241379"/>
      <point x="553.1931034482759" y="31.513793103448275"/>
    </contour>
  </outline>
</glyph>
<glyph name="jha-beng" format="2">
  <advance width="597.4344827586207"/>
  <unicode hex="099D"/>
  <anchor x="385.5896551724138" y="32.48275862068966" name="bottom"/>
  <anchor x="387.55172413793105" y="80.36551724137931" name="bottom.rakaar"/>
  <anchor x="390.44827586206895" y="8.393103448275863" name="bottom.rvocalic"/>
  <anchor x="375.85172413793106" y="13.572413793103447" name="bottom.virama"/>
  <anchor x="365.9034482758621" y="578.0689655172414" name="top"/>
  <anchor x="418.9793103448276" y="578.0689655172414" name="topleft"/>
  <anchor x="367.3965517241379" y="570.6206896551724" name="topright"/>
  <anchor x="298.5" y="0.0" name="vedic"/>
  <outline>
    <contour>
      <point x="382.70000000000005" y="-19.82758620689655" type="line"/>
      <point x="390.44827586206895" y="-18.20689655172414" type="line"/>
      <point x="390.44827586206895" y="622.0" type="line"/>
      <point x="-29.924137931034483" y="622.0" type="line"/>
      <point x="5.710344827586207" y="557.5862068965517" type="line"/>
      <point x="316.63793103448273" y="557.5862068965517" type="line"/>
      <point x="316.63793103448273" y="481.4" type="line"/>
      <point x="325.12068965517244" y="518.7793103448275" type="line"/>
      <point x="212.32068965517243" y="476.4344827586207"/>
      <point x="105.24137931034481" y="418.3241379310345"/>
      <point x="9.93103448275862" y="346.5310344827587" type="curve"/>
      <point x="67.85172413793103" y="214.8896551724138" type="line"/>
      <point x="180.35172413793103" y="191.12413793103448"/>
      <point x="270.4034482758621" y="127.99999999999999"/>
      <point x="329.0448275862069" y="16.86551724137931" type="curve"/>
    </contour>
    <contour>
      <point x="316.63793103448273" y="85.14827586206897" type="line"/>
      <point x="331.3137931034483" y="89.38275862068966" type="line"/>
      <point x="286.98620689655166" y="208.5103448275862"/>
      <point x="196.84827586206896" y="273.6448275862069"/>
      <point x="116.6793103448276" y="300.11724137931037" type="curve"/>
      <point x="122.86551724137932" y="280.5655172413793" type="line"/>
      <point x="183.42758620689656" y="332.6827586206897"/>
      <point x="264.0241379310345" y="372.43793103448274"/>
      <point x="329.81034482758616" y="400.07931034482755" type="curve"/>
      <point x="316.63793103448273" y="432.55172413793105" type="line"/>
    </contour>
    <contour>
      <point x="525.0344827586207" y="68.90689655172413" type="line"/>
      <point x="532.3689655172415" y="70.52758620689654" type="line"/>
      <point x="532.3689655172415" y="557.5862068965517" type="line"/>
      <point x="627.3586206896553" y="557.5862068965517" type="line"/>
      <point x="591.6103448275862" y="622.0" type="line"/>
      <point x="526.3586206896551" y="622.0" type="line"/>
      <point x="519.6103448275861" y="672.448275862069" type="line"/>
      <point x="465.28965517241386" y="707.3103448275862" type="line"/>
      <point x="459.42758620689654" y="705.0689655172414" type="line"/>
      <point x="459.42758620689654" y="174.31724137931036" type="line"/>
      <point x="474.1034482758621" y="177.37241379310345" type="line"/>
      <point x="448.1000000000001" y="250.6793103448276"/>
      <point x="407.38965517241377" y="300.748275862069"/>
      <point x="359.2655172413793" y="337.00344827586207" type="curve"/>
      <point x="351.65172413793107" y="245.9103448275862" type="line"/>
      <point x="401.4" y="213.54482758620688"/>
      <point x="440.1758620689655" y="167.848275862069"/>
      <point x="471.64827586206894" y="105.6" type="curve"/>
    </contour>
  </outline>
</glyph>
<glyph name="nya-beng" format="2">
  <advance width="812.0068965517241"/>
  <unicode hex="099E"/>
  <anchor x="504.2724137931034" y="29.379310344827587" name="bottom"/>
  <anchor x="541.4172413793103" y="77.44827586206897" name="bottom.rakaar"/>
  <anchor x="509.13103448275865" y="4.834482758620689" name="bottom.rvocalic"/>
  <anchor x="493.7896551724138" y="7.862068965517242" name="bottom.virama"/>
  <anchor x="418.40000000000003" y="577.6344827586207" name="top"/>
  <anchor x="419.64482758620693" y="570.6206896551724" name="topright"/>
  <anchor x="406.00344827586207" y="0.0" name="vedic"/>
  <outline>
    <contour>
      <point x="644.4965517241379" y="38.38620689655173" type="curve" smooth="yes"/>
      <point x="722.8172413793104" y="38.38620689655173"/>
      <point x="763.7551724137932" y="107.24827586206897"/>
      <point x="763.7551724137932" y="192.38620689655173" type="curve" smooth="yes"/>
      <point x="763.7551724137932" y="245.54137931034484"/>
      <point x="746.1862068965518" y="300.40000000000003"/>
      <point x="703.8379310344828" y="339.64137931034486" type="curve"/>
      <point x="718.0689655172414" y="294.9172413793104" type="line"/>
      <point x="743.3379310344827" y="325.1275862068965"/>
      <point x="762.3413793103448" y="378.50689655172414"/>
      <point x="762.3413793103448" y="439.26206896551724" type="curve" smooth="yes"/>
      <point x="762.3413793103448" y="526.5275862068966"/>
      <point x="720.1413793103449" y="596.8965517241379"/>
      <point x="651.151724137931" y="596.8965517241379" type="curve" smooth="yes"/>
      <point x="552.4689655172415" y="596.8965517241379"/>
      <point x="490.3068965517241" y="453.2275862068966"/>
      <point x="483.0862068965517" y="372.26206896551724" type="curve"/>
      <point x="483.0862068965517" y="267.7793103448276" type="line"/>
      <point x="497.96206896551723" y="147.57241379310344"/>
      <point x="560.0689655172414" y="38.38620689655173"/>
    </contour>
    <contour>
      <point x="638.4275862068965" y="137.57241379310344" type="curve" smooth="yes"/>
      <point x="574.8034482758621" y="137.57241379310344"/>
      <point x="516.2172413793104" y="217.82413793103447"/>
      <point x="516.2172413793104" y="314.2068965517241" type="curve" smooth="yes"/>
      <point x="516.2172413793104" y="399.06896551724134"/>
      <point x="569.1827586206897" y="505.24827586206897"/>
      <point x="645.2896551724137" y="505.24827586206897" type="curve" smooth="yes"/>
      <point x="675.9551724137931" y="505.24827586206897"/>
      <point x="696.8896551724139" y="487.2413793103448"/>
      <point x="696.8896551724139" y="450.7793103448276" type="curve" smooth="yes"/>
      <point x="696.8896551724139" y="408.9275862068966"/>
      <point x="669.8724137931034" y="375.2275862068966"/>
      <point x="637.796551724138" y="358.848275862069" type="curve"/>
      <point x="686.4793103448276" y="349.0896551724138" type="line"/>
      <point x="669.8103448275862" y="376.1241379310345"/>
      <point x="648.2310344827587" y="389.0896551724138"/>
      <point x="620.896551724138" y="389.0896551724138" type="curve" smooth="yes"/>
      <point x="583.2241379310344" y="389.0896551724138"/>
      <point x="558.0137931034483" y="359.66551724137935"/>
      <point x="558.0137931034483" y="316.0206896551724" type="curve" smooth="yes"/>
      <point x="558.0137931034483" y="268.29655172413794"/>
      <point x="586.7310344827586" y="241.00689655172414"/>
      <point x="625.251724137931" y="241.00689655172414" type="curve" smooth="yes"/>
      <point x="659.7965517241379" y="241.00689655172414"/>
      <point x="684.948275862069" y="258.00689655172414"/>
      <point x="706.2517241379311" y="286.8137931034483" type="curve"/>
      <point x="667.9827586206897" y="306.64137931034486" type="line"/>
      <point x="685.0103448275862" y="289.0206896551724"/>
      <point x="706.5793103448275" y="260.31034482758616"/>
      <point x="706.5793103448275" y="219.7448275862069" type="curve" smooth="yes"/>
      <point x="706.5793103448275" y="167.84827586206896"/>
      <point x="681.3103448275862" y="137.57241379310344"/>
    </contour>
    <component base="e-beng"/>
  </outline>
</glyph>
<glyph name="tta-beng" format="2">
  <advance width="454.2241379310344"/>
  <unicode hex="099F"/>
  <anchor x="303.33103448275864" y="15.724137931034482" name="bottom"/>
  <anchor x="364.0" y="0.9413793103448274" name="bottom.rakaar"/>
  <anchor x="310.37931034482756" y="15.551724137931036" name="bottom.rvocalic"/>
  <anchor x="243.3620689655172" y="31.355172413793102" name="bottom.virama"/>
  <anchor x="237.09655172413792" y="658.4896551724138" name="top"/>
  <anchor x="175.3862068965517" y="640.0931034482759" name="topright"/>
  <anchor x="227.05517241379312" y="0.0" name="vedic"/>
  <anchor x="201.4586206896552" y="-89.37931034482759" name="nukta"/>
  <outline>
    <contour>
      <point x="336.848275862069" y="603.3103448275862" type="curve"/>
      <point x="387.11034482758623" y="603.3103448275862" type="line"/>
      <point x="383.14827586206894" y="742.9862068965518"/>
      <point x="339.14137931034486" y="809.6758620689654"/>
      <point x="252.98275862068968" y="809.6758620689654" type="curve" smooth="yes"/>
      <point x="208.8862068965517" y="809.6758620689654"/>
      <point x="177.60000000000002" y="800.2413793103448"/>
      <point x="133.5" y="800.2413793103448" type="curve" smooth="yes"/>
      <point x="75.71379310344828" y="800.2413793103448"/>
      <point x="48.06551724137931" y="821.0413793103448"/>
      <point x="48.06551724137931" y="882.0586206896552" type="curve" smooth="yes"/>
      <point x="48.06551724137931" y="895.0241379310346"/>
      <point x="49.065517241379304" y="909.648275862069"/>
      <point x="50.951724137931045" y="921.1758620689654" type="curve"/>
      <point x="7.2448275862068945" y="926.2310344827586" type="line"/>
      <point x="3.117241379310345" y="904.8758620689655"/>
      <point x="1.1965517241379304" y="879.8862068965517"/>
      <point x="1.1965517241379304" y="859.5068965517241" type="curve" smooth="yes"/>
      <point x="1.1965517241379304" y="761.5827586206897"/>
      <point x="44.841379310344834" y="701.4689655172414"/>
      <point x="138.48620689655175" y="701.4689655172414" type="curve" smooth="yes"/>
      <point x="192.66551724137932" y="701.4689655172414"/>
      <point x="224.28620689655173" y="711.6551724137931"/>
      <point x="262.91379310344826" y="711.6551724137931" type="curve" smooth="yes"/>
      <point x="307.551724137931" y="711.6551724137931"/>
      <point x="334.5034482758621" y="684.5034482758621"/>
    </contour>
    <component base="ddha-beng"/>
  </outline>
</glyph>
<glyph name="ttha-beng" format="2">
  <advance width="472.4"/>
  <unicode hex="09A0"/>
  <anchor x="286.77241379310345" y="-18.0" name="bottom"/>
  <anchor x="412.8448275862069" y="-32.03448275862069" name="bottom.rakaar"/>
  <anchor x="333.48965517241385" y="-20.482758620689655" name="bottom.rvocalic"/>
  <anchor x="280.23448275862074" y="-7.448275862068966" name="bottom.virama"/>
  <anchor x="383.6344827586207" y="558.5379310344828" name="top"/>
  <anchor x="379.53793103448277" y="604.4103448275862" name="topleft"/>
  <anchor x="285.56551724137927" y="570.6206896551724" name="topright"/>
  <anchor x="236.0103448275862" y="0.0" name="vedic"/>
  <outline>
    <contour>
      <point x="243.23793103448278" y="-16.10344827586207" type="curve" smooth="yes"/>
      <point x="357.41379310344826" y="-16.10344827586207"/>
      <point x="429.14137931034486" y="63.144827586206894"/>
      <point x="429.14137931034486" y="198.68620689655174" type="curve" smooth="yes"/>
      <point x="429.14137931034486" y="327.15862068965515"/>
      <point x="355.07586206896553" y="445.151724137931"/>
      <point x="267.68275862068964" y="557.5862068965517" type="curve"/>
      <point x="502.32413793103444" y="557.5862068965517" type="line"/>
      <point x="467.06896551724145" y="622.0" type="line"/>
      <point x="214.40689655172415" y="622.0" type="line"/>
      <point x="182.86206896551724" y="658.7586206896551"/>
      <point x="163.67241379310346" y="696.0413793103448"/>
      <point x="163.67241379310346" y="732.4310344827585" type="curve" smooth="yes"/>
      <point x="163.67241379310346" y="769.8827586206896"/>
      <point x="188.6344827586207" y="802.0344827586207"/>
      <point x="228.5896551724138" y="829.3103448275862" type="curve"/>
      <point x="153.46206896551726" y="899.1379310344828" type="line"/>
      <point x="99.49655172413793" y="860.8620689655172"/>
      <point x="73.88620689655173" y="815.0103448275861"/>
      <point x="73.88620689655173" y="769.7931034482758" type="curve" smooth="yes"/>
      <point x="73.88620689655173" y="708.2068965517242"/>
      <point x="109.02068965517242" y="665.3793103448276"/>
      <point x="146.84137931034482" y="622.0" type="curve"/>
      <point x="-29.924137931034483" y="622.0" type="line"/>
      <point x="5.710344827586207" y="557.5862068965517" type="line"/>
      <point x="180.59655172413792" y="557.5862068965517" type="line"/>
      <point x="190.46206896551723" y="527.9241379310345"/>
      <point x="196.55517241379312" y="495.9724137931034"/>
      <point x="196.55517241379312" y="456.62068965517244" type="curve" smooth="yes"/>
      <point x="196.55517241379312" y="348.8344827586207"/>
      <point x="137.01724137931035" y="270.7068965517241"/>
      <point x="20.889655172413796" y="241.99655172413793" type="curve"/>
      <point x="35.11379310344827" y="78.68620689655172"/>
      <point x="115.12758620689655" y="-16.10344827586207"/>
    </contour>
    <contour>
      <point x="225.4931034482759" y="62.94827586206897" type="curve" smooth="yes"/>
      <point x="167.44827586206895" y="62.94827586206897"/>
      <point x="128.1793103448276" y="114.16206896551725"/>
      <point x="126.77931034482759" y="184.2344827586207" type="curve"/>
      <point x="114.65862068965517" y="152.67586206896553" type="line"/>
      <point x="214.1310344827586" y="185.05517241379312"/>
      <point x="263.24827586206897" y="266.7758620689655"/>
      <point x="263.24827586206897" y="371.53793103448277" type="curve" smooth="yes"/>
      <point x="263.24827586206897" y="448.3793103448276"/>
      <point x="245.0965517241379" y="510.0"/>
      <point x="215.21724137931034" y="567.6206896551724" type="curve"/>
      <point x="205.28620689655173" y="567.6206896551724" type="line"/>
      <point x="292.92413793103447" y="448.53793103448277"/>
      <point x="330.9758620689655" y="340.51724137931035"/>
      <point x="330.9758620689655" y="223.91724137931035" type="curve" smooth="yes"/>
      <point x="330.9758620689655" y="119.47241379310344"/>
      <point x="288.6655172413793" y="62.94827586206897"/>
    </contour>
  </outline>
</glyph>
<glyph name="dda-beng" format="2">
  <advance width="525.5344827586207"/>
  <unicode hex="09A1"/>
  <anchor x="376.40344827586205" y="12.275862068965516" name="bottom"/>
  <anchor x="458.2689655172413" y="-7.862068965517242" name="bottom.rakaar"/>
  <anchor x="380.5103448275862" y="19.689655172413794" name="bottom.rvocalic"/>
  <anchor x="341.8931034482759" y="4.689655172413794" name="bottom.virama"/>
  <anchor x="282.62068965517244" y="-90.55172413793103" name="nukta"/>
  <anchor x="246.95862068965516" y="578.0689655172414" name="top"/>
  <anchor x="248.45172413793105" y="570.6206896551724" name="topright"/>
  <anchor x="262.63448275862066" y="0.0" name="vedic"/>
  <outline>
    <contour>
      <point x="307.5655172413793" y="22.068965517241377" type="curve" smooth="yes"/>
      <point x="438.15517241379314" y="22.068965517241377"/>
      <point x="503.73448275862074" y="118.23793103448277"/>
      <point x="503.73448275862074" y="250.3310344827586" type="curve" smooth="yes"/>
      <point x="503.73448275862074" y="353.0862068965517"/>
      <point x="465.4517241379311" y="424.91034482758624"/>
      <point x="414.6275862068966" y="473.63448275862066" type="curve"/>
      <point x="376.7551724137931" y="401.1379310344828"/>
      <point x="329.2103448275862" y="353.6724137931035"/>
      <point x="292.1793103448276" y="353.6724137931035" type="curve" smooth="yes"/>
      <point x="277.15172413793107" y="353.6724137931035"/>
      <point x="265.06896551724134" y="362.2448275862069"/>
      <point x="265.06896551724134" y="382.9137931034483" type="curve" smooth="yes"/>
      <point x="265.06896551724134" y="557.5862068965517" type="line"/>
      <point x="555.4586206896552" y="557.5862068965517" type="line"/>
      <point x="518.5034482758621" y="622.0" type="line"/>
      <point x="-29.924137931034483" y="622.0" type="line"/>
      <point x="6.331034482758621" y="557.5862068965517" type="line"/>
      <point x="191.25862068965517" y="557.5862068965517" type="line"/>
      <point x="191.25862068965517" y="377.82068965517243" type="line" smooth="yes"/>
      <point x="191.25862068965517" y="337.60344827586204"/>
      <point x="201.57931034482758" y="308.78275862068966"/>
      <point x="224.39655172413794" y="285.9448275862069" type="curve" smooth="yes"/>
      <point x="246.04137931034484" y="264.1655172413793"/>
      <point x="272.3" y="252.55517241379312"/>
      <point x="305.45862068965516" y="252.55517241379312" type="curve" smooth="yes"/>
      <point x="361.17241379310343" y="252.55517241379312"/>
      <point x="421.9379310344828" y="299.6620689655173"/>
      <point x="458.71724137931034" y="370.38620689655176" type="curve"/>
      <point x="411.79655172413794" y="355.5551724137931" type="line"/>
      <point x="431.5034482758621" y="336.74827586206897"/>
      <point x="444.4413793103448" y="308.80689655172415"/>
      <point x="444.4413793103448" y="268.9103448275862" type="curve" smooth="yes"/>
      <point x="444.4413793103448" y="187.5655172413793"/>
      <point x="392.748275862069" y="133.07586206896553"/>
      <point x="307.92758620689654" y="133.07586206896553" type="curve" smooth="yes"/>
      <point x="167.13448275862072" y="133.07586206896553"/>
      <point x="102.79310344827587" y="250.06896551724137"/>
      <point x="62.04137931034484" y="483.21724137931034" type="curve"/>
      <point x="12.041379310344828" y="473.7931034482759" type="line"/>
      <point x="52.84827586206896" y="167.32068965517243"/>
      <point x="142.5896551724138" y="22.068965517241377"/>
    </contour>
  </outline>
</glyph>
<glyph name="ddha-beng" format="2">
  <advance width="454.2241379310344"/>
  <unicode hex="09A2"/>
  <anchor x="303.70344827586206" y="15.724137931034482" name="bottom"/>
  <anchor x="364.0" y="0.9413793103448274" name="bottom.rakaar"/>
  <anchor x="310.151724137931" y="15.137931034482758" name="bottom.rvocalic"/>
  <anchor x="243.3620689655172" y="31.355172413793102" name="bottom.virama"/>
  <anchor x="201.4586206896552" y="-89.37931034482759" name="nukta"/>
  <anchor x="125.59310344827588" y="578.0689655172414" name="top"/>
  <anchor x="127.00689655172413" y="570.6206896551724" name="topright"/>
  <anchor x="227.05517241379312" y="0.0" name="vedic"/>
  <outline>
    <contour>
      <point x="196.8310344827586" y="16.424137931034483" type="curve" smooth="yes"/>
      <point x="324.1034482758621" y="16.424137931034483"/>
      <point x="420.4068965517241" y="189.13793103448276"/>
      <point x="420.4068965517241" y="323.3103448275862" type="curve" smooth="yes"/>
      <point x="420.4068965517241" y="418.9310344827586"/>
      <point x="371.2689655172414" y="458.86206896551727"/>
      <point x="316.6655172413793" y="458.86206896551727" type="curve" smooth="yes"/>
      <point x="257.9448275862069" y="458.86206896551727"/>
      <point x="223.10344827586206" y="416.32758620689657"/>
      <point x="223.10344827586206" y="364.81724137931036" type="curve" smooth="yes"/>
      <point x="223.10344827586206" y="312.9344827586207"/>
      <point x="253.93793103448277" y="275.0586206896552"/>
      <point x="306.25172413793103" y="275.0586206896552" type="curve" smooth="yes"/>
      <point x="327.63448275862066" y="275.0586206896552"/>
      <point x="345.68275862068964" y="287.7931034482759"/>
      <point x="359.82068965517243" y="306.78275862068966" type="curve"/>
      <point x="319.8965517241379" y="337.3103448275862" type="line"/>
      <point x="314.29310344827593" y="210.96206896551723"/>
      <point x="238.35172413793103" y="101.16206896551724"/>
      <point x="180.03103448275863" y="101.16206896551724" type="curve" smooth="yes"/>
      <point x="154.35172413793103" y="101.16206896551724"/>
      <point x="139.31034482758622" y="117.16206896551724"/>
      <point x="139.31034482758622" y="149.06206896551726" type="curve" smooth="yes"/>
      <point x="139.31034482758622" y="557.5862068965517" type="line"/>
      <point x="484.148275862069" y="557.5862068965517" type="line"/>
      <point x="449.56896551724134" y="622.0" type="line"/>
      <point x="-29.924137931034483" y="622.0" type="line"/>
      <point x="7.444827586206896" y="557.5862068965517" type="line"/>
      <point x="65.68620689655172" y="557.5862068965517" type="line"/>
      <point x="65.68620689655172" y="145.69655172413795" type="line" smooth="yes"/>
      <point x="65.68620689655172" y="65.73793103448276"/>
      <point x="127.57241379310345" y="16.424137931034483"/>
    </contour>
  </outline>
</glyph>
<glyph name="nna-beng" format="2">
  <advance width="517.9655172413793"/>
  <unicode hex="09A3"/>
  <anchor x="439.80689655172415" y="62.703448275862065" name="bottom"/>
  <anchor x="452.2793103448276" y="-10.448275862068966" name="bottom.rakaar"/>
  <anchor x="452.2793103448276" y="-2.6206896551724137" name="bottom.rvocalic"/>
  <anchor x="422.4896551724138" y="7.241379310344827" name="bottom.virama"/>
  <anchor x="430.73793103448276" y="568.0689655172414" name="top"/>
  <anchor x="414.5896551724138" y="559.448275862069" name="topright"/>
  <anchor x="258.48275862068965" y="0.0" name="vedic"/>
  <outline>
    <contour>
      <point x="445.9103448275862" y="-31.20689655172414" type="line"/>
      <point x="452.2793103448276" y="-29.586206896551722" type="line"/>
      <point x="452.2793103448276" y="557.5862068965517" type="line"/>
      <point x="547.8896551724139" y="557.5862068965517" type="line"/>
      <point x="511.5206896551725" y="622.0" type="line"/>
      <point x="446.2689655172414" y="622.0" type="line"/>
      <point x="439.7068965517241" y="672.448275862069" type="line"/>
      <point x="385.8206896551725" y="707.3103448275862" type="line"/>
      <point x="379.9586206896552" y="705.0689655172414" type="line"/>
      <point x="379.9586206896552" y="565.3965517241379" type="line" smooth="yes"/>
      <point x="379.9586206896552" y="506.2724137931035"/>
      <point x="382.87931034482756" y="443.5344827586207"/>
      <point x="387.1034482758621" y="397.07586206896553" type="curve"/>
      <point x="394.7034482758621" y="402.57241379310346" type="line"/>
      <point x="336.49310344827586" y="561.2068965517242"/>
      <point x="267.9310344827586" y="628.2413793103449"/>
      <point x="181.5758620689655" y="628.2413793103449" type="curve" smooth="yes"/>
      <point x="96.20000000000002" y="628.2413793103449"/>
      <point x="29.951724137931038" y="559.1379310344829"/>
      <point x="29.951724137931038" y="443.9517241379311" type="curve" smooth="yes"/>
      <point x="29.951724137931038" y="311.4172413793104"/>
      <point x="115.79310344827586" y="245.83448275862068"/>
      <point x="193.73793103448276" y="245.83448275862068" type="curve" smooth="yes"/>
      <point x="256.4137931034483" y="245.83448275862068"/>
      <point x="291.2586206896552" y="284.3655172413793"/>
      <point x="291.2586206896552" y="341.24827586206897" type="curve" smooth="yes"/>
      <point x="291.2586206896552" y="393.2068965517241"/>
      <point x="259.63448275862066" y="432.6"/>
      <point x="209.05172413793105" y="432.6" type="curve" smooth="yes"/>
      <point x="165.70000000000002" y="432.6"/>
      <point x="135.36206896551727" y="400.0103448275862"/>
      <point x="135.36206896551727" y="353.0448275862069" type="curve" smooth="yes"/>
      <point x="135.36206896551727" y="335.62068965517244"/>
      <point x="139.79655172413794" y="317.19310344827585"/>
      <point x="147.20689655172413" y="307.2724137931034" type="curve"/>
      <point x="187.39310344827587" y="340.3448275862069" type="line"/>
      <point x="177.28620689655173" y="337.2896551724138"/>
      <point x="166.27586206896552" y="335.4206896551724"/>
      <point x="156.00000000000003" y="335.4206896551724" type="curve" smooth="yes"/>
      <point x="125.61379310344827" y="335.4206896551724"/>
      <point x="100.67586206896551" y="366.4172413793104"/>
      <point x="100.67586206896551" y="418.4655172413793" type="curve" smooth="yes"/>
      <point x="100.67586206896551" y="481.31034482758616"/>
      <point x="139.17241379310346" y="521.448275862069"/>
      <point x="201.07586206896553" y="521.448275862069" type="curve" smooth="yes"/>
      <point x="274.2344827586207" y="521.448275862069"/>
      <point x="330.34827586206893" y="471.59655172413795"/>
      <point x="387.85172413793106" y="311.151724137931" type="curve"/>
      <point x="378.65517241379314" y="375.4862068965517" type="line"/>
      <point x="378.65517241379314" y="1.7586206896551724" type="line"/>
    </contour>
  </outline>
</glyph>
<glyph name="ta-beng" format="2">
  <advance width="538.2344827586207"/>
  <unicode hex="09A4"/>
  <anchor x="396.28620689655173" y="21.137931034482758" name="bottom"/>
  <anchor x="471.14137931034475" y="0.3793103448275862" name="bottom.rakaar"/>
  <anchor x="405.11379310344824" y="28.310344827586206" name="bottom.rvocalic"/>
  <anchor x="342.59999999999997" y="13.551724137931034" name="bottom.virama"/>
  <anchor x="322.02758620689656" y="578.0689655172414" name="top"/>
  <anchor x="323.5206896551724" y="570.6206896551724" name="topright"/>
  <anchor x="269.11724137931037" y="0.0" name="vedic"/>
  <outline>
    <contour>
      <point x="322.3241379310345" y="30.93103448275862" type="curve" smooth="yes"/>
      <point x="428.8344827586207" y="30.93103448275862"/>
      <point x="515.3379310344827" y="100.86206896551724"/>
      <point x="515.3379310344827" y="257.36896551724135" type="curve" smooth="yes"/>
      <point x="515.3379310344827" y="401.21034482758625"/>
      <point x="438.5413793103448" y="506.13793103448273"/>
      <point x="307.6172413793103" y="506.13793103448273" type="curve" smooth="yes"/>
      <point x="226.18275862068967" y="506.13793103448273"/>
      <point x="179.33103448275864" y="455.40344827586205"/>
      <point x="179.33103448275864" y="380.9655172413793" type="curve" smooth="yes"/>
      <point x="179.33103448275864" y="318.2551724137931"/>
      <point x="217.08275862068967" y="267.8068965517241"/>
      <point x="284.71724137931034" y="267.8068965517241" type="curve" smooth="yes"/>
      <point x="345.0896551724138" y="267.8068965517241"/>
      <point x="378.07241379310346" y="311.9655172413793"/>
      <point x="378.07241379310346" y="366.2413793103448" type="curve" smooth="yes"/>
      <point x="378.07241379310346" y="405.2655172413793"/>
      <point x="359.10689655172416" y="437.44827586206895"/>
      <point x="344.9655172413793" y="453.0689655172414" type="curve"/>
      <point x="311.7413793103448" y="391.44827586206895" type="line"/>
      <point x="322.07586206896553" y="396.6896551724138"/>
      <point x="340.13448275862066" y="402.41379310344826"/>
      <point x="359.3448275862069" y="402.41379310344826" type="curve" smooth="yes"/>
      <point x="409.7172413793104" y="402.41379310344826"/>
      <point x="449.80689655172415" y="366.28965517241375"/>
      <point x="449.80689655172415" y="282.36896551724135" type="curve" smooth="yes"/>
      <point x="449.80689655172415" y="188.7241379310345"/>
      <point x="396.05172413793105" y="142.85862068965517"/>
      <point x="318.13793103448273" y="142.85862068965517" type="curve" smooth="yes"/>
      <point x="197.29655172413794" y="142.85862068965517"/>
      <point x="116.8896551724138" y="230.87586206896552"/>
      <point x="56.63103448275862" y="495.3551724137931" type="curve"/>
      <point x="7.551724137931034" y="483.3103448275862" type="line"/>
      <point x="67.61724137931034" y="161.9310344827586"/>
      <point x="160.84137931034485" y="30.93103448275862"/>
    </contour>
    <contour>
      <point x="5.144827586206897" y="557.5862068965517" type="line"/>
      <point x="568.1586206896551" y="557.5862068965517" type="line"/>
      <point x="531.903448275862" y="622.0" type="line"/>
      <point x="-29.924137931034483" y="622.0" type="line"/>
    </contour>
  </outline>
</glyph>
<glyph name="tha-beng" format="2">
  <advance width="498.17586206896556"/>
  <unicode hex="09A5"/>
  <anchor x="427.551724137931" y="32.48275862068966" name="bottom"/>
  <anchor x="432.67586206896556" y="80.55172413793103" name="bottom.rakaar"/>
  <anchor x="432.67586206896556" y="10.510344827586206" name="bottom.rvocalic"/>
  <anchor x="415.1379310344828" y="10.96551724137931" name="bottom.virama"/>
  <anchor x="409.64482758620693" y="568.0689655172414" name="top"/>
  <anchor x="394.11724137931037" y="559.448275862069" name="topright"/>
  <anchor x="248.86206896551727" y="0.0" name="vedic"/>
  <outline>
    <contour>
      <point x="425.6275862068966" y="-19.82758620689655" type="line"/>
      <point x="432.67586206896556" y="-18.20689655172414" type="line"/>
      <point x="432.67586206896556" y="557.5862068965517" type="line"/>
      <point x="528.1" y="557.5862068965517" type="line"/>
      <point x="492.351724137931" y="622.0" type="line"/>
      <point x="427.09999999999997" y="622.0" type="line"/>
      <point x="420.35172413793106" y="672.448275862069" type="line"/>
      <point x="364.72758620689655" y="707.3103448275862" type="line"/>
      <point x="359.29999999999995" y="705.0689655172414" type="line"/>
      <point x="359.29999999999995" y="85.88275862068966" type="line"/>
      <point x="372.3103448275862" y="93.33103448275861" type="line"/>
      <point x="330.6344827586207" y="201.14482758620687"/>
      <point x="245.651724137931" y="262.93448275862073"/>
      <point x="163.73103448275862" y="293.16896551724136" type="curve"/>
      <point x="174.76896551724138" y="265.9206896551724" type="line"/>
      <point x="265.9689655172414" y="285.62068965517244"/>
      <point x="313.63448275862066" y="342.4586206896552"/>
      <point x="313.63448275862066" y="441.4896551724138" type="curve" smooth="yes"/>
      <point x="313.63448275862066" y="559.9413793103448"/>
      <point x="241.5448275862069" y="625.8689655172413"/>
      <point x="148.81034482758622" y="625.8689655172413" type="curve" smooth="yes"/>
      <point x="72.71379310344827" y="625.8689655172413"/>
      <point x="16.57931034482759" y="572.2758620689656"/>
      <point x="16.57931034482759" y="504.0241379310345" type="curve" smooth="yes"/>
      <point x="16.57931034482759" y="443.86896551724135"/>
      <point x="53.18275862068965" y="412.8758620689655"/>
      <point x="96.39655172413792" y="412.8758620689655" type="curve" smooth="yes"/>
      <point x="140.8586206896552" y="412.8758620689655"/>
      <point x="167.03103448275863" y="440.77241379310345"/>
      <point x="167.03103448275863" y="482.28275862068966" type="curve" smooth="yes"/>
      <point x="167.03103448275863" y="513.8206896551725"/>
      <point x="154.65862068965518" y="533.9862068965518"/>
      <point x="131.65172413793104" y="543.5206896551724" type="curve"/>
      <point x="133.21724137931034" y="513.7241379310345" type="line"/>
      <point x="142.23793103448276" y="534.3448275862069"/>
      <point x="158.87586206896552" y="548.0137931034482"/>
      <point x="181.82758620689657" y="548.0137931034482" type="curve" smooth="yes"/>
      <point x="218.4931034482759" y="548.0137931034482"/>
      <point x="242.6448275862069" y="515.1931034482759"/>
      <point x="242.6448275862069" y="464.3103448275862" type="curve" smooth="yes"/>
      <point x="242.6448275862069" y="374.93793103448274"/>
      <point x="155.86206896551724" y="345.8758620689655"/>
      <point x="54.62068965517242" y="344.9206896551724" type="curve"/>
      <point x="97.60344827586208" y="215.75172413793103" type="line"/>
      <point x="216.12758620689655" y="199.06206896551726"/>
      <point x="310.54137931034484" y="131.8793103448276"/>
      <point x="370.7413793103449" y="19.841379310344827" type="curve"/>
    </contour>
  </outline>
</glyph>
<glyph name="da-beng" format="2">
  <advance width="463.6793103448275"/>
  <unicode hex="09A6"/>
  <anchor x="388.99655172413793" y="74.4" name="bottom"/>
  <anchor x="401.1551724137931" y="62.55172413793103" name="bottom.rakaar"/>
  <anchor x="400.548275862069" y="-11.758620689655174" name="bottom.rvocalic"/>
  <anchor x="386.2" y="-16.137931034482758" name="bottom.virama"/>
  <anchor x="114.0655172413793" y="578.0689655172414" name="top"/>
  <anchor x="115.74482758620688" y="570.6206896551724" name="topright"/>
  <anchor x="231.68965517241378" y="0.0" name="vedic"/>
  <outline>
    <contour>
      <point x="355.048275862069" y="-40.27586206896551" type="curve"/>
      <point x="400.548275862069" y="-23.310344827586206" type="line"/>
      <point x="380.5586206896552" y="44.51034482758621"/>
      <point x="371.9724137931035" y="98.52068965517242"/>
      <point x="371.9724137931035" y="160.38275862068966" type="curve" smooth="yes"/>
      <point x="371.9724137931035" y="245.59310344827588"/>
      <point x="393.29999999999995" y="330.9655172413793"/>
      <point x="432.7344827586207" y="405.58620689655174" type="curve"/>
      <point x="334.7172413793104" y="492.1965517241379" type="line"/>
      <point x="250.6103448275862" y="435.10689655172416"/>
      <point x="165.3448275862069" y="354.91379310344826"/>
      <point x="110.71379310344828" y="284.0827586206896" type="curve"/>
      <point x="131.92758620689656" y="255.41379310344828" type="line"/>
      <point x="131.92758620689656" y="557.5862068965517" type="line"/>
      <point x="493.6034482758621" y="557.5862068965517" type="line"/>
      <point x="458.15517241379314" y="622.0" type="line"/>
      <point x="-29.924137931034483" y="622.0" type="line"/>
      <point x="6.144827586206896" y="557.5862068965517" type="line"/>
      <point x="58.11724137931034" y="557.5862068965517" type="line"/>
      <point x="58.11724137931034" y="202.3655172413793" type="line"/>
      <point x="130.02068965517242" y="151.1689655172414" type="line"/>
      <point x="206.2206896551724" y="244.73103448275862"/>
      <point x="282.16551724137935" y="325.28275862068966"/>
      <point x="363.9034482758621" y="387.44482758620694" type="curve"/>
      <point x="338.8965517241379" y="405.82758620689657" type="line"/>
      <point x="313.7310344827586" y="340.2896551724138"/>
      <point x="301.5827586206896" y="274.2586206896552"/>
      <point x="301.5827586206896" y="201.06206896551723" type="curve" smooth="yes"/>
      <point x="301.5827586206896" y="112.07586206896552"/>
      <point x="324.87586206896555" y="31.55517241379311"/>
    </contour>
  </outline>
</glyph>
<glyph name="dha-beng" format="2">
  <advance width="463.7172413793104"/>
  <unicode hex="09A7"/>
  <anchor x="392.7379310344828" y="32.48275862068966" name="bottom"/>
  <anchor x="395.1344827586207" y="80.55172413793103" name="bottom.rakaar"/>
  <anchor x="397.59655172413795" y="8.579310344827586" name="bottom.rvocalic"/>
  <anchor x="382.2551724137931" y="10.96551724137931" name="bottom.virama"/>
  <anchor x="379.05172413793105" y="578.0689655172414" name="top"/>
  <anchor x="380.5448275862069" y="570.6206896551724" name="topright"/>
  <anchor x="231.7655172413793" y="0.0" name="vedic"/>
  <outline>
    <contour>
      <point x="389.848275862069" y="-19.82758620689655" type="line"/>
      <point x="397.59655172413795" y="-18.20689655172414" type="line"/>
      <point x="397.59655172413795" y="557.5862068965517" type="line"/>
      <point x="493.2068965517241" y="557.5862068965517" type="line"/>
      <point x="456.95172413793097" y="622.0" type="line"/>
      <point x="323.7862068965517" y="622.0" type="line"/>
      <point x="323.7862068965517" y="470.8172413793103" type="line"/>
      <point x="332.4551724137931" y="506.5206896551724" type="line"/>
      <point x="220.0896551724138" y="462.1896551724138"/>
      <point x="112.01724137931033" y="407.0586206896552"/>
      <point x="17.017241379310345" y="337.3758620689655" type="curve"/>
      <point x="75.9310344827586" y="205.92068965517242" type="line"/>
      <point x="185.82413793103447" y="181.7"/>
      <point x="276.99310344827586" y="125.71379310344828"/>
      <point x="336.19310344827585" y="16.679310344827588" type="curve"/>
    </contour>
    <contour>
      <point x="323.7862068965517" y="85.52068965517242" type="line"/>
      <point x="338.4620689655173" y="88.82413793103449" type="line"/>
      <point x="297.196551724138" y="201.1758620689655"/>
      <point x="205.6" y="264.2"/>
      <point x="122.71034482758621" y="291.8931034482759" type="curve"/>
      <point x="129.26896551724136" y="272.2793103448276" type="line"/>
      <point x="189.6448275862069" y="321.7896551724138"/>
      <point x="270.6137931034483" y="362.351724137931"/>
      <point x="337.39310344827584" y="389.99310344827586" type="curve"/>
      <point x="323.7862068965517" y="421.2241379310345" type="line"/>
    </contour>
    <contour>
      <point x="180.34137931034482" y="401.0" type="curve"/>
      <point x="205.60689655172413" y="434.8620689655172" type="line"/>
      <point x="154.9344827586207" y="439.46206896551723"/>
      <point x="125.09655172413792" y="471.9"/>
      <point x="125.09655172413792" y="505.0137931034483" type="curve" smooth="yes"/>
      <point x="125.09655172413792" y="538.5793103448275"/>
      <point x="143.35517241379307" y="556.6689655172414"/>
      <point x="169.86551724137928" y="556.6689655172414" type="curve" smooth="yes"/>
      <point x="176.4655172413793" y="556.6689655172414"/>
      <point x="183.79999999999998" y="555.6689655172414"/>
      <point x="191.83448275862068" y="552.6689655172414" type="curve"/>
      <point x="156.8551724137931" y="590.0" type="line"/>
      <point x="149.6344827586207" y="577.7586206896551"/>
      <point x="147.33448275862068" y="562.8724137931034"/>
      <point x="147.33448275862068" y="548.0344827586207" type="curve" smooth="yes"/>
      <point x="147.33448275862068" y="510.17241379310343"/>
      <point x="173.48620689655172" y="489.57586206896553"/>
      <point x="203.24137931034483" y="489.57586206896553" type="curve" smooth="yes"/>
      <point x="236.12758620689655" y="489.57586206896553"/>
      <point x="262.2448275862069" y="514.7931034482758"/>
      <point x="262.2448275862069" y="553.8965517241379" type="curve" smooth="yes"/>
      <point x="262.2448275862069" y="599.2413793103449"/>
      <point x="232.39310344827584" y="636.5862068965517"/>
      <point x="169.8551724137931" y="636.5862068965517" type="curve" smooth="yes"/>
      <point x="99.99655172413794" y="636.5862068965517"/>
      <point x="53.04137931034482" y="590.1034482758621"/>
      <point x="53.04137931034482" y="522.3793103448276" type="curve" smooth="yes"/>
      <point x="53.04137931034482" y="437.0344827586207"/>
      <point x="130.7551724137931" y="401.0"/>
    </contour>
  </outline>
</glyph>
